<svg width="36" height="37" viewBox="0 0 36 37" fill="none" xmlns="http://www.w3.org/2000/svg">
<g clip-path="url(#clip0_1153_626)">
<path d="M9.39399 23.8298C8.87942 23.4232 8.23449 23.1992 7.57805 23.1992C6.68591 23.1992 5.85513 23.5956 5.2987 24.2869C4.81215 24.8921 4.59185 25.6492 4.67869 26.4187C4.76563 27.1897 5.15028 27.8804 5.76165 28.3636C6.27622 28.7703 6.92093 28.9943 7.57727 28.9943C8.47007 28.9943 9.30096 28.5971 9.85695 27.9051C10.3431 27.3009 10.5631 26.5447 10.4766 25.7756C10.3899 25.0045 10.0055 24.3134 9.39399 23.8298ZM8.82106 27.0723C8.51847 27.4491 8.06504 27.6653 7.57727 27.6653C7.21366 27.6653 6.87076 27.5463 6.5859 27.3211C6.25463 27.0593 6.04641 26.6859 5.99934 26.2697C5.9526 25.8551 6.07155 25.4467 6.33415 25.1202C6.63684 24.744 7.09028 24.5283 7.57805 24.5283C7.94199 24.5283 8.285 24.6473 8.56975 24.8724C8.90091 25.1342 9.10902 25.5078 9.15587 25.9242C9.2025 26.3385 9.08377 26.7461 8.82106 27.0723Z" fill="white"/>
<path d="M21.0793 17.024C21.5177 17.024 21.9415 16.928 22.3401 16.7381C23.0448 16.4009 23.5741 15.8111 23.8302 15.0773C24.0851 14.3481 24.0392 13.5634 23.7014 12.8684C23.2182 11.8722 22.1862 11.2285 21.0723 11.2285C20.6331 11.2285 20.2083 11.3249 19.8098 11.515C19.1054 11.8511 18.5759 12.4404 18.3193 13.1745C18.064 13.9043 18.1097 14.6891 18.4481 15.3844C18.9329 16.3804 19.9657 17.024 21.0793 17.024ZM19.5737 13.6132C19.7126 13.2161 19.9997 12.8969 20.382 12.7145C20.6004 12.6104 20.8325 12.5576 21.0722 12.5576C21.6804 12.5576 22.243 12.9072 22.5057 13.4489C22.6879 13.8237 22.7126 14.2463 22.5755 14.639C22.4367 15.0363 22.1493 15.3559 21.7674 15.5387C21.5498 15.6425 21.3182 15.695 21.0792 15.695C20.4705 15.695 19.9067 15.3447 19.6429 14.8028C19.4609 14.4286 19.4364 14.0062 19.5737 13.6132Z" fill="white"/>
<path d="M13.8488 12.3271C14.0625 12.3754 14.2813 12.3999 14.4989 12.3999C15.867 12.3999 17.0358 11.4746 17.3415 10.1485C17.5132 9.39662 17.3811 8.62255 16.9698 7.96865C16.555 7.30965 15.9067 6.85157 15.145 6.67901C14.9303 6.63028 14.7107 6.60547 14.492 6.60547C13.1249 6.60547 11.9573 7.53172 11.6526 8.85757C11.4794 9.60894 11.6106 10.3831 12.0221 11.0375C12.4372 11.6973 13.0861 12.1554 13.8488 12.3271ZM12.9479 9.15573C13.113 8.43681 13.7481 7.93465 14.492 7.93465C14.6116 7.93465 14.7322 7.94827 14.8508 7.97518C15.2663 8.06933 15.6193 8.31841 15.8448 8.6766C16.067 9.02958 16.1383 9.44712 16.0459 9.85116C15.883 10.5579 15.2323 11.0708 14.4988 11.0708C14.3796 11.0708 14.2595 11.0573 14.1412 11.0306C13.7255 10.937 13.3725 10.6881 13.1471 10.33C12.9254 9.9772 12.8546 9.56032 12.9479 9.15573Z" fill="white"/>
<path d="M8.5664 13.9862C9.17711 13.5024 9.5611 12.8111 9.64793 12.0399C9.73443 11.2711 9.5148 10.5148 9.02847 9.90955C8.47115 9.21855 7.63971 8.82227 6.74757 8.82227C6.09179 8.82227 5.44752 9.04555 4.93284 9.45147C4.32202 9.93392 3.93781 10.624 3.85065 11.3947C3.76359 12.1645 3.98378 12.9221 4.47099 13.5284C5.02787 14.2202 5.85942 14.617 6.75255 14.617C7.40889 14.6169 8.05316 14.3929 8.5664 13.9862ZM5.50678 12.6952C5.24362 12.3678 5.12456 11.9589 5.17152 11.5438C5.21848 11.1281 5.42648 10.7553 5.75653 10.4945C6.04128 10.2698 6.38407 10.1511 6.74768 10.1511C7.23589 10.1511 7.69032 10.3671 7.99324 10.7427C8.25518 11.0689 8.37391 11.4769 8.32728 11.8912C8.28043 12.3081 8.07221 12.6822 7.74116 12.9445C7.45774 13.169 7.11583 13.2877 6.75267 13.2877C6.2639 13.2878 5.8098 13.0716 5.50678 12.6952Z" fill="white"/>
<path d="M35.7458 7.48289C35.631 7.36704 35.4261 7.22893 35.1028 7.22893C34.7237 7.22893 33.7166 7.22893 27.6002 12.4336C27.4772 12.5381 27.3532 12.6441 27.2287 12.7509C26.1359 9.90014 24.2158 7.35863 21.7417 5.52031C18.9048 3.41252 15.5267 2.29776 11.973 2.29688C11.9719 2.29688 11.9711 2.29688 11.9702 2.29688C9.57194 2.29688 6.65663 3.13485 4.36167 4.48419C1.54847 6.13799 -0.00055363 8.34978 1.4843e-07 10.7119C0.000886193 13.5636 1.60928 14.7564 2.90169 15.7148C3.95553 16.4964 4.78785 17.1136 4.7883 18.4664C4.78863 19.8191 3.95674 20.4358 2.90346 21.2166C1.61149 22.1744 0.00343357 23.3666 0.00431962 26.2186C0.00498415 28.5804 1.55501 30.7927 4.36875 32.448C6.66538 33.799 9.58224 34.6387 11.981 34.6394C11.9826 34.6394 11.9841 34.6394 11.9856 34.6394C16.3389 34.6394 20.4312 32.9591 23.5091 29.9079C26.5478 26.8957 28.2378 22.9031 28.2822 18.6484C29.314 17.4743 30.3136 16.3072 31.2261 15.2075C32.7873 13.3262 33.9878 11.7739 34.7942 10.5938C35.8626 9.0307 36.3304 8.072 35.7458 7.48289ZM22.5735 28.9641C19.7461 31.7671 15.9864 33.3103 11.9858 33.3103C11.9845 33.3103 11.9828 33.3103 11.9815 33.3103C7.69452 33.3091 1.3346 30.3307 1.33339 26.2182C1.33272 24.0355 2.48015 23.1848 3.69503 22.2842C4.83061 21.4422 6.1177 20.4879 6.11725 18.466C6.11659 16.4444 4.82917 15.4895 3.69326 14.6472C2.47782 13.7458 1.32973 12.8944 1.32907 10.7115C1.32851 8.18619 3.65084 6.44379 5.03528 5.62984C7.10619 4.41231 9.82801 3.62583 11.9702 3.62583C11.971 3.62583 11.9719 3.62583 11.9726 3.62583C15.2389 3.62672 18.3429 4.65076 20.9491 6.58699C23.3527 8.37293 25.1875 10.88 26.1539 13.6808C23.2715 16.1976 20.1502 19.0994 17.8257 21.4315C13.9648 21.9312 13.4389 24.5043 13.0543 26.3945C12.7269 28.004 12.5144 28.7822 11.272 28.8819C10.9659 28.9065 10.7166 29.1375 10.6689 29.4409C10.621 29.7441 10.7873 30.0407 11.071 30.1582C11.1509 30.1912 13.051 30.9676 15.271 30.9677C15.2713 30.9677 15.2715 30.9677 15.2718 30.9677C16.8188 30.9677 18.1459 30.5927 19.216 29.8532C20.5346 28.9419 21.4288 27.4971 21.8781 25.5595C23.3969 24.0229 25.1323 22.17 26.8484 20.2613C26.4534 23.5474 24.9705 26.5879 22.5735 28.9641ZM20.5429 25.4337C19.8388 28.2243 18.0669 29.6389 15.2716 29.6388C15.2716 29.6388 15.2712 29.6388 15.271 29.6388C14.5339 29.6388 13.8281 29.5382 13.2346 29.4128C13.9435 28.6899 14.1649 27.6021 14.3566 26.6597C14.7217 24.8645 15.0671 23.1657 17.8922 22.7621L20.5429 25.4337ZM29.7197 14.9385C27.0854 18.077 23.8967 21.6015 21.2718 24.2812L20.8655 23.8716L19.0724 22.0644C21.4524 19.6954 24.5055 16.8705 27.354 14.3984C27.686 14.1102 28.016 13.8256 28.3411 13.5483C31.6469 10.729 33.3793 9.50208 34.263 8.96813C33.7353 9.85716 32.5196 11.6028 29.7197 14.9385Z" fill="white"/>
</g>
<defs>
<clipPath id="clip0_1153_626">
<rect width="36" height="36" fill="white" transform="translate(0 0.46875)"/>
</clipPath>
</defs>
</svg>
