<svg width="48" height="48" viewBox="0 0 48 48" fill="none" xmlns="http://www.w3.org/2000/svg">
<path d="M44 18H18C16.1362 18 15.2044 18 14.4693 18.3045C13.4892 18.7105 12.7105 19.4892 12.3045 20.4692C12 21.2044 12 22.1362 12 24C12 25.8638 12 26.7956 12.3045 27.5308C12.7105 28.5108 13.4892 29.2896 14.4693 29.6956C15.2044 30 16.1362 30 18 30H44M42 30C39.7908 30 38 27.3138 38 24C38 20.6862 39.7908 18 42 18" stroke="#FFB800" stroke-width="3" stroke-linecap="round" stroke-linejoin="round"/>
<path d="M6 30C8.20914 30 10 32.6862 10 36C10 39.3138 8.20914 42 6 42" stroke="#FFB800" stroke-width="3" stroke-linecap="round"/>
<path d="M4 30H30C31.8638 30 32.7956 30 33.5308 30.3044C34.5108 30.7104 35.2896 31.4892 35.6956 32.4692C36 33.2044 36 34.1362 36 36C36 37.8638 36 38.7956 35.6956 39.5308C35.2896 40.5108 34.5108 41.2896 33.5308 41.6956C32.7956 42 31.8638 42 30 42H4" stroke="#07A169" stroke-width="3" stroke-linecap="round" stroke-linejoin="round"/>
<path d="M6 6C8.20914 6 10 8.6863 10 12C10 15.3137 8.20914 18 6 18" stroke="#FFB800" stroke-width="3" stroke-linecap="round"/>
<path d="M4 6H17H30C31.8638 6 32.7956 6 33.5308 6.30448C34.5108 6.71046 35.2896 7.48916 35.6956 8.46926C36 9.20436 36 10.1362 36 12C36 13.8638 36 14.7956 35.6956 15.5307C35.2896 16.5108 34.5108 17.2895 33.5308 17.6955C32.7956 18 31.8638 18 30 18H4" stroke="#07A169" stroke-width="3" stroke-linecap="round" stroke-linejoin="round"/>
</svg>
