<svg width="48" height="48" viewBox="0 0 48 48" fill="none" xmlns="http://www.w3.org/2000/svg">
<path d="M24 15.6111C22.6262 14.1681 18.6435 10.7408 11.9611 9.53916C8.5758 8.9304 6.88314 8.62602 5.44156 9.79266C4 10.9593 4 12.8538 4 16.6427V30.2594C4 33.7238 4 35.456 4.9252 36.5374C5.8504 37.619 7.8873 37.9852 11.9611 38.7178C15.5927 39.3708 18.4269 40.4114 20.4784 41.457C22.4968 42.4856 23.506 43 24 43C24.494 43 25.5032 42.4856 27.5216 41.457C29.5732 40.4114 32.4074 39.3708 36.0388 38.7178C40.1128 37.9852 42.1496 37.619 43.0748 36.5374C44 35.456 44 33.7238 44 30.2594V16.6427C44 12.8538 44 10.9593 42.5584 9.79266C41.5442 8.9718 39.7004 9.18056 38 9.88528C37.2836 10.1821 36.5928 10.567 36 11" stroke="#FFB800" stroke-width="3" stroke-linecap="round" stroke-linejoin="round"/>
<path d="M33.2254 32.1695C27.9592 35.1357 24.9546 41.2821 24 43.0003V16.0003C24.829 14.5083 27.204 10.2333 31.2634 7.32771C32.9736 6.10369 33.8286 5.49167 34.9144 6.04971C36 6.60777 36 7.83961 36 10.3033V27.9831C36 29.3139 36 29.9793 35.7268 30.4469C35.4534 30.9145 34.7108 31.3329 33.2254 32.1695Z" stroke="#07A169" stroke-width="3" stroke-linecap="round" stroke-linejoin="round"/>
</svg>
