<svg width="48" height="48" viewBox="0 0 48 48" fill="none" xmlns="http://www.w3.org/2000/svg">
<path d="M12.2417 5.10562L12.1166 5.08146C10.5312 4.77528 9.14692 4.50792 7.98228 4.50018C6.68294 4.49154 5.52126 4.79974 4.46556 5.71688C3.3802 6.6598 2.91096 7.87258 2.69806 9.25882C2.49986 10.5495 2.49992 12.1738 2.5 14.105L2.50002 28.9308C2.49998 30.7152 2.49996 32.1788 2.62452 33.3364C2.75298 34.5304 3.03222 35.6264 3.75846 36.5378C4.5142 37.486 5.62028 37.9844 6.83512 38.3506C8.04212 38.7142 9.63096 39.0208 11.5969 39.4004L11.6806 39.4166C15.1663 40.0894 17.8543 41.1554 19.766 42.2012L19.8032 42.2216C20.7808 42.7566 21.5626 43.1844 22.1608 43.4758C22.319 43.553 22.5 43.436 22.5 43.2596V10.0744C22.5 9.53044 22.5 9.25846 22.3646 9.0247C22.2294 8.79094 22.0082 8.66442 21.5658 8.41138C19.3223 7.1279 16.2097 5.8716 12.2417 5.10562Z" fill="#07A169"/>
<path d="M26.4342 8.41138C25.9918 8.66442 25.7706 8.79094 25.6354 9.0247C25.5 9.25846 25.5 9.53044 25.5 10.0744V43.2596C25.5 43.436 25.681 43.553 25.8392 43.4758C26.4372 43.1844 27.219 42.7566 28.1966 42.2218L28.234 42.2012C30.1458 41.1554 32.8338 40.0894 36.3194 39.4166L36.4028 39.4004C38.3688 39.021 39.9578 38.7142 41.1648 38.3506C42.3798 37.9844 43.4858 37.486 44.2416 36.5378C44.9678 35.6264 45.247 34.5304 45.3754 33.3364C45.5 32.1788 45.5 30.7152 45.5 28.9308V14.1051C45.5 12.1739 45.5002 10.5495 45.302 9.25882C45.089 7.87258 44.6198 6.6598 43.5344 5.71688C42.4788 4.79974 41.317 4.49154 40.0178 4.50018C38.8532 4.50792 37.4688 4.77528 35.8834 5.08146L35.7584 5.10562C31.7904 5.8716 28.6778 7.1279 26.4342 8.41138Z" fill="#FFB800"/>
</svg>
