<svg width="36" height="37" viewBox="0 0 36 37" fill="none" xmlns="http://www.w3.org/2000/svg">
<path d="M34.7919 7.84727L32.2684 7.84715V5.23491C32.2684 4.63685 31.8308 4.12873 31.2393 4.04025C31.136 4.02473 28.6776 3.66764 25.7172 4.20631C22.417 4.80679 19.785 6.28763 17.9999 8.52629C16.2147 6.28763 13.5827 4.80679 10.2826 4.20631C7.32216 3.66776 4.86374 4.02473 4.76059 4.04025C4.16908 4.12885 3.7315 4.63697 3.7315 5.23491V7.84715H1.208C0.540968 7.84715 0 8.38811 0 9.05526V31.8194C0 32.2106 0.189333 32.5775 0.508241 32.8042C0.827149 33.0308 1.236 33.089 1.60533 32.9603C1.69599 32.9289 10.7484 29.8394 17.4986 32.9185C17.8172 33.0638 18.1828 33.0638 18.5014 32.9185C25.2326 29.8482 34.3045 32.9291 34.3947 32.9603C34.5241 33.0054 34.6582 33.0275 34.7918 33.0275C35.0394 33.0275 35.2845 32.9514 35.4918 32.8043C35.8107 32.5776 36 32.2107 36 31.8195V9.05538C35.9999 8.38823 35.459 7.84727 34.7919 7.84727ZM2.41611 30.2031V10.2633H3.7315V26.3512C3.7315 26.7022 3.88508 27.0356 4.15065 27.265C4.41623 27.4945 4.76944 27.5974 5.11659 27.5461C5.18326 27.5364 10.4312 26.8159 14.2654 29.4466C9.54239 28.639 4.81538 29.5731 2.41611 30.2031ZM16.7919 28.3571C15.1032 26.8313 12.9036 25.7996 10.2826 25.3227C9.0213 25.0931 7.85112 25.0262 6.91537 25.0262C6.63755 25.0262 6.38034 25.0322 6.14774 25.0415V6.34424H6.14762C8.46943 6.23951 14.1175 6.48776 16.7919 11.0214V28.3571ZM19.2079 11.0216C21.8728 6.50727 27.5297 6.24776 29.8523 6.34727V25.0415C28.8361 25.0005 27.3529 25.025 25.7172 25.3227C23.0963 25.7996 20.8967 26.8312 19.2079 28.3571V11.0216ZM21.7305 29.4473C25.5651 26.8151 30.8159 27.5363 30.8813 27.546C31.2293 27.5982 31.5823 27.4959 31.8487 27.2666C32.1152 27.037 32.2684 26.703 32.2684 26.3512V10.2634H33.5838V30.2031C31.1838 29.5729 26.4548 28.6383 21.7305 29.4473Z" fill="white"/>
</svg>
