<svg width="36" height="37" viewBox="0 0 36 37" fill="none" xmlns="http://www.w3.org/2000/svg">
<g clip-path="url(#clip0_1153_797)">
<path d="M18.0696 0.471039C11.7768 0.42625 6.8022 4.86459 5.63529 10.3679C4.77685 14.4167 5.8347 18.4814 8.53765 21.52C9.85882 23.0053 10.6165 24.9914 10.6165 26.9746V29.084C10.6165 30.488 11.5361 31.6807 12.8043 32.0932C13.2328 34.5737 15.3984 36.4668 17.9993 36.4668C20.6003 36.4668 22.7659 34.5737 23.1944 32.0932C24.4626 31.6808 25.3821 30.4881 25.3821 29.084V26.9746C25.3821 25.0157 26.1623 23.0022 27.5226 21.4503C29.5429 19.1453 30.6556 16.1881 30.6556 13.1231C30.6556 6.20088 25.0917 0.521031 18.0696 0.471039ZM17.9993 34.3574C16.6243 34.3574 15.4513 33.4688 15.016 32.241H20.9826C20.5474 33.4688 19.3744 34.3574 17.9993 34.3574ZM23.2728 29.084C23.2728 29.6656 22.7996 30.1387 22.2181 30.1387H13.7806C13.199 30.1387 12.7259 29.6656 12.7259 29.084V28.0293H23.2728V29.084ZM16.9446 17.3418H15.8899C14.1453 17.3418 12.7259 15.9224 12.7259 14.1778V13.1231H13.7806C15.5252 13.1231 16.9446 14.5425 16.9446 16.2871V17.3418ZM25.9363 20.0599C24.4848 21.7158 23.5641 23.8051 23.3312 25.9199H19.054V19.4512H20.1087C23.0165 19.4512 25.3821 17.0855 25.3821 14.1778V12.0684C25.3821 11.4859 24.9099 11.0137 24.3274 11.0137H22.2181C20.4949 11.0137 18.9623 11.8446 17.9993 13.1267C17.0364 11.8446 15.5038 11.0137 13.7806 11.0137H11.6712C11.0887 11.0137 10.6165 11.4859 10.6165 12.0684V14.1778C10.6165 17.0855 12.9822 19.4512 15.8899 19.4512H16.9446V25.9199H12.67C12.4439 23.791 11.5401 21.7217 10.1137 20.118C7.8611 17.5857 6.98086 14.1914 7.69882 10.8055C8.65613 6.29038 12.7717 2.5345 18.0696 2.58098C23.9381 2.63252 28.5462 7.37446 28.5462 13.1231C28.5462 15.6763 27.6193 18.1398 25.9363 20.0599ZM19.054 17.3418V16.2871C19.054 14.5425 20.4734 13.1231 22.2181 13.1231H23.2728V14.1778C23.2728 15.9224 21.8534 17.3418 20.1087 17.3418H19.054Z" fill="white"/>
<path d="M3.16406 13.123H1.05469C0.472219 13.123 0 13.5953 0 14.1777C0 14.7603 0.472219 15.2324 1.05469 15.2324H3.16406C3.74653 15.2324 4.21875 14.7602 4.21875 14.1777C4.21875 13.5953 3.74653 13.123 3.16406 13.123Z" fill="white"/>
<path d="M3.60059 7.84928L2.10905 6.35775C1.69723 5.94586 1.02947 5.94586 0.617512 6.35775C0.205621 6.76964 0.205621 7.43739 0.617512 7.84928L2.10905 9.34082C2.52087 9.75264 3.18863 9.75278 3.60059 9.34082C4.01248 8.92893 4.01248 8.26118 3.60059 7.84928Z" fill="white"/>
<path d="M3.60054 19.0141C3.18865 18.6021 2.52089 18.6021 2.109 19.014L0.617459 20.5056C0.205639 20.9175 0.205639 21.5852 0.617459 21.9971C1.02928 22.409 1.69711 22.409 2.109 21.9971L3.60054 20.5056C4.01236 20.0937 4.01236 19.4259 3.60054 19.0141Z" fill="white"/>
<path d="M34.9453 13.123H32.8359C32.2535 13.123 31.7812 13.5953 31.7812 14.1777C31.7812 14.7603 32.2535 15.2324 32.8359 15.2324H34.9453C35.5278 15.2324 36 14.7602 36 14.1777C36 13.5953 35.5278 13.123 34.9453 13.123Z" fill="white"/>
<path d="M35.3818 6.35775C34.97 5.94586 34.3022 5.94586 33.8903 6.35775L32.3988 7.84928C31.9869 8.26118 31.9869 8.92893 32.3988 9.34082C32.8107 9.75271 33.4784 9.75278 33.8903 9.34082L35.3818 7.84928C35.7937 7.43739 35.7937 6.76964 35.3818 6.35775Z" fill="white"/>
<path d="M35.3818 20.5055L33.8903 19.014C33.4784 18.6021 32.8107 18.6021 32.3988 19.014C31.9869 19.4259 31.9869 20.0936 32.3988 20.5055L33.8903 21.9971C34.3021 22.4089 34.9699 22.409 35.3818 21.9971C35.7937 21.5852 35.7937 20.9174 35.3818 20.5055Z" fill="white"/>
</g>
<defs>
<clipPath id="clip0_1153_797">
<rect width="36" height="36" fill="white" transform="translate(0 0.46875)"/>
</clipPath>
</defs>
</svg>
