<svg width="48" height="48" viewBox="0 0 48 48" fill="none" xmlns="http://www.w3.org/2000/svg">
<path fill-rule="evenodd" clip-rule="evenodd" d="M24 7C16.2487 7 10 13.2145 10 20.8378C10 23.4454 10.7279 25.88 11.9941 27.96C12.5684 28.9036 12.2692 30.134 11.3256 30.7084C10.3821 31.2828 9.15168 30.9834 8.57734 30.04C6.9415 27.3526 6 24.2016 6 20.8378C6 10.967 14.0781 3 24 3C33.9218 3 42 10.967 42 20.8378C42 24.2016 41.0584 27.3526 39.4226 30.04C38.8482 30.9834 37.6178 31.2828 36.6744 30.7084C35.7308 30.134 35.4316 28.9036 36.0058 27.96C37.272 25.88 38 23.4454 38 20.8378C38 13.2145 31.7512 7 24 7Z" fill="#07A169"/>
<path d="M31.6864 31.5C31.9472 31.5 32.2044 31.5 32.421 31.51C32.6498 31.5204 32.9574 31.5456 33.2778 31.6424C34.2748 31.9434 34.9466 32.6726 34.9974 33.4996C35.0138 33.7652 34.9476 33.9992 34.8882 34.1714C34.2254 37.5352 32.857 38.4998 31.6862 38.4998H16.3138C15.143 38.4998 13.7746 37.5352 13.1117 34.1714C13.0523 33.9992 12.9862 33.7652 13.0025 33.4996C13.0534 32.6726 13.7252 31.9434 14.7222 31.6424C15.0425 31.5456 15.3501 31.5204 15.5789 31.51C15.7956 31.5 16.0527 31.5 16.3136 31.5H31.6864Z" fill="#07A169"/>
<path d="M20.664 44.8027C21.3548 45.0037 22.1712 45.0037 23.8038 45.0037C25.4364 45.0037 26.2528 45.0037 26.9434 44.8027C28.0114 44.4917 28.91 43.8409 29.4648 42.9769C29.6712 42.6553 29.8118 42.2847 29.9552 41.7583C30.1348 41.0983 30.2246 40.7683 30.0444 40.5327C29.8644 40.2969 29.5102 40.2969 28.8016 40.2969H18.8059C18.0975 40.2969 17.7432 40.2969 17.5631 40.5327C17.383 40.7683 17.4728 41.0983 17.6524 41.7583C17.7957 42.2847 17.9364 42.6553 18.1428 42.9769C18.6975 43.8409 19.5962 44.4917 20.664 44.8027Z" fill="#FFB800"/>
<path fill-rule="evenodd" clip-rule="evenodd" d="M26.5978 12.4923C27.4304 13.2181 27.517 14.4814 26.7914 15.3141L24.6596 17.7599C24.558 17.8765 24.6216 18.0595 24.7736 18.0879L26.1018 18.3367C28.5576 18.7968 29.278 21.8414 27.5392 23.4374L23.1418 27.4734C22.328 28.2204 21.0628 28.1662 20.3158 27.3524C19.5689 26.5386 19.6231 25.2736 20.437 24.5266L23.021 22.1548C23.1424 22.0434 23.0846 21.8412 22.9226 21.8108L21.8974 21.6188C19.5873 21.186 18.7765 18.4219 20.2312 16.7529L23.776 12.6859C24.5016 11.8533 25.765 11.7666 26.5978 12.4923Z" fill="#FFB800"/>
</svg>
