<svg width="48" height="48" viewBox="0 0 48 48" fill="none" xmlns="http://www.w3.org/2000/svg">
<path d="M36 4V8M12 4V8" stroke="#07A169" stroke-width="3" stroke-linecap="round" stroke-linejoin="round"/>
<path d="M23.991 26H24.009M23.991 34H24.009M31.982 26H32M16 26H16.0179M16 34H16.0179" stroke="#FFAF00" stroke-width="3" stroke-linecap="round" stroke-linejoin="round"/>
<path d="M7 16H41" stroke="#07A169" stroke-width="3" stroke-linecap="round" stroke-linejoin="round"/>
<path d="M5 24.4864C5 15.7719 5 11.4146 7.50424 8.70728C10.0085 6 14.039 6 22.1 6H25.9C33.961 6 37.9916 6 40.4958 8.70728C43 11.4146 43 15.7719 43 24.4864V25.5136C43 34.2282 43 38.5854 40.4958 41.2928C37.9916 44 33.961 44 25.9 44H22.1C14.039 44 10.0085 44 7.50424 41.2928C5 38.5854 5 34.2282 5 25.5136V24.4864Z" stroke="#07A169" stroke-width="3" stroke-linecap="round" stroke-linejoin="round"/>
<path d="M6 16H42" stroke="#07A169" stroke-width="3" stroke-linecap="round" stroke-linejoin="round"/>
</svg>
