<svg width="48" height="48" viewBox="0 0 48 48" fill="none" xmlns="http://www.w3.org/2000/svg">
<path d="M25.6689 32.0293H27.3359V36.5171H25.6689V32.0293Z" fill="#FFB800"/>
<path d="M8.16406 38.7637H9.83104V43.2515H8.16406V38.7637Z" fill="#FFB800"/>
<path d="M20.667 43.9991H4.83349C4.61244 43.9991 4.40043 43.9202 4.24412 43.78C4.08781 43.6397 4 43.4494 4 43.251V36.5205C4.00179 35.1324 4.61703 33.8016 5.71072 32.8201C6.80441 31.8387 8.28724 31.2866 9.83387 31.2852H11.5003V32.7808H9.83387C8.72906 32.7818 7.66983 33.1762 6.88856 33.8773C6.10728 34.5784 5.66776 35.529 5.66642 36.5205V42.5009H19.8341V36.5205C19.8341 36.3223 19.9218 36.1321 20.078 35.9919C20.2342 35.8517 20.4461 35.773 20.667 35.773H29.0008C29.432 35.7587 29.8402 35.595 30.1397 35.3161C30.4391 35.0373 30.6064 34.6651 30.6064 34.2779C30.6064 33.8906 30.4391 33.5184 30.1397 33.2396C29.8402 32.9608 29.432 32.797 29.0008 32.7828H16.5001V31.2872H29.0008C29.8849 31.2872 30.7327 31.6024 31.3578 32.1634C31.983 32.7245 32.3342 33.4854 32.3342 34.2789C32.3342 35.0723 31.983 35.8333 31.3578 36.3943C30.7327 36.9554 29.8849 37.2706 29.0008 37.2706H21.5005V43.251C21.5005 43.4494 21.4127 43.6397 21.2564 43.78C21.1001 43.9202 20.8881 43.9991 20.667 43.9991Z" fill="#FFB800"/>
<path d="M14.0014 32.029C12.6756 32.0279 11.4046 31.5548 10.4671 30.7136C9.5296 29.8723 9.00232 28.7315 9.00098 27.5417V25.298C9.00113 25.0997 9.08901 24.9096 9.2453 24.7694C9.40159 24.6292 9.61351 24.5505 9.83447 24.5505C10.7193 24.5505 11.4088 23.1821 11.5444 22.8182C11.6073 22.6502 11.7347 22.5077 11.9038 22.4161C12.0729 22.3246 12.2728 22.2899 12.4677 22.3182C12.6627 22.3466 12.8401 22.4362 12.9683 22.571C13.0966 22.7058 13.1673 22.8771 13.1679 23.0544C13.1679 24.1121 16.425 24.5505 18.1682 24.5505C18.3892 24.5505 18.6011 24.6292 18.7574 24.7694C18.9137 24.9096 19.0016 25.0997 19.0017 25.298V27.5417C19.0004 28.7315 18.4731 29.8723 17.5356 30.7136C16.5982 31.5548 15.3271 32.0279 14.0014 32.029ZM10.6697 25.9199V27.5417C10.6697 28.3351 11.0209 29.0961 11.646 29.6572C12.2711 30.2182 13.119 30.5334 14.0031 30.5334C14.8871 30.5334 15.735 30.2182 16.3601 29.6572C16.9853 29.0961 17.3365 28.3351 17.3365 27.5417V26.0213C16.0314 25.9498 13.6253 25.6817 12.3496 24.6752C11.9485 25.2377 11.361 25.6727 10.6697 25.9199Z" fill="#FFB800"/>
<path d="M13.9977 35.0249C13.1141 35.0249 12.2667 34.7099 11.6419 34.1491C11.017 33.5884 10.666 32.8278 10.666 32.0347V30.5371H12.333V32.0327C12.3272 32.2323 12.366 32.431 12.4471 32.6169C12.5282 32.8028 12.65 32.9723 12.8053 33.1153C12.9605 33.2584 13.1461 33.372 13.3511 33.4496C13.5561 33.5273 13.7764 33.5673 13.9988 33.5673C14.2213 33.5673 14.4416 33.5273 14.6466 33.4496C14.8516 33.372 15.0372 33.2584 15.1924 33.1153C15.3477 32.9723 15.4695 32.8028 15.5506 32.6169C15.6317 32.431 15.6705 32.2323 15.6647 32.0327V30.5371H17.3317V32.0327C17.3317 32.4254 17.2455 32.8142 17.0781 33.177C16.9106 33.5398 16.6652 33.8694 16.3558 34.1471C16.0465 34.4248 15.6792 34.645 15.275 34.7953C14.8707 34.9456 14.4375 35.0229 14 35.0229L13.9977 35.0249Z" fill="#FFB800"/>
<path d="M18.998 25.6287H18.1645V23.385C18.1518 22.4008 17.7072 21.4608 16.9272 20.7688C16.1472 20.0769 15.0947 19.6888 13.9979 19.6888C12.9012 19.6888 11.8487 20.0769 11.0687 20.7688C10.2887 21.4608 9.84409 22.4008 9.83133 23.385V25.6287H8.99783C8.77678 25.6287 8.56478 25.5499 8.40847 25.4096C8.25216 25.2693 8.16434 25.079 8.16434 24.8807V23.385C8.15676 22.6932 8.30205 22.0068 8.59181 21.3656C8.88158 20.7244 9.31007 20.1411 9.85252 19.6495C10.395 19.1578 11.0406 18.7675 11.7522 18.5012C12.4637 18.2348 13.227 18.0977 13.9979 18.0977C14.7689 18.0977 15.5322 18.2348 16.2437 18.5012C16.9552 18.7675 17.6009 19.1578 18.1433 19.6495C18.6858 20.1411 19.1143 20.7244 19.4041 21.3656C19.6938 22.0068 19.8391 22.6932 19.8315 23.385V24.8807C19.8315 25.079 19.7437 25.2693 19.5874 25.4096C19.4311 25.5499 19.2191 25.6287 18.998 25.6287Z" fill="#07A169"/>
<path d="M18.1631 29.044V27.5478C18.2743 27.5504 18.385 27.533 18.4886 27.4966C18.5923 27.4602 18.6867 27.4055 18.7664 27.3358C18.8461 27.2661 18.9095 27.1828 18.9527 27.0908C18.996 26.9988 19.0183 26.8999 19.0183 26.8C19.0183 26.7002 18.996 26.6013 18.9527 26.5093C18.9095 26.4173 18.8461 26.3339 18.7664 26.2642C18.6867 26.1946 18.5923 26.1399 18.4886 26.1035C18.385 26.0671 18.2743 26.0496 18.1631 26.0522V24.5566C18.8262 24.5566 19.4621 24.7931 19.931 25.2139C20.3999 25.6347 20.6633 26.2054 20.6633 26.8005C20.6633 27.3957 20.3999 27.9664 19.931 28.3872C19.4621 28.8081 18.8262 29.0445 18.1631 29.0445V29.044Z" fill="#FFB800"/>
<path d="M9.83124 29.0406C9.16815 29.0406 8.53222 28.8041 8.06334 28.3833C7.59447 27.9625 7.33105 27.3918 7.33105 26.7966C7.33105 26.2015 7.59447 25.6308 8.06334 25.21C8.53222 24.7891 9.16815 24.5527 9.83124 24.5527V26.0483C9.72 26.0457 9.6093 26.0632 9.50568 26.0996C9.40206 26.136 9.30761 26.1907 9.2279 26.2603C9.1482 26.33 9.08485 26.4134 9.0416 26.5054C8.99834 26.5974 8.97606 26.6963 8.97606 26.7961C8.97606 26.896 8.99834 26.9949 9.0416 27.0869C9.08485 27.1789 9.1482 27.2622 9.2279 27.3319C9.30761 27.4016 9.40206 27.4563 9.50568 27.4927C9.6093 27.5291 9.72 27.5465 9.83124 27.5439V29.0406Z" fill="#FFB800"/>
<path d="M38.1631 30.2207H39.8301V35.2533H38.1631V30.2207Z" fill="#FFB800"/>
<path d="M38.996 38.9932C38.5016 38.9932 38.0182 38.8616 37.6071 38.6151C37.196 38.3685 36.8756 38.0181 36.6864 37.6081C36.4972 37.1982 36.4477 36.747 36.5441 36.3118C36.6406 35.8766 36.8787 35.4768 37.2283 35.163C37.5779 34.8492 38.0234 34.6355 38.5083 34.549C38.9932 34.4624 39.4959 34.5068 39.9527 34.6766C40.4095 34.8465 40.7999 35.134 41.0746 35.503C41.3493 35.872 41.4959 36.3058 41.4959 36.7495C41.4958 37.3445 41.2323 37.9151 40.7635 38.3359C40.2948 38.7566 39.659 38.9931 38.996 38.9932ZM38.996 36.003C38.8312 36.003 38.67 36.0469 38.5329 36.1291C38.3959 36.2113 38.289 36.3281 38.226 36.4648C38.1629 36.6015 38.1464 36.7519 38.1785 36.897C38.2107 37.0421 38.2901 37.1754 38.4066 37.28C38.5232 37.3846 38.6717 37.4559 38.8334 37.4847C38.9951 37.5136 39.1627 37.4988 39.315 37.4422C39.4673 37.3855 39.5974 37.2896 39.689 37.1666C39.7806 37.0436 39.8295 36.899 39.8295 36.751C39.8298 36.6526 39.8085 36.5551 39.7667 36.4641C39.725 36.3732 39.6636 36.2905 39.5862 36.2208C39.5087 36.1511 39.4168 36.0958 39.3155 36.0581C39.2142 36.0204 39.1057 36.001 38.996 36.001V36.003Z" fill="#FFB800"/>
<path d="M30.6667 18.9576H22.3335C22.1125 18.9576 21.9006 18.8788 21.7443 18.7386C21.588 18.5985 21.5001 18.4083 21.5 18.21V10.7305C21.5 10.5321 21.5878 10.3418 21.7441 10.2015C21.9004 10.0612 22.1124 9.98242 22.3335 9.98242H30.6667C30.8878 9.98242 31.0998 10.0612 31.2561 10.2015C31.4124 10.3418 31.5002 10.5321 31.5002 10.7305V18.21C31.5 18.4083 31.4122 18.5985 31.2559 18.7386C31.0996 18.8788 30.8877 18.9576 30.6667 18.9576ZM23.1664 17.462H29.8332V11.4785H23.1664V17.462Z" fill="#FFB800"/>
<path d="M41.4992 30.9254H33.9989V29.4298H41.4992C41.7203 29.4298 41.9323 29.351 42.0886 29.2107C42.2449 29.0704 42.3327 28.8802 42.3327 28.6818V6.24366C42.3327 6.04526 42.2449 5.85499 42.0886 5.7147C41.9323 5.57442 41.7203 5.4956 41.4992 5.4956H15.6649C15.444 5.49574 15.2321 5.57461 15.0759 5.71488C14.9198 5.85516 14.832 6.04535 14.832 6.24366V12.9751H13.165V6.24366C13.1652 5.64864 13.4286 5.07804 13.8974 4.6573C14.3662 4.23656 15.002 4.00013 15.6649 4H41.4992C42.1622 4 42.7981 4.23638 43.2669 4.65715C43.7357 5.07792 43.9991 5.6486 43.9991 6.24366V28.6818C43.9991 29.2768 43.7357 29.8475 43.2669 30.2683C42.7981 30.689 42.1622 30.9254 41.4992 30.9254Z" fill="#07A169"/>
<path d="M31.1689 24.7227C30.0811 24.7227 29.0177 24.4001 28.1132 23.7957C27.2087 23.1913 26.5038 22.3322 26.0875 21.3272C25.6713 20.3221 25.5624 19.2162 25.7747 18.1493C25.987 17.0823 26.5109 16.1023 27.2802 15.3332C28.0495 14.5641 29.0296 14.0403 30.0966 13.8282C31.1636 13.6161 32.2695 13.7252 33.2744 14.1416C34.2794 14.5581 35.1383 15.2632 35.7425 16.1678C36.3468 17.0724 36.6692 18.1359 36.6689 19.2237C36.6687 20.6822 36.0891 22.0809 35.0577 23.1121C34.0262 24.1433 32.6274 24.7227 31.1689 24.7227ZM31.1689 15.2939C30.3919 15.2938 29.6323 15.5241 28.9862 15.9556C28.34 16.3872 27.8364 17.0007 27.5389 17.7186C27.2415 18.4364 27.1635 19.2263 27.315 19.9884C27.4664 20.7505 27.8404 21.4506 28.3898 22.0002C28.9391 22.5497 29.639 22.924 30.4011 23.0758C31.1631 23.2276 31.9531 23.1499 32.671 22.8528C33.389 22.5556 34.0027 22.0522 34.4345 21.4062C34.8664 20.7602 35.097 20.0007 35.0972 19.2237C35.0973 18.7077 34.9958 18.1968 34.7985 17.72C34.6012 17.2433 34.3118 16.8101 33.9471 16.4451C33.5823 16.0802 33.1492 15.7907 32.6725 15.5932C32.1958 15.3956 31.6849 15.2939 31.1689 15.2939Z" fill="#07A169"/>
<path d="M40.6669 10.7378H39.0005V9.24424C39.0005 9.04584 38.9127 8.85557 38.7564 8.71528C38.6 8.575 38.388 8.49619 38.167 8.49619H36.5V6.99805H38.1664C38.8294 6.99805 39.4653 7.23443 39.9341 7.6552C40.4029 8.07597 40.6663 8.64665 40.6663 9.24171L40.6669 10.7378Z" fill="#FFB800"/>
<path d="M33.1689 6.99805H34.8359V8.49365H33.1689V6.99805Z" fill="#FFB800"/>
</svg>
