<svg width="48" height="48" viewBox="0 0 48 48" fill="none" xmlns="http://www.w3.org/2000/svg">
<path d="M32 12L36 4" stroke="#FFAF00" stroke-width="3" stroke-linecap="round" stroke-linejoin="round"/>
<path d="M7.8229 24H36.1772C39.3828 24 40.5572 24.7414 39.7574 27.9642C38.3466 33.6492 34.3518 35.0612 30.6608 38.7718C29.7638 39.6738 31.1596 41.0064 31.1604 41.9984C31.1618 43.866 29.3856 44 27.9708 44H16.0292C14.6143 44 12.8382 43.866 12.8396 41.9984C12.8404 41.0274 14.1944 39.6318 13.3391 38.7718C9.64814 35.0612 5.65348 33.6492 4.24256 27.9642C3.44272 24.7414 4.61714 24 7.8229 24Z" stroke="#07A169" stroke-width="3" stroke-linejoin="round"/>
<path d="M37 24C37 20.4178 33.2002 17.9765 30 19.3844M7 24C7 21.4134 8.9371 19.2825 11.4302 18.9978C9.80208 15.3167 13.2526 11.1881 17.0778 12.0343M17.0778 12.0343C18.0303 6.65522 25.9696 6.65522 26.9222 12.0343C30.837 11.1683 34.1466 15.3643 32.584 18.9654M17.0778 12.0343C18.265 12.297 19.2942 12.9844 20 13.9304" stroke="#07A169" stroke-width="3" stroke-linecap="round" stroke-linejoin="round"/>
<path d="M34 18L44 6" stroke="#07A169" stroke-width="3" stroke-linecap="round" stroke-linejoin="round"/>
</svg>
