<svg width="48" height="48" viewBox="0 0 48 48" fill="none" xmlns="http://www.w3.org/2000/svg">
<path d="M40 21V18C40 10.268 32.8366 4 24 4C15.1634 4 8 10.268 8 18V21" stroke="#FFAF00" stroke-width="3" stroke-linecap="round" stroke-linejoin="round"/>
<path d="M40 35C40 44 32 44 24 44" stroke="#FFAF00" stroke-width="3" stroke-linecap="round" stroke-linejoin="round"/>
<path d="M34 23.609C34 22.9176 34 22.572 34.104 22.264C34.4064 21.3688 35.2036 21.0216 36.0022 20.6578C36.9 20.2488 37.3488 20.0444 37.7936 20.0084C38.2986 19.9676 38.8044 20.0764 39.236 20.3186C39.8082 20.6396 40.2072 21.2498 40.6158 21.746C42.5026 24.0376 43.4458 25.1836 43.791 26.4472C44.0696 27.4668 44.0696 28.5332 43.791 29.5528C43.2876 31.3958 41.697 32.9408 40.5196 34.3708C39.9174 35.1022 39.6162 35.468 39.236 35.6814C38.8044 35.9236 38.2986 36.0324 37.7936 35.9916C37.3488 35.9556 36.9 35.7512 36.0022 35.3422C35.2036 34.9784 34.4064 34.6312 34.104 33.736C34 33.428 34 33.0824 34 32.391V23.609Z" stroke="#07A169" stroke-width="3"/>
<path d="M14 23.6091C14 22.7387 13.9756 21.9563 13.2718 21.3443C13.0159 21.1217 12.6765 20.9671 11.9978 20.6579C11.1 20.2491 10.6511 20.0447 10.2063 20.0087C8.87182 19.9007 8.15384 20.8115 7.38426 21.7463C5.4975 24.0379 4.55412 25.1837 4.20892 26.4473C3.93036 27.4671 3.93036 28.5335 4.20892 29.5531C4.7124 31.3961 6.30304 32.9409 7.48042 34.3711C8.22258 35.2725 8.93154 36.0949 10.2063 35.9919C10.6511 35.9559 11.1 35.7513 11.9978 35.3425C12.6765 35.0333 13.0159 34.8787 13.2718 34.6561C13.9756 34.0441 14 33.2619 14 32.3913V23.6091Z" stroke="#07A169" stroke-width="3"/>
</svg>
