<svg id="Layer_1" height="512" viewBox="0 0 512 512" width="512" xmlns="http://www.w3.org/2000/svg" data-name="Layer 1"><path d="m333.44 135.305c0-42.701-34.739-77.44-77.44-77.44s-77.439 34.74-77.439 77.44 34.739 77.44 77.439 77.44 77.44-34.74 77.44-77.44zm-77.44 61.441c-33.878 0-61.439-27.562-61.439-61.44s27.562-61.44 61.439-61.44 61.44 27.562 61.44 61.44-27.562 61.44-61.44 61.44zm57.548 116.71c4.261-.379 7.811-3.115 9.263-7.143l12.273-34.029 35.608 6.386c4.218.762 8.357-.95 10.816-4.45 2.459-3.501 2.656-7.979.516-11.686l-37.164-64.37c.963-.954 2.168-1.703 3.581-2.192 10.1-3.496 18.305-12.28 21.949-23.497s2.17-23.146-3.945-31.911c-2.297-3.292-2.297-7.222 0-10.513 6.116-8.765 7.591-20.695 3.946-31.912-3.644-11.217-11.849-20.001-21.948-23.498-3.793-1.312-6.104-4.492-6.181-8.504-.203-10.685-6.021-21.204-15.563-28.136-9.542-6.933-21.342-9.218-31.569-6.109-3.842 1.167-7.578-.048-9.998-3.248-6.445-8.524-17.335-13.614-29.13-13.614-11.794 0-22.685 5.089-29.131 13.614-2.421 3.2-6.158 4.416-9.997 3.249-10.228-3.109-22.029-.824-31.57 6.108-9.542 6.932-15.36 17.45-15.564 28.136-.077 4.013-2.387 7.193-6.179 8.505-10.1 3.496-18.305 12.28-21.95 23.497s-2.17 23.146 3.945 31.912c2.297 3.292 2.297 7.222 0 10.512-6.116 8.765-7.591 20.694-3.947 31.912 3.645 11.217 11.851 20.001 21.95 23.499 1.413.489 2.618 1.238 3.581 2.192l-37.166 64.372c-2.139 3.707-1.939 8.185.519 11.685 2.46 3.5 6.61 5.211 10.816 4.449l35.607-6.386 12.274 34.034c1.454 4.024 5.003 6.76 9.263 7.139.334.029.666.044.996.044 3.876 0 7.408-2.023 9.381-5.439l32.025-55.469c4.645 1.937 9.799 2.992 15.145 2.992 5.345 0 10.5-1.055 15.145-2.992l32.024 55.469c1.973 3.417 5.504 5.44 9.381 5.44.33 0 .663-.015.997-.045zm-41.179-81.136c-3.439 4.549-9.559 7.265-16.369 7.265s-12.929-2.716-16.369-7.266c-4.879-6.452-12.239-10.022-19.964-10.022-2.469 0-4.975.365-7.448 1.116-5.46 1.659-12.004.257-17.513-3.745-5.509-4.003-8.862-9.796-8.972-15.499-.204-10.673-6.854-19.825-16.941-23.317-5.39-1.866-9.863-6.847-11.967-13.323-2.104-6.477-1.412-13.135 1.851-17.812 6.108-8.753 6.108-20.067 0-28.823-3.263-4.677-3.955-11.336-1.851-17.812s6.578-11.457 11.968-13.322c10.087-3.492 16.736-12.645 16.94-23.318.109-5.702 3.464-11.496 8.973-15.498 5.51-4.003 12.057-5.401 17.514-3.744 10.217 3.104 20.974-.393 27.411-8.907 3.439-4.549 9.56-7.264 16.369-7.264s12.929 2.716 16.367 7.264c6.438 8.514 17.196 12.012 27.413 8.907 5.459-1.659 12.004-.257 17.513 3.745 5.509 4.003 8.862 9.796 8.972 15.499.204 10.673 6.854 19.826 16.942 23.317 5.389 1.866 9.862 6.846 11.966 13.322 2.104 6.477 1.412 13.136-1.851 17.812-6.108 8.753-6.108 20.067 0 28.823 3.263 4.677 3.955 11.336 1.851 17.812s-6.578 11.457-11.967 13.322c-10.087 3.492-16.737 12.645-16.941 23.317-.109 5.702-3.464 11.496-8.973 15.499-5.508 4.002-12.054 5.404-17.513 3.744-10.217-3.105-20.975.393-27.411 8.907zm28.649-99.892-18.096 15.621 5.458 23.273c.736 3.135-.48 6.406-3.086 8.299s-6.092 2.04-8.847.371l-20.447-12.383-20.446 12.382c-1.277.774-2.712 1.158-4.144 1.158-1.655 0-3.306-.513-4.703-1.527-2.605-1.893-3.821-5.164-3.087-8.299l5.459-23.274-18.097-15.62c-2.438-2.104-3.376-5.465-2.381-8.528s3.729-5.23 6.938-5.5l23.822-2.001 9.263-22.036c1.248-2.969 4.154-4.9 7.375-4.9s6.127 1.931 7.375 4.899l9.264 22.037 23.821 2.001c3.209.27 5.943 2.437 6.938 5.5s.057 6.424-2.381 8.528zm63.531-58.385c-2.203-4.486-1.663-9.741 1.41-13.714l37.622-48.688c2.492-3.225 6.257-5.074 10.328-5.074s7.837 1.849 10.329 5.073l37.625 48.691c3.071 3.974 3.61 9.229 1.406 13.714-2.219 4.516-6.715 7.32-11.734 7.32h-10.598v71.163c0 8.062-6.56 14.622-14.622 14.622h-24.812c-8.062 0-14.622-6.559-14.622-14.622v-71.163h-10.602c-5.018 0-9.513-2.805-11.731-7.322zm-166.962 360.889c-.911-3.482-3.129-6.404-6.245-8.228-3.114-1.822-6.749-2.323-10.233-1.413l-1.412.37 3.893-28.506c2.287-16.754-1.537-30.661-11.06-40.22l-68.07-68.319c-10.018-10.054-24.595-12.86-37.162-8.417l.533-92.623c.051-8.779-3.34-17.071-9.545-23.348-6.206-6.278-14.459-9.762-23.238-9.812-.063 0-.125 0-.188 0-18.094 0-32.868 14.667-32.973 32.781l-.886 153.912c-.08 13.855 5.025 26.481 15.175 37.526l37.003 40.265c9.728 10.586 13.159 21.505 11.422 36.891l-3.477.91c-7.2 1.886-11.525 9.277-9.642 16.479l5.805 22.177c1.587 6.058 7.073 10.081 13.064 10.08 1.128 0 2.274-.143 3.415-.44l119.984-31.409c7.2-1.886 11.525-9.276 9.642-16.479l-5.806-22.175zm-132.627-26.86-37.003-40.265c-7.43-8.085-11.014-16.788-10.956-26.608l.886-153.912c.054-9.324 7.658-16.873 16.974-16.873h.098c4.505.025 8.748 1.823 11.949 5.061s4.95 7.502 4.924 12.008l-.6 104.255c-10.988 13.947-10.084 34.278 2.756 47.165l36.362 36.495c3.116 3.129 8.182 3.14 11.313.021 3.13-3.118 3.139-8.184.021-11.313l-36.362-36.495c-3.678-3.691-5.698-8.623-5.688-13.887.01-5.263 2.048-10.187 5.739-13.865 7.665-7.637 20.114-7.616 27.754.05l68.07 68.319c5.949 5.972 8.149 14.976 6.54 26.762l-4.788 35.055-81.99 21.462c.678-17.135-4.432-30.848-15.999-43.435zm-16.231-334.028c-2.203-4.486-1.664-9.741 1.408-13.715l37.624-48.689c2.494-3.225 6.259-5.074 10.329-5.074h.003c4.072 0 7.835 1.851 10.326 5.075l37.624 48.689c3.071 3.972 3.611 9.228 1.407 13.713-2.218 4.517-6.715 7.321-11.735 7.321h-10.598v71.163c0 8.062-6.56 14.622-14.622 14.622h-24.812c-8.062 0-14.622-6.559-14.622-14.622v-71.163s-10.596 0-10.596 0h-.006c-5.017 0-9.512-2.804-11.73-7.321zm447.095 304.59c10.149-11.045 15.255-23.671 15.175-37.526l-.886-153.912c-.104-18.115-14.878-32.781-32.974-32.781-.062 0-.126 0-.188 0-8.779.05-17.032 3.534-23.238 9.812-6.205 6.277-9.596 14.569-9.545 23.348l.533 92.624c-12.567-4.443-27.145-1.637-37.162 8.416l-68.071 68.319c-9.522 9.56-13.346 23.467-11.058 40.22l3.893 28.506-1.412-.37c-3.484-.911-7.118-.41-10.233 1.413-3.116 1.823-5.334 4.745-6.245 8.227l-5.806 22.178c-1.884 7.2 2.441 14.591 9.642 16.477l119.986 31.409c1.142.299 2.286.441 3.414.441 5.991 0 11.478-4.024 13.062-10.082l5.806-22.177c1.884-7.2-2.441-14.592-9.642-16.478l-3.477-.91c-1.737-15.385 1.694-26.304 11.423-36.891l37.002-40.265zm-64.782 72.873-81.99-21.463-4.787-35.055c-1.61-11.786.59-20.79 6.539-26.762l68.07-68.319c7.638-7.664 20.089-7.688 27.754-.05 3.691 3.679 5.729 8.603 5.739 13.865.01 5.264-2.011 10.195-5.688 13.887l-36.362 36.495c-3.118 3.13-3.109 8.195.021 11.313s8.194 3.109 11.313-.021l36.362-36.495c12.84-12.887 13.744-33.218 2.756-47.165l-.6-104.255c-.026-4.505 1.723-8.77 4.924-12.008s7.444-5.035 11.949-5.061h.097c9.315 0 16.921 7.549 16.975 16.873l.886 153.912c.058 9.82-3.526 18.523-10.956 26.608l-37.002 40.265c-11.567 12.588-16.677 26.301-16 43.435z"/></svg>