<svg width="48" height="48" viewBox="0 0 48 48" fill="none" xmlns="http://www.w3.org/2000/svg">
<path d="M39.4906 26C41.0724 23.7324 42 20.9744 42 18C42 10.268 35.732 4 28 4C20.268 4 14 10.268 14 18C14 20.1472 14.4834 22.1814 15.3473 24" stroke="#FFAF00" stroke-width="3" stroke-linecap="round" stroke-linejoin="round"/>
<path d="M28 12C25.7908 12 24 13.3431 24 15C24 16.6569 25.7908 18 28 18C30.2092 18 32 19.3431 32 21C32 22.6568 30.2092 24 28 24M28 12C29.7416 12 31.2232 12.8348 31.7724 14M28 12V10M28 24C26.2584 24 24.7768 23.1652 24.2276 22M28 24V26" stroke="#07A169" stroke-width="3" stroke-linecap="round"/>
<path d="M6 28H10.7896C11.3779 28 11.9582 28.1326 12.4843 28.3872L16.5683 30.3632C17.0945 30.6178 17.6747 30.7502 18.263 30.7502H20.3482C22.365 30.7502 24 32.3324 24 34.284C24 34.3628 23.946 34.4322 23.8676 34.4538L18.7857 35.859C17.8741 36.111 16.898 36.0232 16.05 35.6128L11.6842 33.5006M24 33L33.1856 30.1778C34.814 29.6704 36.5742 30.272 37.5942 31.6846C38.3318 32.7058 38.0314 34.1684 36.957 34.7884L21.9258 43.461C20.9698 44.0126 19.8419 44.1472 18.7903 43.8352L6 40.0398" stroke="#07A169" stroke-width="3" stroke-linecap="round" stroke-linejoin="round"/>
</svg>
