<svg width="48" height="48" viewBox="0 0 48 48" fill="none" xmlns="http://www.w3.org/2000/svg">
<path d="M32 16C31.5124 17.4627 30.5092 18.5855 29.0892 19.2151C24.5284 21.237 21.237 24.5284 19.2151 29.0892C18.5855 30.5092 17.4627 31.5124 16 32" stroke="#FFB800" stroke-width="3" stroke-linejoin="round"/>
<path d="M6.4 41.6L4 44M41.6 6.4L44 4" stroke="#FFB800" stroke-width="3" stroke-linecap="round" stroke-linejoin="round"/>
<path d="M9.15728 43.2384L6.8746 40.9822L4.70668 38.6978C3.42024 37.4114 4.16242 36.125 4.79772 35.4864L7.76186 32.5186L15.475 40.265L12.4391 43.2472C11.3774 44.1138 10.6494 44.3792 9.22142 43.2474M32.5848 7.66047L35.6092 4.75417C36.26 4.13131 37.3888 3.43963 38.8218 4.72515L41.064 6.93675L43.2756 9.26257C44.3798 10.7121 44.108 11.4991 43.2212 12.5439L40.266 15.4134L32.5848 7.66047ZM32.5794 7.67897C31.7982 6.74859 30.277 5.07775 28.0558 7.42537C27.698 7.80347 27.3224 8.17426 27.0014 8.58404C25.8104 10.3596 27.2204 11.6879 28.0366 12.421L35.7882 20.1724C36.5428 21.102 37.9668 22.114 39.4504 20.8934C39.8524 20.5628 40.215 20.1792 40.5848 19.8129C42.8766 17.5427 41.1426 16.0848 40.1948 15.3249L32.5794 7.67897ZM12.4291 27.8466C11.6479 26.9162 10.1266 25.2454 7.9054 27.593C7.54766 27.9712 7.17204 28.342 6.85106 28.7518C5.66008 30.5272 7.07014 31.8556 7.8863 32.5888L15.6379 40.3402C16.3924 41.2698 17.8164 42.2816 19.3001 41.0612C19.7021 40.7304 20.0646 40.3468 20.4344 39.9806C22.7262 37.7104 20.9922 36.2524 20.0444 35.4926L12.4291 27.8466Z" stroke="#07A169" stroke-width="3" stroke-linecap="round" stroke-linejoin="round"/>
</svg>
