<svg width="48" height="48" viewBox="0 0 48 48" fill="none" xmlns="http://www.w3.org/2000/svg">
<path d="M33.5 31V27.5C33.5 25.567 35.067 24 37 24C38.1562 24 39.1814 24.5606 39.8188 25.4248M44 36.5C44 34.1544 44 32.9816 43.38 32.1738C43.2204 31.9658 43.0342 31.7796 42.8262 31.62C42.0184 31 40.8456 31 38.5 31H35.5C33.1544 31 31.9816 31 31.1738 31.62C30.9658 31.7796 30.7796 31.9658 30.62 32.1738C30 32.9816 30 34.1544 30 36.5C30 38.8456 30 40.0184 30.62 40.8262C30.7796 41.0342 30.9658 41.2204 31.1738 41.38C31.9816 42 33.1544 42 35.5 42H38.5C40.8456 42 42.0184 42 42.8262 41.38C43.0342 41.2204 43.2204 41.0342 43.38 40.8262C44 40.0184 44 38.8456 44 36.5Z" stroke="#07A169" stroke-width="3" stroke-linecap="round" stroke-linejoin="round"/>
<path d="M24.0054 42C14.5748 42 9.85946 42 6.92974 39.071C4 36.1422 4 31.428 4 22V15.8885C4 12.2556 4 10.4391 4.76084 9.07612C5.3032 8.10454 6.1051 7.30284 7.07696 6.76064C8.44034 6 10.2573 6 13.8912 6C16.2194 6 17.3834 6 18.4024 6.38202C20.729 7.25424 21.6884 9.36716 22.7382 11.4663L24.0054 14M16.0033 14H33.508C37.7226 14 39.8298 14 41.3436 15.0112C41.999 15.4489 42.5616 16.0114 42.9994 16.6666C43.7874 17.8456 43.9616 19.3849 44 22" stroke="#FFB800" stroke-width="3" stroke-linecap="round"/>
</svg>
