<svg width="48" height="48" viewBox="0 0 48 48" fill="none" xmlns="http://www.w3.org/2000/svg">
<path d="M18.7573 7.66614L18.4346 5.76042C18.2922 4.91982 18.221 4.49952 17.9172 4.24976C17.6133 4 17.1731 4 16.2927 4H15.7123C14.832 4 14.3918 4 14.0879 4.24976C13.784 4.49952 13.7129 4.91982 13.5705 5.76042L13.2477 7.66614C12.5653 7.93278 11.9323 8.29556 11.366 8.73748L9.5652 8.07356C8.7346 7.76734 8.31932 7.61424 7.94118 7.74582C7.56304 7.87738 7.34364 8.25134 6.90486 8.99926L6.58388 9.54638C6.15674 10.2744 5.94318 10.6385 6.01306 11.0127C6.08292 11.387 6.41462 11.6557 7.07802 12.1932L8.61162 13.4356C8.56038 13.7831 8.53388 14.1385 8.53388 14.5C8.53388 14.8628 8.56057 15.2195 8.61217 15.5682L7.0822 16.8077C6.4188 17.3452 6.0871 17.6139 6.01722 17.9882C5.94734 18.3624 6.16092 18.7264 6.58804 19.4545L6.90902 20.0016C7.3478 20.7496 7.5672 21.1234 7.94534 21.255C8.32348 21.3866 8.73878 21.2336 9.56936 20.9274L11.3681 20.2642C11.9339 20.7054 12.5662 21.0676 13.2477 21.3338L13.5705 23.2396C13.7129 24.0802 13.784 24.5004 14.0879 24.7502C14.3918 25 14.832 25 15.7123 25H16.2927C17.1731 25 17.6133 25 17.9172 24.7502C18.221 24.5004 18.2922 24.0802 18.4346 23.2396L18.7573 21.3338C19.4382 21.0678 20.07 20.706 20.6354 20.2654L22.4306 20.9274C23.2612 21.2336 23.6766 21.3866 24.0546 21.255C24.4328 21.1234 24.6522 20.7496 25.091 20.0016L25.412 19.4545C25.839 18.7264 26.0526 18.3624 25.9828 17.9882C25.913 17.6139 25.5812 17.3452 24.9178 16.8077L23.3924 15.5719C23.4442 15.222 23.4712 14.8641 23.4712 14.5C23.4712 14.1372 23.4444 13.7806 23.393 13.4319L24.922 12.1932C25.5854 11.6557 25.917 11.387 25.987 11.0127C26.0568 10.6385 25.8432 10.2744 25.4162 9.54638L25.0952 8.99926C24.6564 8.25134 24.437 7.87738 24.0588 7.74582C23.6806 7.61424 23.2654 7.76734 22.4348 8.07356L20.6374 8.7362C20.0716 8.29486 19.4391 7.93252 18.7573 7.66614Z" stroke="#07A169" stroke-width="3" stroke-linejoin="round"/>
<path d="M34.7574 26.6662L34.4346 24.7604C34.2922 23.9198 34.221 23.4996 33.9172 23.2498C33.6132 23 33.1732 23 32.2928 23H31.7124C30.832 23 30.3918 23 30.088 23.2498C29.784 23.4996 29.7128 23.9198 29.5704 24.7604L29.2478 26.6662C28.5654 26.9328 27.9324 27.2956 27.366 27.7374L25.5652 27.0736C24.7346 26.7674 24.3194 26.6142 23.9412 26.7458C23.563 26.8774 23.3436 27.2514 22.9048 27.9992L22.5838 28.5464C22.1568 29.2744 21.9432 29.6384 22.013 30.0128C22.083 30.387 22.4146 30.6558 23.078 31.1932L24.6116 32.4356C24.5604 32.7832 24.5338 33.1386 24.5338 33.5C24.5338 33.8628 24.5606 34.2194 24.6122 34.5682L23.0822 35.8078C22.4188 36.3452 22.087 36.614 22.0172 36.9882C21.9474 37.3624 22.161 37.7264 22.588 38.4544L22.909 39.0016C23.3478 39.7496 23.5672 40.1234 23.9454 40.255C24.3234 40.3866 24.7388 40.2336 25.5694 39.9274L27.368 39.2642C27.9338 39.7054 28.5662 40.0676 29.2478 40.3338L29.5704 42.2396C29.7128 43.0802 29.784 43.5004 30.088 43.7502C30.3918 44 30.832 44 31.7124 44H32.2928C33.1732 44 33.6132 44 33.9172 43.7502C34.221 43.5004 34.2922 43.0802 34.4346 42.2396L34.7574 40.3338C35.4382 40.0678 36.07 39.706 36.6354 39.2654L38.4306 39.9274C39.2612 40.2336 39.6766 40.3866 40.0546 40.255C40.4328 40.1234 40.6522 39.7496 41.091 39.0016L41.412 38.4544C41.839 37.7264 42.0526 37.3624 41.9828 36.9882C41.913 36.614 41.5812 36.3452 40.9178 35.8078L39.3924 34.5718C39.4442 34.222 39.4712 33.864 39.4712 33.5C39.4712 33.1372 39.4444 32.7806 39.393 32.432L40.922 31.1932C41.5854 30.6558 41.917 30.387 41.987 30.0128C42.0568 29.6384 41.8432 29.2744 41.4162 28.5464L41.0952 27.9992C40.6564 27.2514 40.437 26.8774 40.0588 26.7458C39.6806 26.6142 39.2654 26.7674 38.4348 27.0736L36.6374 27.7362C36.0716 27.2948 35.439 26.9326 34.7574 26.6662Z" stroke="#FFB800" stroke-width="3" stroke-linejoin="round"/>
<path d="M17.5 14.5C17.5 15.3284 16.8284 16 16 16C15.1716 16 14.5 15.3284 14.5 14.5C14.5 13.6716 15.1716 13 16 13C16.8284 13 17.5 13.6716 17.5 14.5Z" stroke="#FFB800" stroke-width="3" stroke-linejoin="round"/>
<path d="M33.5 33.5C33.5 34.3284 32.8284 35 32 35C31.1716 35 30.5 34.3284 30.5 33.5C30.5 32.6716 31.1716 32 32 32C32.8284 32 33.5 32.6716 33.5 33.5Z" stroke="#07A169" stroke-width="3" stroke-linejoin="round"/>
</svg>
