<svg width="48" height="48" viewBox="0 0 48 48" fill="none" xmlns="http://www.w3.org/2000/svg">
<path d="M24 4L28 28M28 28L42 31.138M28 28L24 44M28 28L6 31.138" stroke="#FFAF00" stroke-width="3" stroke-linecap="round" stroke-linejoin="round"/>
<path d="M19.7044 42.0196L10.8822 36.454C7.25244 34.1642 5.43758 33.0194 5.06542 31.138C4.69326 29.2568 5.92344 27.446 8.3838 23.8244L17.2061 10.8383C20.3032 6.27942 21.8518 4 24 4C26.1482 4 27.6968 6.27942 30.794 10.8383L39.6162 23.8244C42.0766 27.446 43.3068 29.2568 42.9346 31.138C42.5624 33.0194 40.7476 34.1642 37.1178 36.454L28.2956 42.0196C26.2028 43.3398 25.1562 44 24 44C22.8438 44 21.7972 43.3398 19.7044 42.0196Z" stroke="#07A169" stroke-width="3" stroke-linecap="round" stroke-linejoin="round"/>
</svg>
