<svg width="48" height="48" viewBox="0 0 48 48" fill="none" xmlns="http://www.w3.org/2000/svg">
<path d="M28.2438 4.85134L26.9178 3.02172C26.7332 2.76698 26.641 2.6396 26.5002 2.57386C26.3596 2.5081 26.2104 2.51848 25.912 2.5392C22.5126 2.77538 19.415 4.10828 16.9704 6.18668C16.8413 6.29644 16.9204 6.49622 17.0896 6.50618C19.0508 6.62164 20.0946 7.71128 21.2378 8.9199C23.0048 10.788 24.3942 10.6336 25.0456 10.2893C25.3118 10.1486 25.3608 10.049 25.3776 10.0147L25.3788 10.0122C25.432 9.90482 25.4542 9.79002 25.5334 9.35542C25.5996 8.99222 25.7146 8.36874 26.113 7.76672C26.5344 7.1301 27.1634 6.66598 27.9928 6.33716C28.3386 6.20008 28.445 6.00816 28.4834 5.82718C28.5312 5.60168 28.4926 5.24284 28.2438 4.85134Z" fill="#07A169"/>
<path d="M30.1422 32.7099C30.372 32.9023 30.4868 32.9985 30.632 33.0297C30.7772 33.0611 30.9142 33.0227 31.1884 32.9459C36.1256 31.5631 40.067 27.7955 41.6938 22.9627C41.9072 22.3287 42.014 22.0115 41.8344 21.7617C41.6548 21.5117 41.3018 21.5117 40.5958 21.5117H40.001C39.0014 21.5117 38.4542 21.8807 37.6516 22.4331L37.623 22.4529C36.793 23.0243 35.581 23.8587 33.7068 23.4837C31.237 22.9895 30.056 23.1211 29.5468 23.3563C29.357 23.4443 29.2808 23.5367 29.227 23.6451C29.1556 23.7891 29.0842 24.0523 29.0842 24.5155L29.0844 24.6899C29.0848 25.7123 29.0852 26.4849 28.9098 27.1895C28.7272 27.9229 28.3642 28.5461 27.9174 29.3137L27.841 29.4447C27.551 29.9441 27.4956 30.2203 27.5014 30.3491C27.5034 30.3925 27.512 30.4295 27.542 30.4809C27.5768 30.5403 27.6636 30.6565 27.8728 30.8117C27.8968 30.8295 27.9202 30.8479 27.9428 30.8669L30.1422 32.7099Z" fill="#07A169"/>
<path d="M31.0816 3.82946C30.8864 3.40442 30.7888 3.1919 30.8744 3.0944C30.9598 2.99692 31.1648 3.06016 31.5748 3.18668C37.902 5.13948 42.5 11.0369 42.5 18.0087C42.5 18.2876 42.2706 18.509 41.9918 18.509H40C38.0532 18.509 36.8464 19.3412 36.0178 19.9125L35.9502 19.9591C35.1478 20.5115 34.866 20.6537 34.2942 20.5393C31.764 20.0329 29.7368 19.9604 28.2874 20.6305C27.4982 20.9955 26.9076 21.5673 26.5394 22.3083C26.189 23.0139 26.0832 23.7851 26.0832 24.5145C26.0832 25.7901 26.0724 26.1631 25.9978 26.4627C25.9308 26.7317 25.8048 26.9745 25.2468 27.9349C24.8604 28.5993 24.4592 29.4869 24.5034 30.4809C24.5514 31.5667 25.11 32.4851 26.047 33.1935C26.1692 33.2957 26.0918 33.4921 25.9328 33.4811C17.8702 32.9327 11.5 26.2151 11.5 18.0087C11.5 15.2545 12.2176 12.6679 13.4759 10.426C13.7184 9.99396 13.8396 9.77796 14.0737 9.64092C14.3077 9.5039 14.5771 9.5039 15.1158 9.5039H16.9521C17.581 9.54832 17.9006 9.7587 19.0576 10.9818C21.489 13.5523 24.298 14.0772 26.4456 12.9419C27.2224 12.5313 27.7444 11.9916 28.0654 11.3437C28.3204 10.8291 28.4142 10.289 28.467 9.98506L28.4834 9.89228C28.5466 9.54534 28.5836 9.46698 28.613 9.42258C28.6226 9.4077 28.7034 9.2822 29.0964 9.12638C30.3564 8.62686 31.1648 7.63428 31.4164 6.4496C31.6084 5.5456 31.4556 4.64386 31.0816 3.82946Z" fill="#FFB800"/>
<path fill-rule="evenodd" clip-rule="evenodd" d="M14.434 2.60584C15.204 3.3978 15.1861 4.66402 14.3942 5.43398C11.0609 8.6747 9 13.181 9 18.165C9 27.9994 17.0432 36 27 36C31.9118 36 36.3582 34.0534 39.6058 30.896C40.3978 30.126 41.664 30.144 42.434 30.9358C43.204 31.7278 43.1862 32.994 42.3942 33.764C38.4268 37.6212 32.99 40 27 40V42H29C30.1046 42 31 42.8954 31 44C31 45.1046 30.1046 46 29 46H21C19.8954 46 19 45.1046 19 44C19 42.8954 19.8954 42 21 42H23V39.6398C12.7698 37.7738 5 28.8808 5 18.165C5 12.0518 7.53366 6.5251 11.6058 2.56602C12.3978 1.79604 13.664 1.81387 14.434 2.60584Z" fill="#07A169"/>
</svg>
