<svg width="48" height="48" viewBox="0 0 48 48" fill="none" xmlns="http://www.w3.org/2000/svg">
<path d="M42.3218 19.8569C44.3856 19.0831 44.5716 15.3858 42.737 11.5989C40.9024 7.81187 37.7422 5.36923 35.6782 6.14307M42.3218 19.8569C40.2578 20.6308 37.0976 18.1881 35.263 14.4011C33.4284 10.6142 33.6144 6.91689 35.6782 6.14307M42.3218 19.8569L12.3218 37.857C10.2579 38.6308 7.09756 36.1882 5.263 32.4012C3.42842 28.6142 3.61432 24.9168 5.67822 24.143L35.6782 6.14307" stroke="#07A169" stroke-width="3"/>
<path d="M30 27.2144C27.2766 26.0684 21.8466 21.9018 21.9148 14.4023M23 31.4024C20.6666 30.2888 15.8 26.1574 15 18.5393" stroke="#07A169" stroke-width="3"/>
<path d="M30.86 28C32.0552 30.2604 33.278 36.2248 29.0996 42L27.1264 39.168L22 41.6206C22 41.6206 25.6498 37.7736 23.9056 32" stroke="#FFB800" stroke-width="3" stroke-linecap="round" stroke-linejoin="round"/>
</svg>
