<svg width="48" height="48" viewBox="0 0 48 48" fill="none" xmlns="http://www.w3.org/2000/svg">
<path d="M42.5005 19C42.5005 18.1716 41.8289 17.5 41.0005 17.5C40.1721 17.5 39.5005 18.1716 39.5005 19H42.5005ZM39.5005 19V33.0144H42.5005V19H39.5005ZM39.6027 39.8736C39.8925 38.654 40.3909 37.5394 40.9243 36.4956C41.4129 35.5392 42.0531 34.4328 42.3957 33.5654L39.6053 32.4634C39.3315 33.1568 38.8733 33.9162 38.2527 35.1306C37.6769 36.2576 37.0549 37.619 36.6839 39.1802L39.6027 39.8736ZM45.3171 39.1802C44.9461 37.619 44.3241 36.2576 43.7483 35.1306C43.1277 33.9162 42.6695 33.1568 42.3957 32.4634L39.6053 33.5654C39.9479 34.4328 40.5881 35.5392 41.0767 36.4956C41.6101 37.5394 42.1085 38.654 42.3983 39.8736L45.3171 39.1802ZM41.6313 40.5H40.3697V43.5H41.6313V40.5ZM36.6839 39.1802C36.4373 40.2188 36.2891 41.5928 37.2675 42.574C37.7257 43.0336 38.2907 43.2494 38.7883 43.3598C39.2843 43.4698 39.8285 43.5 40.3697 43.5V40.5C39.9131 40.5 39.6207 40.4716 39.4377 40.431C39.2565 40.3908 39.3003 40.3642 39.3919 40.456C39.5073 40.5716 39.5089 40.6796 39.5033 40.619C39.4945 40.5252 39.5013 40.3008 39.6027 39.8736L36.6839 39.1802ZM42.3983 39.8736C42.4997 40.3008 42.5065 40.5252 42.4977 40.619C42.4921 40.6796 42.4937 40.5716 42.6091 40.456C42.7007 40.3642 42.7445 40.3908 42.5633 40.431C42.3803 40.4716 42.0879 40.5 41.6313 40.5V43.5C42.1725 43.5 42.7167 43.4698 43.2127 43.3598C43.7103 43.2494 44.2753 43.0336 44.7335 42.574C45.7119 41.5928 45.5637 40.2188 45.3171 39.1802L42.3983 39.8736Z" fill="#FFAF00"/>
<path d="M4 16C4 18.6836 20.2124 26 24 26C27.7876 26 44 18.6836 44 16C44 13.3164 27.7876 6 24 6C20.2124 6 4 13.3164 4 16Z" stroke="#07A169" stroke-width="3" stroke-linecap="round" stroke-linejoin="round"/>
<path d="M12 22L12.4909 33.2598C12.5007 33.4852 12.5251 33.711 12.5906 33.927C12.7928 34.5946 13.1655 35.2012 13.7341 35.6088C18.1832 38.797 29.8168 38.797 34.2658 35.6088C34.8346 35.2012 35.2072 34.5946 35.4094 33.927C35.4748 33.711 35.4992 33.4852 35.5092 33.2598L36 22" stroke="#07A169" stroke-width="3" stroke-linecap="round" stroke-linejoin="round"/>
</svg>
