<svg width="48" height="48" viewBox="0 0 48 48" fill="none" xmlns="http://www.w3.org/2000/svg">
<path d="M44 24C44 12.9543 35.0456 4 24 4C12.9543 4 4 12.9543 4 24C4 35.0456 12.9543 44 24 44C25.6834 44 28 44.2326 28 42C28 40.782 27.3664 39.8424 26.7372 38.9088C25.8164 37.543 24.9046 36.1906 26 34C27.3334 31.3334 29.5556 31.3334 32.963 31.3334C34.6668 31.3334 36.6668 31.3334 39 31C43.202 30.3998 44 27.8168 44 24Z" stroke="#07A169" stroke-width="3"/>
<path d="M14 30.0048L14.0174 30" stroke="#07A169" stroke-width="3" stroke-linecap="round" stroke-linejoin="round"/>
<path d="M19 20C20.6569 20 22 18.6569 22 17C22 15.3431 20.6569 14 19 14C17.3431 14 16 15.3431 16 17C16 18.6569 17.3431 20 19 20Z" stroke="#FFB800" stroke-width="3"/>
<path d="M33 22C34.6569 22 36 20.6569 36 19C36 17.3431 34.6569 16 33 16C31.3431 16 30 17.3431 30 19C30 20.6569 31.3431 22 33 22Z" stroke="#FFB800" stroke-width="3"/>
</svg>
