<svg height="512" viewBox="0 0 32 32" width="512" xmlns="http://www.w3.org/2000/svg"><g id="outline"><path d="m30 12.91h-4a.5.5 0 0 0 -.5.5v.5h-1.5a.5.5 0 0 0 -.5.5.5.5 0 0 0 .5.5h1.5v9h-2.29l.4-.4a1.5 1.5 0 0 0 0-2.12l-1.75-1.74a.49.49 0 1 0 -.7.7l1.75 1.74a.53.53 0 0 1 0 .72l-.91.9-2.65-2.65a.5.5 0 0 0 -.7 0 .5.5 0 0 0 0 .71l2.65 2.65-1.3 1.29-2.65-2.65a.5.5 0 0 0 -.7 0 .5.5 0 0 0 0 .71l2.65 2.65-1.3 1.29-2.65-2.65a.5.5 0 0 0 -.7 0 .5.5 0 0 0 0 .71l2.65 2.65-.94.94a.51.51 0 0 1 -.71 0l-1.34-1.36a.5.5 0 0 0 -.71 0 .5.5 0 0 0 0 .71l1.34 1.35a1.5 1.5 0 0 0 2.12 0l5.15-5.15h3.29v.5a.5.5 0 0 0 .5.5h4a.5.5 0 0 0 .5-.5v-12a.5.5 0 0 0 -.5-.5zm-.5 12h-3v-11h3z"/><path d="m10.35 24.06a.47.47 0 0 0 -.35-.15h-3.5v-9h1.5a.5.5 0 0 0 .5-.5.5.5 0 0 0 -.5-.5h-1.5v-.5a.5.5 0 0 0 -.5-.5h-4a.5.5 0 0 0 -.5.5v12a.5.5 0 0 0 .5.5h4a.5.5 0 0 0 .5-.5v-.5h3.29l1 1a.48.48 0 0 0 .7 0 .48.48 0 0 0 0-.7zm-4.85.85h-3v-11h3z"/><circle cx="4" cy="16" r=".5"/><circle cx="28" cy="16" r=".5"/><path d="m16 20.5a6.5 6.5 0 1 0 -6.5-6.5 6.51 6.51 0 0 0 6.5 6.5zm0-12a5.5 5.5 0 1 1 -5.5 5.5 5.51 5.51 0 0 1 5.5-5.5z"/><path d="m14.65 16.35a.48.48 0 0 0 .7 0l4-4a.49.49 0 1 0 -.7-.7l-3.65 3.64-1.65-1.64a.49.49 0 0 0 -.7.7z"/><path d="m16 5.5a.5.5 0 0 0 .5-.5v-3a.5.5 0 0 0 -1 0v3a.5.5 0 0 0 .5.5z"/><path d="m11.07 6.46a.5.5 0 0 0 .43.25.59.59 0 0 0 .25-.07.5.5 0 0 0 .18-.64l-1.5-2.6a.5.5 0 1 0 -.86.5z"/><path d="m5.36 8.43 2.64 1.5a.42.42 0 0 0 .2.07.5.5 0 0 0 .26-.93l-2.6-1.5a.5.5 0 1 0 -.5.86z"/><path d="m20.25 6.64a.59.59 0 0 0 .25.07.5.5 0 0 0 .43-.25l1.5-2.6a.5.5 0 1 0 -.86-.5l-1.5 2.64a.5.5 0 0 0 .18.64z"/><path d="m23.8 10a.42.42 0 0 0 .2-.07l2.6-1.5a.5.5 0 1 0 -.5-.86l-2.6 1.5a.5.5 0 0 0 .26.93z"/><circle cx="12.53" cy="26.95" r=".5"/></g></svg>