<svg width="48" height="48" viewBox="0 0 48 48" fill="none" xmlns="http://www.w3.org/2000/svg">
<path d="M6.95117 21.2383H18.0226" stroke="#FFAF00" stroke-width="1.5" stroke-miterlimit="10" stroke-linecap="round" stroke-linejoin="round"/>
<path d="M40.6745 20.0039H22.501" stroke="#07A169" stroke-width="1.5" stroke-miterlimit="10" stroke-linecap="round" stroke-linejoin="round"/>
<path d="M31.3501 25.2539H22.2109" stroke="#07A169" stroke-width="1.5" stroke-miterlimit="10" stroke-linecap="round" stroke-linejoin="round"/>
<path d="M40.6741 25.2539H36.0117" stroke="#07A169" stroke-width="1.5" stroke-miterlimit="10" stroke-linecap="round" stroke-linejoin="round"/>
<path d="M33.3728 14.7539H20.8164" stroke="#07A169" stroke-width="1.5" stroke-miterlimit="10" stroke-linecap="round" stroke-linejoin="round"/>
<path d="M40.6745 14.7539H38.0352" stroke="#07A169" stroke-width="1.5" stroke-miterlimit="10" stroke-linecap="round" stroke-linejoin="round"/>
<path d="M40.6744 30.5039H31.3496" stroke="#07A169" stroke-width="1.5" stroke-miterlimit="10" stroke-linecap="round" stroke-linejoin="round"/>
<path d="M2.82617 8.4375V32.3087" stroke="#07A169" stroke-width="1.5" stroke-miterlimit="10" stroke-linejoin="round"/>
<path d="M24 36.9152H45.1742V8.4375" stroke="#07A169" stroke-width="1.5" stroke-miterlimit="10" stroke-linejoin="round"/>
<path d="M46.9688 3.09375H1.03125V8.34375H46.9688V3.09375Z" stroke="#07A169" stroke-width="1.5" stroke-miterlimit="10" stroke-linecap="round" stroke-linejoin="round"/>
<path d="M15.2704 29.0645H9.67528C4.90134 29.0645 1.03125 32.9345 1.03125 37.7085V40.9055C1.03125 43.1146 2.82206 44.9054 5.03109 44.9054H23.9144V37.7085C23.9144 32.9345 20.0443 29.0645 15.2704 29.0645Z" stroke="#FFAF00" stroke-width="1.5" stroke-miterlimit="10" stroke-linecap="round" stroke-linejoin="round"/>
<path d="M18.0225 20.1528V23.5299C18.0225 26.5872 15.5441 29.0656 12.4868 29.0656C9.42955 29.0656 6.95117 26.5872 6.95117 23.5299V20.1528C6.95117 17.0956 9.42955 14.6172 12.4868 14.6172C15.544 14.6172 18.0225 17.0957 18.0225 20.1528Z" stroke="#FFAF00" stroke-width="1.5" stroke-miterlimit="10" stroke-linecap="round" stroke-linejoin="round"/>
<path d="M12.4727 29.0645V32.3077" stroke="#FFAF00" stroke-width="1.5" stroke-miterlimit="10" stroke-linecap="round" stroke-linejoin="round"/>
<path d="M6.28125 40.1544H9.558L13.4987 37.3437C14.5261 36.611 15.9519 36.8427 16.6943 37.8632C17.4416 38.8904 17.2147 40.329 16.1874 41.0763L12.1309 44.0273C11.345 44.599 10.3981 44.9071 9.42628 44.9071H7.48116" stroke="#FFAF00" stroke-width="1.5" stroke-miterlimit="10" stroke-linecap="round" stroke-linejoin="round"/>
<path d="M26.7398 30.5039L16.6943 37.8618" stroke="#FFAF00" stroke-width="1.5" stroke-miterlimit="10" stroke-linecap="round" stroke-linejoin="round"/>
</svg>
