<svg width="32" height="31" viewBox="0 0 32 31" fill="none" xmlns="http://www.w3.org/2000/svg">
<path d="M29.275 14.3438H23.875C23.875 14.2312 23.875 14.2312 23.875 14.1188V3.31875C23.875 1.96875 22.75 0.84375 21.4 0.84375H10.6C9.25 0.84375 8.125 1.96875 8.125 3.31875V11.5312C8.125 12.2063 8.575 12.6562 9.25 12.6562C9.925 12.6562 10.375 12.2063 10.375 11.5312V3.31875C10.375 3.20625 10.4875 3.09375 10.6 3.09375H21.4C21.5125 3.09375 21.625 3.20625 21.625 3.31875V14.1188C21.625 14.2312 21.5125 14.3438 21.4 14.3438H17.35C16.9 14.3438 16.45 14.4563 16 14.6813C15.55 14.4563 15.1 14.2312 14.65 14.3438H2.725C1.375 14.3438 0.25 15.4688 0.25 16.8188V27.6187C0.25 28.9688 1.375 30.0938 2.725 30.0938H11.05C11.725 30.0938 12.175 29.6437 12.175 28.9688C12.175 28.2938 11.725 27.8438 11.05 27.8438H2.725C2.6125 27.8438 2.5 27.7312 2.5 27.6187V16.8188C2.5 16.7063 2.6125 16.5938 2.725 16.5938H14.65C14.7625 16.5938 14.875 16.7063 14.875 16.8188V28.9688C14.875 29.6437 15.325 30.0938 16 30.0938H29.275C30.625 30.0938 31.75 28.9688 31.75 27.6187V16.8188C31.75 15.4688 30.625 14.3438 29.275 14.3438ZM29.5 27.6187C29.5 27.7312 29.3875 27.8438 29.275 27.8438H17.125V16.8188C17.125 16.7063 17.2375 16.5938 17.35 16.5938H29.275C29.3875 16.5938 29.5 16.7063 29.5 16.8188V27.6187ZM11.5 18.6187C11.275 18.2812 10.9375 18.0562 10.4875 18.0562H6.8875C6.4375 18.0562 6.1 18.2812 5.875 18.6187L4.075 21.6562C3.85 21.9937 3.85 22.4438 4.075 22.7812L5.875 25.8188C6.1 26.1562 6.4375 26.3813 6.8875 26.3813H10.4875C10.9375 26.3813 11.275 26.1562 11.5 25.8188L13.3 22.7812C13.525 22.4438 13.525 21.9937 13.3 21.6562L11.5 18.6187ZM9.8125 24.2437H7.5625L6.4375 22.2188L7.5625 20.3062H9.8125L10.9375 22.2188L9.8125 24.2437ZM12.625 12.0938H19.375C20.05 12.0938 20.5 11.6438 20.5 10.9688C20.5 10.7437 20.3875 10.5187 20.275 10.2937L16.9 5.79375C16.5625 5.34375 15.775 5.23125 15.325 5.56875C15.2125 5.68125 15.2125 5.68125 15.1 5.79375L11.725 10.2937C11.5 10.6312 11.5 11.0812 11.6125 11.4187C11.8375 11.8687 12.175 12.0938 12.625 12.0938ZM16 8.38125L17.125 9.84375H14.875L16 8.38125ZM25.3375 18.1687C24.6625 17.8312 23.9875 17.7188 23.3125 17.7188C20.8375 17.7188 18.8125 19.7437 18.8125 22.2188C18.8125 24.6938 20.8375 26.7188 23.3125 26.7188C23.9875 26.7188 24.4375 26.2687 24.4375 25.5938C24.4375 24.9188 23.9875 24.4688 23.3125 24.4688C22.075 24.4688 21.0625 23.4562 21.0625 22.2188C21.0625 20.9813 22.075 19.9688 23.3125 19.9688C24.55 19.9688 25.5625 20.9813 25.5625 22.2188C25.5625 22.5562 25.45 22.8937 25.3375 23.2312C25.1125 23.7937 25.3375 24.4688 25.9 24.6938C26.4625 24.9188 27.1375 24.6938 27.3625 24.1313C28.4875 21.9938 27.5875 19.2937 25.3375 18.1687Z" fill="white"/>
</svg>
