<svg width="48" height="48" viewBox="0 0 48 48" fill="none" xmlns="http://www.w3.org/2000/svg">
<path d="M22.9162 41.5418L19.9335 44C13.2103 38.6678 14.0317 36.125 14.0317 26H16.2993C17.2196 31.7218 19.3902 34.432 22.3854 36.394C24.2304 37.6024 24.6108 40.145 22.9162 41.5418Z" stroke="#FFB800" stroke-width="3" stroke-linecap="round" stroke-linejoin="round"/>
<path d="M29.8526 5.82206L16.547 12.209C15.523 12.7006 14.4289 12.8237 13.3135 12.5739C12.5835 12.4103 12.2185 12.3286 11.9246 12.295C8.27486 11.8782 6 14.7668 6 18.0885V19.9115C6 23.2332 8.27486 26.1218 11.9246 25.705C12.2185 25.6714 12.5836 25.5896 13.3135 25.4262C14.4289 25.1762 15.523 25.2994 16.547 25.791L29.8526 32.178C32.9068 33.6442 34.434 34.3772 36.1368 33.8058C37.8394 33.2344 38.4238 32.0082 39.5928 29.556C42.8024 22.8224 42.8024 15.1777 39.5928 8.44392C38.4238 5.99172 37.8394 4.76562 36.1368 4.1942C34.434 3.6228 32.9068 4.35588 29.8526 5.82206Z" stroke="#07A169" stroke-width="3" stroke-linecap="round" stroke-linejoin="round"/>
<path d="M15 25V13" stroke="#07A169" stroke-width="3" stroke-linecap="round" stroke-linejoin="round"/>
</svg>
