<svg width="48" height="48" viewBox="0 0 48 48" fill="none" xmlns="http://www.w3.org/2000/svg">
<path d="M22 30H26" stroke="#07A169" stroke-width="3" stroke-linecap="round" stroke-linejoin="round"/>
<path d="M24 36V44" stroke="#07A169" stroke-width="3"/>
<path d="M16 44H32" stroke="#07A169" stroke-width="3" stroke-linecap="round"/>
<path d="M18 4.00195C12.7491 4.01865 9.913 4.17451 7.83782 5.62757C6.97782 6.22975 6.2298 6.97775 5.62764 7.83775C4 10.1623 4 13.4415 4 19.9999C4 26.5584 4 29.8376 5.62764 32.1622C6.2298 33.0222 6.97782 33.7702 7.83782 34.3724C10.1623 36 13.4415 36 20 36H28C34.5584 36 37.8376 36 40.1622 34.3724C41.0222 33.7702 41.7702 33.0222 42.3724 32.1622C43.8254 30.087 43.9812 27.2508 43.998 22" stroke="#07A169" stroke-width="3" stroke-linecap="round"/>
<path d="M39 8.29262L39.126 8.20172C41.2416 6.6742 42.2996 5.91044 43.1498 6.27922C44 6.648 44 7.8706 44 10.3158V11.6842C44 14.1294 44 15.352 43.1498 15.7208C42.2996 16.0896 41.2416 15.3258 39.126 13.7983L39 13.7074M31 18H32C35.2998 18 36.9498 18 37.9748 17.103C39 16.206 39 14.7624 39 11.875V10.125C39 7.23764 39 5.79398 37.9748 4.89698C36.9498 4 35.2998 4 32 4H31C27.7002 4 26.0502 4 25.0252 4.89698C24 5.79398 24 7.23764 24 10.125V11.875C24 14.7624 24 16.206 25.0252 17.103C26.0502 18 27.7002 18 31 18Z" stroke="#FFB800" stroke-width="3" stroke-linecap="round"/>
</svg>
