<svg width="48" height="48" viewBox="0 0 48 48" fill="none" xmlns="http://www.w3.org/2000/svg">
<path fill-rule="evenodd" clip-rule="evenodd" d="M24 6C14.0589 6 6 14.0589 6 24C6 33.9412 14.0589 42 24 42C33.9412 42 42 33.9412 42 24C42 22.1152 41.711 20.3016 41.1762 18.5993C40.8454 17.5455 41.4312 16.4229 42.485 16.0919C43.539 15.7609 44.6616 16.3469 44.9924 17.4007C45.6476 19.4865 46 21.704 46 24C46 36.1502 36.1502 46 24 46C11.8497 46 2 36.1502 2 24C2 11.8497 11.8497 2 24 2C26.4024 2 28.7188 2.38582 30.888 3.1004C31.9372 3.446 32.5074 4.57662 32.162 5.62574C31.8164 6.67486 30.6856 7.24518 29.6366 6.8996C27.866 6.31636 25.972 6 24 6Z" fill="#FFB800"/>
<path fill-rule="evenodd" clip-rule="evenodd" d="M24 16C19.5817 16 16 19.5817 16 24C16 28.4182 19.5817 32 24 32C28.4182 32 32 28.4182 32 24C32 22.8954 32.8954 22 34 22C35.1046 22 36 22.8954 36 24C36 30.6274 30.6274 36 24 36C17.3726 36 12 30.6274 12 24C12 17.3726 17.3726 12 24 12C25.1046 12 26 12.8954 26 14C26 15.1046 25.1046 16 24 16Z" fill="#07A169"/>
<path fill-rule="evenodd" clip-rule="evenodd" d="M39 2C40.1046 2 41 2.89544 41 4V7H44C45.1046 7 46 7.89544 46 9C46 10.1046 45.1046 11 44 11H39.8284L25.4141 25.4142C24.6331 26.1952 23.3668 26.1952 22.5857 25.4142C21.8047 24.6332 21.8047 23.3668 22.5857 22.5858L36.9999 8.17158V4C36.9999 2.89544 37.8954 2 39 2Z" fill="#07A169"/>
</svg>
