<svg width="50" height="39" viewBox="0 0 50 39" fill="none" xmlns="http://www.w3.org/2000/svg">
<path d="M27.3274 8.32031H40.9624V14.0324H23.374" stroke="#FFB800" stroke-width="1.5" stroke-miterlimit="10" stroke-linecap="round" stroke-linejoin="round"/>
<path d="M23.3103 9.75391V14.9508L22.0522 15.4101C19.7243 16.2598 17.171 16.2598 14.8431 15.4101L13.585 14.9508V9.75391" stroke="#07A169" stroke-width="1.5" stroke-miterlimit="10" stroke-linecap="round" stroke-linejoin="round"/>
<path d="M9.63477 8.29883V11.5088" stroke="#07A169" stroke-width="1.5" stroke-miterlimit="10" stroke-linecap="round" stroke-linejoin="round"/>
<path d="M18.4472 5.70508L9.63477 8.29943L18.4472 11.4072L27.2596 8.29943L18.4472 5.70508Z" stroke="#07A169" stroke-width="1.5" stroke-miterlimit="10" stroke-linecap="round" stroke-linejoin="round"/>
<path d="M9.63477 20.9746H32.8226" stroke="#07A169" stroke-width="1.5" stroke-miterlimit="10" stroke-linecap="round" stroke-linejoin="round"/>
<path d="M9.63477 25.248H27.1622" stroke="#07A169" stroke-width="1.5" stroke-miterlimit="10" stroke-linecap="round" stroke-linejoin="round"/>
<path d="M47.5671 31.8984H2.43295C1.64153 31.8984 1 32.54 1 33.3314V33.3391C1 35.9382 3.10691 38.0451 5.70596 38.0451H44.294C46.8931 38.0451 49 35.9382 49 33.3391V33.3314C49 32.54 48.3585 31.8984 47.5671 31.8984Z" stroke="#07A169" stroke-width="1.5" stroke-miterlimit="10" stroke-linecap="round" stroke-linejoin="round"/>
<path d="M45.9644 31.7015V3.28078C45.9644 2.02113 44.9433 1 43.6836 1H6.31789C5.05824 1 4.03711 2.02113 4.03711 3.28078V31.7015" stroke="#07A169" stroke-width="1.5" stroke-miterlimit="10" stroke-linecap="round" stroke-linejoin="round"/>
<path d="M37.4736 23.6406L40.7351 26.9021" stroke="#FFB800" stroke-width="1.5" stroke-miterlimit="10" stroke-linecap="round" stroke-linejoin="round"/>
<path d="M32.4241 19.4728L34.9579 26.9076C35.1722 27.5362 36.0617 27.5348 36.2739 26.9056L37.3999 23.5669L40.7385 22.441C41.3678 22.2288 41.3692 21.3392 40.7406 21.125L33.3058 18.5912C32.7599 18.405 32.2381 18.9268 32.4241 19.4728Z" stroke="#FFB800" stroke-width="1.5" stroke-miterlimit="10" stroke-linecap="round" stroke-linejoin="round"/>
</svg>
