<svg width="48" height="48" viewBox="0 0 48 48" fill="none" xmlns="http://www.w3.org/2000/svg">
<path d="M34 20.4994L34.2518 20.3484C38.4834 17.8091 40.5992 16.5394 42.2996 17.1525C44 17.7655 44 19.7979 44 23.8628V26.1374C44 30.2022 44 32.2346 42.2996 32.8476C40.5992 33.4606 38.4834 32.191 34.2518 29.6518L34 29.5006" stroke="#FFB800" stroke-width="3" stroke-linecap="round"/>
<path d="M9 43L17 35M21 35L29 43M19 35V45" stroke="#FFB800" stroke-width="3" stroke-linecap="round" stroke-linejoin="round"/>
<path d="M4 23.75C4 19.6252 4 17.5628 6.05026 16.2814C8.1005 15 11.4003 15 18 15H20C26.5996 15 29.8994 15 31.9498 16.2814C34 17.5628 34 19.6252 34 23.75V26.25C34 30.3748 34 32.4372 31.9498 33.7186C29.8994 35 26.5996 35 20 35H18C11.4003 35 8.1005 35 6.05026 33.7186C4 32.4372 4 30.3748 4 26.25V23.75Z" stroke="#07A169" stroke-width="3"/>
<path d="M25 15C27.7614 15 30 12.7614 30 10C30 7.23858 27.7614 5 25 5C22.2386 5 20 7.23858 20 10C20 12.7614 22.2386 15 25 15Z" stroke="#07A169" stroke-width="3"/>
<path d="M14 15C17.3137 15 20 12.3137 20 9C20 5.68629 17.3137 3 14 3C10.6863 3 8 5.68629 8 9C8 12.3137 10.6863 15 14 15Z" stroke="#07A169" stroke-width="3"/>
</svg>
