<svg width="48" height="48" viewBox="0 0 48 48" fill="none" xmlns="http://www.w3.org/2000/svg">
<path d="M30.895 10.7546C30.8018 10.7546 30.7096 10.736 30.6235 10.6999C30.5374 10.6638 30.4592 10.6109 30.3933 10.5442C30.3275 10.4775 30.2752 10.3984 30.2396 10.3112C30.2039 10.2241 30.1855 10.1307 30.1855 10.0364V7.70497C30.1905 7.51786 30.2673 7.34009 30.3998 7.20951C30.5323 7.07893 30.7098 7.00586 30.8947 7.00586C31.0796 7.00586 31.2572 7.07893 31.3897 7.20951C31.5221 7.34009 31.599 7.51786 31.6039 7.70497V10.0364C31.6039 10.2268 31.5293 10.4094 31.3963 10.5441C31.2634 10.6787 31.0831 10.7544 30.895 10.7546Z" fill="#3B4456"/>
<path d="M20.7791 25.9541C20.6376 25.9541 20.4992 25.9113 20.3819 25.8311C20.2646 25.7509 20.1736 25.637 20.1208 25.504C19.4629 23.8528 17.4963 22.9825 17.4778 22.9739C17.3897 22.9386 17.3095 22.8859 17.2419 22.8188C17.1743 22.7516 17.1207 22.6715 17.0842 22.5831C17.0477 22.4946 17.029 22.3997 17.0293 22.3038C17.0296 22.208 17.0488 22.1131 17.0859 22.0249C17.123 21.9367 17.1771 21.8569 17.2451 21.7902C17.3131 21.7235 17.3936 21.6713 17.4819 21.6366C17.5702 21.6019 17.6644 21.5854 17.7591 21.5882C17.8537 21.5909 17.9468 21.6128 18.033 21.6526C18.1331 21.6967 20.5553 22.757 21.4375 24.9668C21.5076 25.1432 21.5057 25.3406 21.4322 25.5156C21.3587 25.6906 21.2196 25.829 21.0455 25.9004C20.9615 25.9355 20.8715 25.9537 20.7806 25.9541H20.7791Z" fill="#07A169"/>
<path d="M27.21 25.9523C27.1193 25.9529 27.0294 25.9357 26.9452 25.9016C26.771 25.8303 26.632 25.6919 26.5585 25.5169C26.485 25.3419 26.4831 25.1445 26.5532 24.9681C27.4338 22.7583 29.8535 21.698 29.9577 21.6539C30.1297 21.585 30.3215 21.5868 30.4922 21.6591C30.663 21.7313 30.799 21.8682 30.8715 22.0406C30.9439 22.2129 30.9469 22.4071 30.8799 22.5817C30.813 22.7563 30.6813 22.8975 30.5129 22.9752C30.4819 22.9889 28.5268 23.8591 27.8699 25.5048C27.8168 25.6375 27.7258 25.751 27.6085 25.831C27.4912 25.9109 27.3529 25.9535 27.2115 25.9533L27.21 25.9523Z" fill="#07A169"/>
<path d="M23.9946 22.9763C23.9013 22.9763 23.8089 22.9577 23.7228 22.9215C23.6366 22.8853 23.5583 22.8323 23.4924 22.7654C23.4265 22.6986 23.3743 22.6192 23.3387 22.5319C23.3032 22.4446 23.285 22.3511 23.2852 22.2566L23.2907 18.1776C23.2956 17.9905 23.3724 17.8127 23.5049 17.6822C23.6374 17.5516 23.815 17.4785 23.9999 17.4785C24.1847 17.4785 24.3623 17.5516 24.4948 17.6822C24.6273 17.8127 24.7041 17.9905 24.709 18.1776L24.7035 22.2566C24.7037 22.351 24.6855 22.4445 24.65 22.5318C24.6145 22.6191 24.5623 22.6984 24.4965 22.7653C24.4306 22.8321 24.3524 22.8851 24.2663 22.9214C24.1802 22.9576 24.0878 22.9763 23.9946 22.9763Z" fill="#07A169"/>
<path d="M30.5902 33.0919C30.4428 33.0919 30.2991 33.0454 30.179 32.9589C30.0589 32.8724 29.9684 32.7502 29.9201 32.6093C29.8718 32.4683 29.868 32.3157 29.9093 32.1725C29.9506 32.0292 30.0349 31.9026 30.1506 31.8101C31.7132 30.5481 33.3822 29.427 35.1382 28.46C35.2206 28.4129 35.3114 28.383 35.4054 28.372C35.4994 28.3609 35.5946 28.3691 35.6854 28.3959C35.7762 28.4226 35.8609 28.4675 35.9343 28.5279C36.0077 28.5883 36.0685 28.663 36.113 28.7475C36.1575 28.832 36.1849 28.9246 36.1935 29.02C36.2021 29.1154 36.1918 29.2115 36.1631 29.3028C36.1345 29.3941 36.0881 29.4786 36.0267 29.5515C35.9653 29.6244 35.8901 29.684 35.8056 29.7271C34.124 30.6539 32.5258 31.7279 31.0292 32.9368C30.9043 33.037 30.7496 33.0916 30.5902 33.0919Z" fill="#07A169"/>
<path d="M43.7637 31.2855L42.5806 29.2111C42.3442 28.8002 41.957 28.5005 41.5034 28.3771C41.0498 28.2537 40.5664 28.3167 40.1584 28.5522L38.8747 29.3023C38.1632 28.6949 37.6797 27.8583 37.5054 26.9328C37.4403 26.6689 37.3172 26.4232 37.1453 26.2141C36.9734 26.005 36.7572 25.8378 36.5126 25.7251C36.2741 25.6136 36.0137 25.5581 35.751 25.5628C35.4884 25.5674 35.2301 25.6321 34.9956 25.7519C27.9417 29.3393 25.115 33.7655 24 36.4162C22.885 33.7655 20.0583 29.3393 13.002 25.7539C12.7674 25.634 12.509 25.5693 12.2462 25.5647C11.9835 25.56 11.723 25.6155 11.4844 25.7271C11.2398 25.8398 11.0234 26.007 10.8515 26.2163C10.6796 26.4255 10.5566 26.6713 10.4916 26.9354C10.3172 27.8609 9.8335 28.6975 9.12182 29.3048L7.84012 28.5522C7.43246 28.315 6.94854 28.2512 6.49447 28.3747C6.0404 28.4982 5.65325 28.799 5.41791 29.2111L4.23635 31.285C4.00192 31.6977 3.9388 32.1878 4.06082 32.6475C4.18283 33.1073 4.48003 33.4994 4.88721 33.7376L21.1087 43.2189C21.9884 43.7309 22.9853 44.0004 24 44.0004C25.0147 44.0004 26.0117 43.7309 26.8913 43.2189L43.1128 33.7371C43.52 33.4989 43.8172 33.107 43.9392 32.6473C44.0612 32.1876 43.9981 31.6982 43.7637 31.2855ZM35.6319 27.0373C35.6802 27.0144 35.7329 27.0029 35.7862 27.0035C35.8394 27.0041 35.8919 27.0169 35.9396 27.0408C35.9873 27.0648 36.0291 27.0993 36.0618 27.1419C36.0945 27.1844 36.1173 27.2339 36.1286 27.2866C36.3546 28.3271 36.8508 29.2876 37.566 30.0691L25.1906 37.3021C26.1138 34.9707 28.6932 30.5643 35.6319 27.0373ZM11.8715 27.2851C11.882 27.232 11.9044 27.182 11.937 27.139C11.9695 27.096 12.0114 27.0611 12.0594 27.0371C12.1073 27.013 12.1601 27.0003 12.2136 27.0001C12.2671 26.9999 12.32 27.0121 12.3681 27.0357C19.3073 30.5633 21.8862 34.9702 22.8099 37.3011L10.4326 30.0691C11.1479 29.2871 11.6441 28.3261 11.87 27.2851H11.8715ZM42.4064 32.4938L26.1849 41.9752C25.5211 42.3619 24.7686 42.5654 24.0028 42.5654C23.2369 42.5654 22.4844 42.3619 21.8206 41.9752L5.59515 32.4943C5.55478 32.4708 5.51941 32.4394 5.49104 32.4019C5.46267 32.3645 5.44187 32.3218 5.42983 32.2762C5.41778 32.2307 5.41473 32.1831 5.42085 32.1364C5.42697 32.0896 5.44213 32.0445 5.46548 32.0037L6.64804 29.9303C6.67047 29.8886 6.70103 29.852 6.73786 29.8226C6.7747 29.7933 6.81704 29.7718 6.86231 29.7595C6.90759 29.7473 6.95486 29.7444 7.00125 29.7512C7.04764 29.758 7.09218 29.7742 7.13218 29.799L23.6455 39.4491C23.754 39.5103 23.8761 39.5424 24.0003 39.5424C24.1244 39.5424 24.2465 39.5103 24.355 39.4491C27.744 37.4689 37.3517 31.8527 40.8684 29.7975C40.9498 29.7499 41.0465 29.737 41.1373 29.7616C41.2281 29.7862 41.3055 29.8463 41.3525 29.9287L42.5351 32.0022C42.5584 32.043 42.5736 32.0881 42.5797 32.1349C42.5858 32.1816 42.5828 32.2291 42.5707 32.2747C42.5587 32.3203 42.5379 32.363 42.5095 32.4004C42.4811 32.4378 42.4458 32.4692 42.4054 32.4928L42.4064 32.4938Z" fill="#07A169"/>
<path d="M17.0665 8.70459L19.7456 9.78161V13.3472C19.747 13.7395 19.902 14.1152 20.1766 14.392C20.4512 14.6689 20.823 14.8242 21.2105 14.8241H26.7884C27.1762 14.8241 27.5481 14.6684 27.8227 14.3911C28.0972 14.1139 28.2519 13.7377 28.2528 13.3452V9.78009L30.9314 8.70307C31.1296 8.62354 31.2996 8.48557 31.4194 8.30704C31.5392 8.1285 31.6033 7.91765 31.6033 7.70182C31.6033 7.48599 31.5392 7.27513 31.4194 7.0966C31.2996 6.91807 31.1296 6.78009 30.9314 6.70057L24.3902 4.07568C24.1386 3.97477 23.8584 3.97477 23.6067 4.07568L17.0665 6.70209C16.871 6.78425 16.704 6.92321 16.5865 7.10141C16.469 7.27961 16.4063 7.48907 16.4062 7.70334C16.4063 7.9176 16.469 8.12706 16.5865 8.30527C16.704 8.48347 16.871 8.62243 17.0665 8.70459ZM26.835 13.3472C26.8341 13.3589 26.8288 13.3699 26.8203 13.3779C26.8117 13.3859 26.8005 13.3903 26.7889 13.3903H21.2105C21.1989 13.3903 21.1877 13.3859 21.1791 13.3779C21.1706 13.3699 21.1653 13.3589 21.1645 13.3472V10.3498C21.4343 10.4278 23.7679 11.4739 23.9997 11.407C24.225 11.4765 26.5776 10.4243 26.837 10.3503L26.835 13.3472ZM23.9977 5.46288L29.5761 7.70309L27.258 8.63414H27.254L23.9997 9.9438L20.7344 8.63262L18.4208 7.70359L23.9977 5.46288Z" fill="#07A169"/>
<path d="M9.59729 20.3818L10.2912 20.4831C10.3481 20.4915 10.4021 20.5137 10.4485 20.5479C10.495 20.5821 10.5326 20.6271 10.5581 20.6793L10.866 21.3154C11.0124 21.6157 11.239 21.8685 11.52 22.0453C11.801 22.2221 12.1252 22.3158 12.4561 22.3158C12.7869 22.3158 13.1112 22.2221 13.3922 22.0453C13.6732 21.8685 13.8997 21.6157 14.0462 21.3154L14.3571 20.6783C14.3826 20.6262 14.4202 20.5812 14.4667 20.5472C14.5132 20.5131 14.5671 20.4909 14.6239 20.4826L15.3179 20.3813C15.643 20.3292 15.9477 20.1871 16.198 19.9707C16.4484 19.7543 16.6347 19.4719 16.7364 19.155C16.838 18.838 16.8511 18.4987 16.7741 18.1747C16.6971 17.8506 16.5331 17.5545 16.3002 17.319L15.7995 16.8248C15.7582 16.7843 15.7273 16.7341 15.7094 16.6788C15.6915 16.6234 15.6872 16.5645 15.6969 16.507L15.816 15.8071C15.8673 15.4783 15.8277 15.1415 15.7018 14.8339C15.5758 14.5264 15.3684 14.2601 15.1024 14.0644C14.8363 13.8687 14.522 13.7513 14.1942 13.725C13.8664 13.6987 13.5378 13.7647 13.2446 13.9156L12.6243 14.2455C12.39 14.4001 11.989 14.0545 11.673 13.9151C11.3797 13.7631 11.0506 13.6964 10.7221 13.7222C10.3935 13.7481 10.0785 13.8655 9.81189 14.0614C9.54526 14.2574 9.33743 14.5243 9.21145 14.8325C9.08547 15.1407 9.04625 15.4782 9.09813 15.8076L9.21679 16.5075C9.22668 16.5647 9.22273 16.6234 9.20529 16.6787C9.18785 16.7339 9.15744 16.7841 9.11666 16.8248L8.61599 17.3205C8.38303 17.5561 8.21902 17.8524 8.14212 18.1765C8.06521 18.5007 8.07841 18.84 8.18026 19.1571C8.2821 19.4741 8.46862 19.7564 8.71916 19.9727C8.96971 20.189 9.2745 20.331 9.5998 20.3828L9.59729 20.3818ZM9.6043 18.3484L10.105 17.8527C10.3111 17.6495 10.4653 17.3986 10.5543 17.1216C10.6433 16.8446 10.6643 16.5498 10.6156 16.2627L10.497 15.5633C10.4835 15.4963 10.4895 15.4268 10.5142 15.3632C10.5388 15.2995 10.5811 15.2444 10.636 15.2045C10.6908 15.1646 10.7559 15.1417 10.8233 15.1383C10.8908 15.135 10.9577 15.1514 11.0162 15.1857L11.6365 15.5152C11.8911 15.6513 12.1747 15.7224 12.4626 15.7224C12.7505 15.7224 13.0341 15.6513 13.2887 15.5152L13.9085 15.1857C13.9669 15.153 14.0333 15.1378 14.0999 15.142C14.1665 15.1462 14.2306 15.1695 14.2845 15.2093C14.3385 15.2491 14.3801 15.3036 14.4045 15.3665C14.4289 15.4294 14.435 15.498 14.4222 15.5643L14.303 16.2643C14.2544 16.551 14.2754 16.8454 14.3641 17.1221C14.4528 17.3988 14.6065 17.6495 14.8122 17.8527L15.3129 18.3484C15.3591 18.3952 15.3917 18.4541 15.4069 18.5186C15.4221 18.583 15.4194 18.6504 15.3991 18.7134C15.3787 18.7764 15.3416 18.8324 15.2917 18.8754C15.2419 18.9183 15.1813 18.9464 15.1166 18.9566L14.4227 19.0579C14.1382 19.0997 13.868 19.211 13.6354 19.382C13.4028 19.553 13.2147 19.7787 13.0874 20.0397L12.777 20.6762C12.7478 20.7365 12.7025 20.7872 12.6463 20.8226C12.59 20.8581 12.5251 20.8769 12.4588 20.8769C12.3926 20.8769 12.3276 20.8581 12.2714 20.8226C12.2152 20.7872 12.1699 20.7365 12.1407 20.6762L11.8313 20.0417C11.7039 19.781 11.5159 19.5555 11.2833 19.3847C11.0508 19.2138 10.7808 19.1028 10.4965 19.061L9.80257 18.9596C9.73607 18.9516 9.67322 18.9245 9.62146 18.8815C9.5697 18.8385 9.53119 18.7814 9.51049 18.717C9.48979 18.6525 9.48777 18.5834 9.50466 18.5178C9.52155 18.4522 9.55665 18.3929 9.60581 18.3468L9.6043 18.3484Z" fill="#FFAF00"/>
<path d="M36.3717 21.5943C37.31 21.5932 38.2096 21.2154 38.8731 20.5437C39.5366 19.8721 39.9098 18.9614 39.9109 18.0115C39.7166 13.2589 33.0268 13.2594 32.833 18.0115C32.8339 18.9614 33.207 19.872 33.8705 20.5437C34.5339 21.2154 35.4334 21.5932 36.3717 21.5943ZM36.3717 15.8671C36.934 15.8671 37.4733 16.0932 37.871 16.4958C38.2686 16.8983 38.492 17.4443 38.492 18.0135C38.492 18.5828 38.2686 19.1288 37.871 19.5313C37.4733 19.9338 36.934 20.16 36.3717 20.16C35.8091 20.16 35.2695 19.9337 34.8717 19.531C34.4739 19.1283 34.2504 18.5821 34.2504 18.0125C34.2504 17.443 34.4739 16.8968 34.8717 16.494C35.2695 16.0913 35.8091 15.8651 36.3717 15.8651V15.8671Z" fill="#FFAF00"/>
</svg>
