<svg width="48" height="48" viewBox="0 0 48 48" fill="none" xmlns="http://www.w3.org/2000/svg">
<path d="M8.44444 43.9896V36.8902C8.44444 34.3474 7.77854 33.0256 6.46964 30.8156C4.9006 28.1666 4 25.075 4 21.7732C4 11.9573 11.9594 4 21.7778 4C31.5962 4 39.5556 11.9573 39.5556 21.7732C39.5556 22.9326 39.5556 23.5124 39.604 23.8374C39.7196 24.6144 40.0822 25.2828 40.4388 25.9746L44 32.8814L41.2012 34.2804C40.39 34.6858 39.9846 34.8886 39.702 35.2628C39.4194 35.6368 39.34 36.0592 39.1808 36.9038L39.1652 36.9862C38.8008 38.9212 38.3986 41.0572 37.2658 42.4048C36.8658 42.8806 36.3706 43.2672 35.8118 43.5398C34.8894 43.9896 33.7554 43.9896 31.4874 43.9896C30.438 43.9896 29.3856 44.0138 28.3364 43.9884C25.8494 43.9278 24 41.8368 24 39.4088" stroke="#07A169" stroke-width="3" stroke-linecap="round" stroke-linejoin="round"/>
<path d="M28.776 21.063C27.9234 21.063 27.1458 20.7404 26.5568 20.2096M28.776 21.063C28.776 23.3548 27.4482 25.5316 24.8922 25.5316C22.3362 25.5316 21.0086 27.7082 21.0086 30M28.776 21.063C33.0746 21.063 33.0746 14.3603 28.776 14.3603C28.3854 14.3603 28.0106 14.4281 27.6624 14.5525C27.8724 9.55638 20.6698 8.2 19.0385 12.8804M19.0385 12.8804C20.2266 13.6822 21.0086 15.0465 21.0086 16.5946M19.0385 12.8804C15.3348 10.3807 10.3977 14.8662 12.7465 18.8655C8.80451 19.4565 9.22597 25.5316 13.241 25.5316C14.3669 25.5316 15.3622 24.9688 15.9647 24.1076" stroke="#FFB800" stroke-width="3" stroke-linecap="round" stroke-linejoin="round"/>
</svg>
