<svg width="48" height="48" viewBox="0 0 48 48" fill="none" xmlns="http://www.w3.org/2000/svg">
<path d="M36 12L33 15" stroke="#FFAF00" stroke-width="3" stroke-linecap="round" stroke-linejoin="round"/>
<path d="M24 40L22 42" stroke="#FFAF00" stroke-width="3" stroke-linecap="round" stroke-linejoin="round"/>
<path d="M8 24L6 26" stroke="#FFAF00" stroke-width="3" stroke-linecap="round" stroke-linejoin="round"/>
<path d="M16 20.3334L24.2464 12.0869C26.4962 9.83716 27.621 8.71228 28.8624 7.80628C31.4094 5.9474 34.3636 4.72374 37.479 4.23716C38.9976 4 40.5884 4 43.77 4C43.9362 4 44 4.07624 44 4.23008C44 7.41168 44 9.0025 43.7628 10.5209C43.2762 13.6364 42.0526 16.5905 40.1938 19.1376C39.2878 20.379 38.1628 21.5038 35.9132 23.7536L27.6666 32" stroke="#07A169" stroke-width="3" stroke-linecap="round" stroke-linejoin="round"/>
<path d="M20.682 16.1968C17.2762 16.1968 12.9956 15.4753 9.8086 16.7954C7.47342 17.7626 5.75508 20.0024 4 21.7574L10.6119 24.591C12.3642 25.342 11.293 27.5532 11.0029 29.0036C10.6797 30.6198 10.6977 30.6794 11.8632 31.8448L16.1552 36.1368C17.3206 37.3022 17.3802 37.3204 18.9963 36.997C20.4468 36.707 22.658 35.6358 23.4088 37.388L26.2426 44C27.9976 42.245 30.2374 40.5266 31.2046 38.1914C32.5248 35.0044 31.8032 30.7238 31.8032 27.318" stroke="#07A169" stroke-width="3" stroke-linejoin="round"/>
<path d="M28 8C35.7046 8.22852 39.7836 12.7072 40 20" stroke="#07A169" stroke-width="3" stroke-linejoin="round"/>
</svg>
