<svg width="48" height="48" viewBox="0 0 48 48" fill="none" xmlns="http://www.w3.org/2000/svg">
<path d="M32.3494 27.2515C32.1938 27.2515 32.0412 27.2093 31.9077 27.1293C31.7742 27.0493 31.665 26.9346 31.5917 26.7973C31.5183 26.6601 31.4836 26.5055 31.4913 26.3501C31.4989 26.1947 31.5486 26.0443 31.6351 25.9149C31.7215 25.7856 31.8415 25.6821 31.9822 25.6156C32.1228 25.5491 32.2789 25.5221 32.4337 25.5374C32.5886 25.5527 32.7363 25.6097 32.8613 25.7025C32.9862 25.7952 33.0836 25.9201 33.1431 26.0639C33.1964 26.1944 33.2169 26.3361 33.2028 26.4764C33.1886 26.6167 33.1402 26.7514 33.0618 26.8686C32.9835 26.9859 32.8775 27.0821 32.7533 27.1489C32.6291 27.2156 32.4904 27.2508 32.3494 27.2515Z" fill="#FFAF00"/>
<path d="M20.2394 18.3742H25.1905C23.5233 18.3724 21.925 17.7092 20.7462 16.5303C19.5674 15.3513 18.9043 13.7528 18.9024 12.0856C18.9016 10.4042 19.5661 8.79081 20.7507 7.59777C21.3272 7.00312 22.0172 6.53034 22.7798 6.20747C23.5424 5.8846 24.3621 5.71823 25.1902 5.71823C26.0183 5.71823 26.838 5.8846 27.6006 6.20747C28.3633 6.53034 29.0532 7.00312 29.6297 7.59777C30.8146 8.79106 31.4791 10.4049 31.478 12.0866C31.4761 13.7539 30.8131 15.3523 29.6342 16.5313C28.4554 17.7102 26.8571 18.3734 25.1899 18.3753H30.141C31.0304 17.6725 31.761 16.7896 32.2852 15.7845C32.8093 14.7794 33.1151 13.6749 33.1824 12.5433C33.2496 11.4117 33.0769 10.2787 32.6756 9.21861C32.2743 8.15848 31.6534 7.1952 30.8536 6.39194C30.1173 5.635 29.2367 5.03334 28.2639 4.6225C27.2912 4.21167 26.2459 4 25.1899 4C24.134 4 23.0887 4.21167 22.116 4.6225C21.1432 5.03334 20.2626 5.635 19.5263 6.39194C18.7265 7.19523 18.1057 8.15855 17.7044 9.21869C17.3031 10.2788 17.1305 11.4118 17.1978 12.5434C17.2651 13.675 17.5709 14.7795 18.0951 15.7846C18.6193 16.7896 19.35 17.6725 20.2394 18.3753V18.3742Z" fill="#07A169"/>
<path d="M25.1899 15.3277C24.5484 15.3277 23.9213 15.1375 23.3879 14.781C22.8544 14.4246 22.4387 13.9179 22.1932 13.3252C21.9477 12.7324 21.8835 12.0802 22.0086 11.4509C22.1338 10.8217 22.4427 10.2436 22.8963 9.78997C23.35 9.3363 23.9279 9.02734 24.5571 8.90218C25.1863 8.77701 25.8385 8.84125 26.4312 9.08678C27.0239 9.3323 27.5305 9.74808 27.8869 10.2815C28.2433 10.815 28.4335 11.4422 28.4335 12.0838C28.4335 12.9441 28.0918 13.7692 27.4835 14.3776C26.8752 14.986 26.0502 15.3277 25.1899 15.3277ZM25.1899 10.5632C24.8887 10.5632 24.5942 10.6525 24.3438 10.8199C24.0933 10.9872 23.8981 11.2251 23.7829 11.5034C23.6676 11.7818 23.6374 12.088 23.6962 12.3835C23.755 12.6789 23.9 12.9503 24.113 13.1633C24.326 13.3763 24.5974 13.5214 24.8928 13.5802C25.1882 13.639 25.4944 13.6088 25.7727 13.4935C26.051 13.3782 26.2889 13.183 26.4562 12.9325C26.6236 12.682 26.7129 12.3876 26.7129 12.0863C26.713 11.6821 26.5527 11.2943 26.2671 11.0083C25.9816 10.7222 25.5941 10.5612 25.1899 10.5607V10.5632Z" fill="#07A169"/>
<path d="M40.7554 25.5239H39.8781C39.4941 24.043 38.8424 22.6449 37.9552 21.3985L41.3306 17.4075C41.469 17.2424 41.5406 17.0315 41.5312 16.8163C41.5218 16.601 41.4322 16.3971 41.2799 16.2447C40.4591 15.4226 39.4003 14.8797 38.2536 14.693C37.107 14.5063 35.9307 14.6853 34.8915 15.2046L33.8469 15.7262C33.4415 15.5093 33.0234 15.3081 32.5966 15.1225C32.3771 15.6562 32.1004 16.1645 31.7715 16.6386C32.3301 16.8746 32.8743 17.1432 33.4015 17.443C33.5244 17.513 33.6627 17.5516 33.8041 17.5555C33.9455 17.5594 34.0857 17.5284 34.2124 17.4653L35.6619 16.7425C36.2585 16.4444 36.9229 16.3078 37.5888 16.3465C38.2546 16.3852 38.8988 16.5978 39.4569 16.963L36.2011 20.8126C36.073 20.9648 36.0015 21.1566 35.9987 21.3555C35.996 21.5545 36.0621 21.7482 36.1859 21.9039C37.2696 23.2594 38.0135 24.8544 38.3556 26.5559C38.3957 26.7496 38.5013 26.9237 38.6546 27.0487C38.8079 27.1738 38.9996 27.2423 39.1974 27.2427H40.7549C41.1586 27.2432 41.5457 27.4039 41.8312 27.6894C42.1167 27.9749 42.2773 28.362 42.2778 28.7658V31.1481C42.2773 31.5519 42.1167 31.939 41.8312 32.2245C41.5457 32.5101 41.1586 32.6707 40.7549 32.6712C40.5521 32.6712 38.7656 32.6712 38.4509 32.6849C38.2897 32.692 38.1338 32.7441 38.0008 32.8354C37.8679 32.9267 37.7632 33.0536 37.6987 33.2014C36.9328 34.9673 35.7322 36.5103 34.2088 37.6867C34.1031 37.7664 34.0172 37.8695 33.9578 37.9878C33.8984 38.1061 33.8671 38.2365 33.8662 38.3689C33.8662 38.6472 33.8632 39.7106 33.8616 40.7628C33.8563 41.0645 33.7632 41.358 33.5938 41.6076C33.4243 41.8572 33.1859 42.052 32.9076 42.1683C32.6292 42.2846 32.3231 42.3172 32.0264 42.2624C31.7298 42.2075 31.4556 42.0674 31.2373 41.8592C31.1024 41.7249 30.9955 41.5651 30.9228 41.3892C30.8501 41.2133 30.813 41.0247 30.8136 40.8343C30.8136 40.3366 30.8136 39.9412 30.8136 39.8094C30.8133 39.6611 30.7747 39.5154 30.7016 39.3864C30.6285 39.2574 30.5233 39.1494 30.3963 39.073C30.2692 38.9965 30.1246 38.9542 29.9763 38.95C29.8281 38.9458 29.6813 38.98 29.5502 39.0491C27.5888 40.1703 22.7892 40.1708 20.8263 39.0491C20.6952 38.9801 20.5484 38.946 20.4003 38.9503C20.2521 38.9545 20.1076 38.9969 19.9806 39.0733C19.8536 39.1498 19.7485 39.2577 19.6754 39.3866C19.6023 39.5156 19.5637 39.6612 19.5633 39.8094V40.8368C19.5629 41.2209 19.4102 41.5892 19.1386 41.8607C18.8671 42.1323 18.4989 42.2851 18.1148 42.2855C17.9088 42.2951 17.7029 42.263 17.5096 42.191C17.3163 42.119 17.1395 42.0087 16.9899 41.8667C16.8403 41.7246 16.721 41.5538 16.6391 41.3645C16.5571 41.1751 16.5144 40.9712 16.5133 40.7649C16.5133 39.6285 16.5092 38.4201 16.5072 37.9771C16.5064 37.8358 16.4709 37.6968 16.4037 37.5724C16.3365 37.448 16.2398 37.3421 16.122 37.264C7.62425 31.6104 9.29674 20.4862 18.6049 16.6355C18.2772 16.1624 18.0014 15.6553 17.7824 15.123C12.2439 17.5302 8.74228 22.425 8.84922 27.8134C8.11177 27.6515 7.43493 27.2849 6.89646 26.7556C6.52514 26.399 6.22947 25.9712 6.0271 25.4979C5.82474 25.0245 5.71982 24.5151 5.71862 24.0003C5.70279 23.7832 5.60538 23.5801 5.44598 23.4319C5.28657 23.2837 5.07697 23.2013 4.85931 23.2013C4.64165 23.2013 4.43205 23.2837 4.27264 23.4319C4.11323 23.5801 4.01583 23.7832 4 24.0003C4.02065 25.3797 4.53998 26.705 5.46196 27.7311C6.38394 28.7573 7.64623 29.4149 9.01546 29.5824C9.34812 31.365 10.0298 33.0643 11.0214 34.5826C12.0129 36.1008 13.2947 37.4081 14.7932 38.4292C14.7932 39.0086 14.7962 39.9068 14.7977 40.7639C14.93 44.8593 20.8106 45.1624 21.2754 41.0766C23.8363 41.7931 26.5447 41.7931 29.1057 41.0766C29.1719 41.884 29.5433 42.6358 30.1441 43.179C30.745 43.7222 31.5303 44.0161 32.3402 44.0007C33.1991 44 34.0227 43.659 34.6307 43.0522C35.2387 42.4454 35.5814 41.6223 35.5838 40.7633C35.5838 40.0157 35.5838 39.2625 35.5868 38.7906C37.0392 37.5894 38.2172 36.0907 39.0413 34.3956C39.5284 34.392 40.242 34.3905 40.7564 34.3905C41.6166 34.3905 42.4417 34.0488 43.05 33.4404C43.6583 32.832 44 32.0069 44 31.1466V28.7643C44 27.904 43.6583 27.0789 43.05 26.4705C42.4417 25.8621 41.6166 25.5204 40.7564 25.5204L40.7554 25.5239Z" fill="#FFAF00"/>
<path d="M31.146 20.0902H19.2358C19.1176 20.0988 18.999 20.083 18.8873 20.0437C18.7756 20.0044 18.6732 19.9425 18.5864 19.8619C18.4997 19.7812 18.4305 19.6836 18.3832 19.575C18.3359 19.4664 18.3115 19.3492 18.3115 19.2308C18.3115 19.1124 18.3359 18.9952 18.3832 18.8866C18.4305 18.7781 18.4997 18.6804 18.5864 18.5998C18.6732 18.5191 18.7756 18.4572 18.8873 18.4179C18.999 18.3786 19.1176 18.3628 19.2358 18.3714H31.146C31.2641 18.3628 31.3827 18.3786 31.4944 18.4179C31.6061 18.4572 31.7085 18.5191 31.7953 18.5998C31.882 18.6804 31.9512 18.7781 31.9985 18.8866C32.0458 18.9952 32.0702 19.1124 32.0702 19.2308C32.0702 19.3492 32.0458 19.4664 31.9985 19.575C31.9512 19.6836 31.882 19.7812 31.7953 19.8619C31.7085 19.9425 31.6061 20.0044 31.4944 20.0437C31.3827 20.083 31.2641 20.0988 31.146 20.0902Z" fill="#FFAF00"/>
</svg>
