<svg width="48" height="48" viewBox="0 0 48 48" fill="none" xmlns="http://www.w3.org/2000/svg">
<path d="M5 12L16 8L27 12L22 15V18C22 18 20.6666 17 16 17C11.3333 17 10 18 10 18V15L5 12ZM5 12V20" stroke="#07A169" stroke-width="3" stroke-linecap="round" stroke-linejoin="round"/>
<path d="M22 17V18.7778C22 22.2142 19.3137 25 16 25C12.6863 25 10 22.2142 10 18.7778V17" stroke="#07A169" stroke-width="3" stroke-linecap="round" stroke-linejoin="round"/>
<path d="M30.6364 22.0588C30.6364 22.0588 31.606 21.353 35 21.353C38.394 21.353 39.3636 22.0588 39.3636 22.0588M30.6364 22.0588V20L27 18L35 15L43 18L39.3636 20V22.0588M30.6364 22.0588V22.6364C30.6364 25.0464 32.59 27 35 27C37.41 27 39.3636 25.0464 39.3636 22.6364V22.0588" stroke="#07A169" stroke-width="3" stroke-linecap="round" stroke-linejoin="round"/>
<path d="M8.7701 31.852C6.88374 32.905 1.93782 35.0553 4.95022 37.7459C6.42174 39.0601 8.06066 40.0001 10.1212 40.0001H21.8788C23.9394 40.0001 25.5782 39.0601 27.0498 37.7459C30.0622 35.0553 25.1162 32.905 23.2298 31.852C18.8064 29.3827 13.1936 29.3827 8.7701 31.852Z" stroke="#FFB800" stroke-width="3" stroke-linecap="round" stroke-linejoin="round"/>
<path d="M32 40H39.4096C40.955 40 42.1842 39.248 43.2878 38.1966C45.5472 36.0442 41.8378 34.324 40.423 33.4816C37.8724 31.9628 34.7944 31.6118 32 32.4282" stroke="#FFB800" stroke-width="3" stroke-linecap="round" stroke-linejoin="round"/>
</svg>
