<svg width="48" height="48" viewBox="0 0 48 48" fill="none" xmlns="http://www.w3.org/2000/svg">
<path d="M44.0011 13.5805C44.0011 18.8724 39.5095 23.1631 33.9703 23.1631C33.3189 23.1639 32.6695 23.1037 32.0297 22.9837C31.5691 22.8973 31.3387 22.8543 31.1781 22.8787C31.0173 22.9031 30.7895 23.0241 30.3339 23.2661C29.0451 23.9505 27.5423 24.1923 26.0971 23.9239C26.6463 23.2491 27.0215 22.4397 27.1871 21.5717C27.2873 21.0409 27.0389 20.5253 26.6667 20.1479C24.9759 18.4334 23.9395 16.1231 23.9395 13.5805C23.9395 8.28867 28.4309 3.99805 33.9703 3.99805C39.5095 3.99805 44.0011 8.28867 44.0011 13.5805Z" stroke="#FFB800" stroke-width="3" stroke-linejoin="round"/>
<path d="M30.9473 14.0156H30.9635M36.9657 14.0156H36.9821" stroke="#FFB800" stroke-width="3" stroke-linecap="round"/>
<path d="M20.4357 24.6497C20.4357 27.7483 17.9643 30.2603 14.9156 30.2603C11.8669 30.2603 9.39551 27.7483 9.39551 24.6497C9.39551 21.5509 11.8669 19.0391 14.9156 19.0391C17.9643 19.0391 20.4357 21.5509 20.4357 24.6497Z" stroke="#07A169" stroke-width="3"/>
<path d="M25.2265 39.0306C17.5099 33.0242 9.76293 34.6094 4.60705 39.1074C3.82491 39.7896 3.79719 40.9936 4.53191 41.7264C5.41341 42.6058 6.40615 43.3538 7.99741 43.9038C8.19143 43.971 8.39663 44.0012 8.60195 44.0012H21.2335C21.4623 44.0012 21.6901 43.9634 21.9041 43.882C23.2715 43.3626 24.3783 42.704 25.4591 41.5834C26.1723 40.8442 26.0375 39.6618 25.2265 39.0306Z" stroke="#07A169" stroke-width="3"/>
</svg>
