<svg height="512pt" viewBox="0 -27 512.00007 512" width="512pt" xmlns="http://www.w3.org/2000/svg"><path d="m509.324219 28.898438c-.128907-1.832032-1.640625-3.257813-3.480469-3.285157l-98.277344-1.269531c-.945312-.027344-1.851562.351562-2.523437 1.015625-.671875.660156-1.054688 1.5625-1.058594 2.503906-.039063 9.398438.171875 18.777344.375 27.851563.175781 7.789062.347656 15.8125.367187 23.84375l-79.851562 1.378906c1.734375-25.765625 3.574219-51.484375 5.535156-77.132812.078125-1.007813-.28125-2-.980468-2.726563-.703126-.726563-1.679688-1.109375-2.691407-1.078125l-101.796875 4.238281c-1.867187.078125-3.351562 1.59375-3.390625 3.460938l-2.289062 114.148437-69.738281.078125 1.625-42.734375c.039062-.957031-.3125-1.882812-.972657-2.574218-.65625-.691407-1.566406-1.085938-2.523437-1.097657l-58.945313-.597656 1.296875-43.574219c.03125-.980468-.347656-1.929687-1.046875-2.617187-.695312-.691407-1.636719-1.066407-2.628906-1.019531-11.261719.457031-22.664063 1.378906-33.6875 2.269531-10.957031.882812-22.289063 1.800781-33.40625 2.25-1.953125.078125-3.46875 1.722656-3.390625 3.675781.015625.355469.097656.691406.210938 1.011719 0 .015625-.007813.03125-.007813.050781l-16.04296875 415.53125c-.03906245.957031.31640575 1.890625.98046875 2.582031.664063.691407 1.578125 1.085938 2.539063 1.085938l489.171874 1.65625.824219.003906h.011719c1.890625 0 3.449219-1.484375 3.53125-3.375l6.984375-154.761719c.871094-19.355468 1.910156-39.035156 2.910156-58.070312 1.632813-30.96875 3.320313-62.996094 4.347657-94.53125 1.367187-41.734375.71875-80.394532-1.980469-118.191406zm-6.824219 3.742187c1.359375 19.921875 2.140625 40.109375 2.363281 60.882813l-93.617187.015624.449218-9.324218c.0625-.261719.105469-.53125.105469-.8125.042969-9.398438-.167969-18.777344-.375-27.847656-.175781-7.875-.355469-15.980469-.375-24.097657zm-9.273438 350.050781-95.824218-1.585937.933594-19.414063 95.875-.835937zm-483.238281-5.574218 62.648438.058593-.59375 19.917969-62.730469-2.492188zm76.453125-226.066407 54.957032-1.4375-7.675782 201.90625c-7.507812-6.519531-17.503906-10.1875-27.460937-9.792969-9.574219.367188-18.90625 4.472657-25.824219 11.082032zm51.722656 269.726563c8.613282.464844 17.265626.707031 25.921876.707031 12.429687 0 24.867187-.488281 37.210937-1.441406l-.457031 7.546875c-.089844-.007813-.179688-.019532-.277344-.015625-20.796875.597656-41.847656.402343-62.636719-.566407zm71.761719-26.492188 92.445313 2.523438c-.09375 3.058594-.175782 6.117187-.265625 9.175781-.054688-.003906-.105469-.015625-.160157-.019531l-92.597656-2.097656zm93.089844-17.667968c-7.410156 1.101562-14.941406 1.269531-22.394531.472656-2.683594-.289063-5.503906-.710938-7.90625-1.847656-2.238282-1.054688-3.871094-2.691407-4.480469-4.480469-.558594-1.652344-.105469-3.597657 1.035156-4.429688.449219-.324219 1.195313-.441406 1.851563-.28125.464844.113281.824218.34375.960937.617188.878907 1.742187 3.003907 2.449219 4.746094 1.570312 1.746094-.878906 2.449219-3.003906 1.570313-4.746093-1.074219-2.136719-3.121094-3.707032-5.617188-4.3125-2.679688-.644532-5.550781-.109376-7.679688 1.445312-3.609374 2.632812-5.109374 7.855469-3.558593 12.410156 1.21875 3.59375 4.191406 6.730469 8.148437 8.597656 3.363282 1.589844 7.03125 2.148438 10.175782 2.484376 3.371093.363281 6.757812.542968 10.144531.542968 4.269531 0 8.535156-.304687 12.773437-.878906-.066406 1.988281-.128906 3.972656-.191406 5.960938l-92.246094-2.515626.351563-5.84375 22.75 1.183594c1.402343.074219 2.910156.152344 4.476562.152344 3.347657 0 6.957031-.359375 10.308594-1.898438 5.359375-2.460937 9.722656-8.742187 7.746094-14.984374-1.324219-4.175782-5.308594-7.175782-9.691407-7.289063-4.410156-.132813-8.511718 2.671875-10.050781 6.773437-.6875 1.828126.238281 3.867188 2.066407 4.550782 1.824218.6875 3.863281-.238282 4.550781-2.066406.472656-1.265626 1.878906-2.234376 3.25-2.191407 1.347656.035157 2.726562 1.070313 3.132812 2.359375.753907 2.371094-1.480469 5.289063-3.953125 6.425782-3.34375 1.53125-7.660156 1.308593-11.46875 1.109374l-22.695312-1.179687 14.613281-243.035156c.261719-.484375.429687-1.03125.4375-1.617188l1.335937-66.535156c4.3125-.449219 7.914063-1.074219 11.394532-1.679687 3.582031-.621094 6.960937-1.207032 11.128906-1.636719 3.339844-.339844 6.277344-.527344 8.332031.652343 1.46875.84375 2.492188 2.546876 2.535157 4.242188.046874 1.695312-.875 3.453125-2.296876 4.378906-1.039062.671875-2.351562.890625-3.347656.550782-.851562-.289063-1.578125-1.113282-1.652344-1.875-.183593-1.941407-1.902343-3.367188-3.851562-3.183594-1.945312.1875-3.371094 1.910156-3.183594 3.855468.335938 3.535157 2.917969 6.710938 6.417969 7.898438 1.054687.359375 2.167969.535156 3.292969.535156 2.128906 0 4.296875-.632812 6.175781-1.855468 3.464844-2.246094 5.628906-6.371094 5.511719-10.5-.113282-4.128907-2.503906-8.125-6.085938-10.175782-4.191406-2.40625-9.03125-1.914062-12.566406-1.550781-4.414062.449219-8.078125 1.085937-11.621094 1.703125-3.261718.566406-6.363281 1.101562-10.042968 1.515625l.257812-12.820313 92.578125-1.035156c-.1875 2.570313-.367187 5.140625-.550781 7.710938l-22.367188.746094c-3.792968.128906-8.089844.269531-12.195312 1.519531-5.003906 1.519531-8.902344 4.496093-10.980469 8.382812-2.773437 5.183594-1.753906 11.789063 2.371094 15.355469 1.839843 1.59375 4.269531 2.453125 6.785156 2.449219.757813 0 1.523437-.074219 2.28125-.234375 3.027344-.628906 5.46875-2.46875 6.699219-5.039063.84375-1.761719.097656-3.871093-1.664063-4.714843s-3.871093-.097657-4.714843 1.664062c-.382813.804688-1.359376 1.085938-1.761719 1.171875-1.109375.230469-2.285157-.019531-3-.640625-1.632813-1.414062-1.976563-4.410156-.761719-6.679688 1.167969-2.1875 3.648438-3.992187 6.800781-4.949218 3.214844-.976563 6.855469-1.097656 10.375-1.214844l21.628907-.722656c-7.429688 106.148437-12.925782 213.203125-16.414063 319.652344zm17.976563-341.53125-92.9375 1.035156.117187-5.976563 93.386719-2.71875c-.1875 2.550781-.382813 5.101563-.566406 7.660157zm-119.269532 377.839843c-20.980468 1.667969-42.257812 1.925781-63.289062.785157l9.34375-245.746094 68.625.84375zm-60.054687-270.390625-55.015625 1.4375.308594-10.421875 53.90625-.121093c.40625 0 .789062-.082032 1.152343-.210938zm-60.523438-51.015625-60.21875 2.367188.808594-20.910157 60.023437-2.160156zm-60.492187 9.449219 60.277344-2.367188-8.082032 271.503907-62.585937-.058594zm57 345.308594 2.453125-82.394532c.335937-.238281.648437-.519531.890625-.882812 5.652344-8.378906 15.433594-13.824219 25.535156-14.210938 10.085938-.386718 20.273438 4.300782 26.542969 12.226563.085937.105469.183593.1875.277343.285156l-3.347656 88.03125c-.003906.066407.007813.128907.011719.195313l-54.367187-.183594c1.148437-.554688 1.964843-1.703125 2.003906-3.066406zm60.121094-15.238282c12.921874.601563 25.941406.917969 38.945312.917969 7.976562 0 15.949219-.113281 23.878906-.34375l-1.050781 17.515625c-.015625.21875 0 .429688.023437.636719l-62.5-.214844zm68.828124 18.515626 2.503907-41.652344 92.75 2.101562h.046875c.027344 0 .058594-.007812.085937-.007812-.386719 13.382812-.75 26.753906-1.070312 40.109375l-94.351563-.320313c.007813-.078125.03125-.152344.035156-.230468zm102.261719-32.742188 79.226563 1.375h.066406c.128906 0 .257812-.023438.382812-.039062l-1.550781 32.25-79-.265626c.265625-11.097656.5625-22.207031.875-33.320312zm80.011719-5.617188c-.214844-.042968-.433594-.074218-.660156-.078124l-79.148438-1.371094c2.523438-87.375 6.410156-175.265625 11.625-262.835938 11.53125 7.027344 24.972656 10.828125 38.484375 10.828125.390625 0 .78125 0 1.171875-.007812 14.75-.238281 29.332032-5.023438 41.382813-13.523438zm13.242188-274.996093c-.828126-.054688-1.671876.164062-2.382813.707031-11.273437 8.640625-25.300781 13.527344-39.5 13.757812-13.863281.25-27.667969-3.988281-39.054687-11.871093.324218-5.351563.652343-10.707031.988281-16.058594 12.003906 5.019531 25.070312 7.519531 38.144531 7.519531 14.671875 0 29.347656-3.148437 42.542969-9.394531zm2.382812-49.566407-1.257812 26.15625c-.039063.019532-.082032.03125-.125.050782-24.492188 12.910156-55.261719 13.804687-80.484376 2.386718.574219-9.074218 1.160157-18.148437 1.765626-27.214843zm-81.4375-79.402343c-.410156 5.375-.804688 10.761719-1.203125 16.144531l-93.605469 2.726562.300782-14.9375zm-104.261719 121.683593-1.976562 32.828126-68.78125-.847657 1.214843-31.902343zm-74.851562-46.363281-1.675781 44.105469c-.433594-.1875-.910157-.296875-1.414063-.296875 0 0-.003906 0-.007813 0l-53.679687.121094 1.328125-44.496094zm-90.738281-45.527343c9.714843-.785157 19.722656-1.59375 29.617187-2.082032l-.859375 28.792969-59.960938 2.160156 1.03125-26.777343c10.113282-.492188 20.289063-1.296876 30.171876-2.09375zm-44.171876 364.640624 62.796876 2.496094-1.25 41.90625c-.042969 1.425782.773437 2.671875 1.972656 3.265625l-65.351563-.21875zm481.117188 49.082032-96.089844-.324219 2.996094-62.25 95.84375 1.585937zm14.085938-303.886719c-1.03125 31.464844-2.714844 63.453125-4.34375 94.390625-1.003907 19.046875-2.039063 38.738281-2.914063 58.121094l-2.453125 54.414062-95.855469.835938 12.230469-254.011719 94.007812-.019531c.066407 15.058594-.15625 30.4375-.671874 46.269531zm0 0"/><path d="m33.082031 347.1875c3.242188 2.429688 7.277344 3.679688 11.304688 3.679688 2.898437 0 5.792969-.644532 8.386719-1.960938 3.070312-1.554688 5.265624-3.851562 6.179687-6.46875 1.691406-4.828125-1.082031-9.875-4.378906-12.519531-3.40625-2.738281-7.644531-3.890625-11.382813-4.914063-.578125-.15625-1.203125-.046875-1.695312.300782-.492188.34375-.800782.894531-.847656 1.496093l-.617188 8.105469c-.085938 1.113281.746094 2.082031 1.859375 2.167969 1.121094.074219 2.082031-.746094 2.164063-1.859375l.433593-5.652344c2.742188.804688 5.417969 1.785156 7.558594 3.503906 2.292969 1.839844 4.089844 5.191406 3.097656 8.035156-.769531 2.199219-2.960937 3.574219-4.195312 4.203126-4.871094 2.464843-11.078125 1.925781-15.449219-1.347657-4.367188-3.273437-6.632812-9.078125-5.632812-14.445312.207031-1.097657-.515626-2.152344-1.613282-2.355469-1.097656-.207031-2.152344.519531-2.355468 1.613281-1.277344 6.84375 1.609374 14.246094 7.183593 18.417969zm0 0"/><path d="m31.320312 316.433594c2.796876 1.890625 6.308594 1.960937 8.878907 2.015625l15.9375.324219c.101562 0 .21875.003906.347656.003906.957031 0 2.617187-.128906 3.6875-1.464844 1.039063-1.300781.832031-2.925781.734375-3.707031l-1.210938-9.628907c-.140624-1.105468-1.15625-1.898437-2.257812-1.75-1.105469.136719-1.890625 1.148438-1.75 2.253907l1.210938 9.628906c.03125.253906.050781.457031.054687.601563-.144531.015624-.375.03125-.734375.019531l-10.214844-.207031-.046875-11.664063c-.003906-1.113281-.910156-2.011719-2.019531-2.011719-.003906 0-.007812 0-.007812 0-1.117188.007813-2.015626.914063-2.011719 2.03125l.046875 11.5625-1.683594-.035156c-2.769531-.054688-5.023438-.1875-6.699219-1.320312-1.535156-1.035157-2.582031-3.015626-2.867187-5.425782-.285156-2.398437.144531-4.960937.566406-7.433594.183594-1.101562-.554688-2.144531-1.65625-2.328124-1.101562-.1875-2.140625.554687-2.328125 1.65625-.445313 2.625-.949219 5.605468-.59375 8.582031.425781 3.578125 2.109375 6.601562 4.617187 8.296875zm0 0"/><path d="m55.546875 269.460938c-4.804687-2.5625-10.703125-2.921876-15.78125-.972657-5.226563 2.011719-9.152344 5.960938-10.253906 10.3125-.59375 2.355469-.636719 5.941407 2.542969 9.648438 4.496093 5.238281 10.339843 7.429687 15.648437 7.429687 3.1875 0 6.179687-.789062 8.570313-2.179687 5.691406-3.320313 8.550781-10.460938 6.503906-16.265625-1.152344-3.269532-3.722656-6.101563-7.230469-7.972656zm-1.308594 20.746093c-6.40625 3.734375-14.753906.699219-19.117187-4.386719-1.648438-1.921874-2.214844-3.949218-1.691406-6.03125.769531-3.050781 3.824218-6.007812 7.785156-7.527343 1.707031-.65625 3.527344-.980469 5.351562-.980469 2.457032 0 4.910156.585938 7.078125 1.742188 2.578125 1.375 4.515625 3.472656 5.320313 5.753906 1.402344 3.964844-.71875 9.09375-4.726563 11.429687zm0 0"/><path d="m29.449219 243.042969 16.519531 6.832031c-4.894531 3.574219-10.234375 6.476562-15.914062 8.640625-.878907.332031-1.410157 1.230469-1.28125 2.164063.128906.933593.886718 1.652343 1.820312 1.734374l29.136719 2.566407c.058593.007812.121093.007812.179687.007812 1.035156 0 1.917969-.789062 2.007813-1.839843.097656-1.113282-.722657-2.09375-1.832031-2.191407l-21.371094-1.882812c4.441406-2.273438 8.632812-5.003907 12.527344-8.160157.554687-.445312.828124-1.152343.726562-1.859374-.101562-.703126-.566406-1.304688-1.226562-1.574219l-13.21875-5.46875c8.175781-1.109375 16.457031-1.367188 24.699218-.757813 1.117188.089844 2.078125-.75 2.160156-1.863281.082032-1.113281-.75-2.082031-1.863281-2.164063-10.933593-.808593-21.933593-.144531-32.6875 1.96875-.875.171876-1.535156.894532-1.621093 1.78125-.089844.886719.414062 1.722657 1.238281 2.066407zm0 0"/><path d="m37.695312 226.308594c-.492187-.445313-.550781-1.796875-.582031-2.527344l-.523437-11.496094c-.050782-1.113281-.984375-1.960937-2.109375-1.925781-1.113281.046875-1.976563.992187-1.925781 2.109375l.523437 11.496094c.0625 1.402344.167969 3.75 1.890625 5.324218 1.503906 1.371094 3.476562 1.464844 4.785156 1.527344l20.921875.992188c.03125.003906.0625.003906.09375.003906.535157 0 1.054688-.214844 1.433594-.597656.402344-.402344.613281-.960938.582031-1.53125l-1.019531-19.148438c-.058594-1.109375-1.023437-1.976562-2.121094-1.90625-1.117187.058594-1.972656 1.011719-1.910156 2.121094l.898437 16.917969-8.757812-.417969-1.074219-9.859375c-.121093-1.109375-1.113281-1.910156-2.226562-1.789063-1.109375.121094-1.910157 1.117188-1.789063 2.226563l1.003906 9.230469-5.84375-.277344c-.730468-.03125-1.828124-.085938-2.25-.472656zm0 0"/><path d="m64.148438 193.25c-.015626-1.113281-.957032-1.984375-2.046876-1.992188-8.453124.105469-16.976562-.402343-25.355468-1.515624l.160156-5.5625c.03125-1.117188-.84375-2.046876-1.960938-2.078126-1.117187-.019531-2.042968.847657-2.074218 1.960938l-.527344 18.371094c-.03125 1.117187.847656 2.046875 1.960938 2.078125h.058593c1.089844 0 1.988281-.867188 2.019531-1.960938l.25-8.757812c7.6875 1 15.488282 1.519531 23.246094 1.519531.757813 0 1.519532-.003906 2.277344-.015625 1.113281-.015625 2.003906-.929687 1.992188-2.046875zm0 0"/><path d="m63.023438 158.042969-16.042969 13.152343-.3125-3.910156c-.128907-1.578125-.269531-3.367187-.957031-5.085937-.871094-2.179688-2.476563-3.757813-4.414063-4.335938-3.019531-.90625-5.972656.796875-7.558594 2.882813-1.511719 1.992187-2.105469 4.339844-2.628906 6.414062-.496094 1.976563-1.820313 7.234375 1.691406 10.128906 1.71875 1.410157 3.886719 1.597657 5.589844 1.597657.328125 0 .644531-.003907.929687-.011719l19.914063-.445312c1.117187-.027344 2-.949219 1.972656-2.066407-.023437-1.097656-.921875-1.972656-2.015625-1.972656-.015625 0-.03125 0-.046875 0l-9.957031.222656h-.007812l16.40625-13.449219c.859374-.707031.988281-1.976562.28125-2.839843-.707032-.863281-1.980469-.992188-2.84375-.28125zm-23.789063 16.792969c-1.566406.03125-3.039063.011718-3.863281-.667969-1.035156-.851563-1.148438-2.824219-.339844-6.023438.445312-1.78125.910156-3.621093 1.925781-4.953125.625-.828125 1.675781-1.535156 2.65625-1.535156.179688 0 .355469.023438.53125.074219.722657.214843 1.417969.96875 1.816407 1.964843.460937 1.152344.570312 2.550782.679687 3.90625l.570313 7.140626zm0 0"/><path d="m30.824219 136.765625 11.691406 6.640625-9.644531 6.457031c-.925782.617188-1.175782 1.875-.554688 2.800781.386719.582032 1.027344.894532 1.679688.894532.386718 0 .777344-.109375 1.121094-.339844l12.363281-8.273438c.023437-.019531.042969-.042968.066406-.0625l20.339844 2.539063c.082031.011719.167969.015625.25.015625 1.003906 0 1.875-.746094 2-1.769531.140625-1.105469-.644531-2.113281-1.753907-2.253907l-21.207031-2.644531c-.328125-.042969-.644531.003907-.933593.109375l-13.421876-7.625c-.96875-.550781-2.203124-.210937-2.753906.757813-.550781.96875-.210937 2.203125.757813 2.753906zm0 0"/><path d="m123.761719 304.558594c.863281 0 1.664062-.558594 1.933593-1.429688.324219-1.066406-.273437-2.195312-1.339843-2.523437l-10.003907-3.066407-.34375-13.777343 8.363282-3.09375c1.042968-.386719 1.578125-1.546875 1.191406-2.59375s-1.546875-1.578125-2.59375-1.191407l-28.351562 10.480469c-.757813.28125-2.34375.867188-2.964844 2.480469-.34375.894531-.300782 1.859375.117187 2.722656.855469 1.761719 2.953125 2.566406 3.8125 2.828125l29.585938 9.074219c.199219.058594.398437.089844.59375.089844zm-29.828125-13.375c.027344-.007813.054687-.019532.085937-.03125l15.984375-5.910156.273438 11.046874-15.511719-4.753906c-.328125-.101562-.609375-.226562-.832031-.351562zm0 0"/><path d="m92.226562 272.996094c.722657.261718 1.457032.347656 2.144532.347656.753906 0 1.457031-.105469 2.046875-.1875l27.453125-3.984375c1.105468-.160156 1.871094-1.183594 1.710937-2.289063-.160156-1.101562-1.183593-1.867187-2.289062-1.707031l-13.941407 2.023438c3.914063-5.9375 8.960938-11.167969 14.765626-15.253907.910156-.644531 1.128906-1.90625.488281-2.816406-.644531-.910156-1.902344-1.128906-2.816407-.488281-5.203124 3.667969-9.84375 8.191406-13.671874 13.296875-.027344-.53125-.070313-1.0625-.132813-1.597656-.445313-3.75-1.960937-6.988282-4.265625-9.117188-2.933594-2.703125-7.113281-3.5-10.402344-1.976562-2.675781 1.234375-4.722656 4.007812-5.472656 7.417968-.621094 2.835938-.355469 5.726563-.125 8.277344.167969 1.816406.613281 6.648438 4.507812 8.054688zm-.433593-15.464844c.480469-2.183594 1.683593-3.910156 3.21875-4.621094.554687-.253906 1.183593-.378906 1.832031-.378906 1.429688 0 2.976562.589844 4.136719 1.660156 1.597656 1.476563 2.660156 3.828125 2.992187 6.625.277344 2.332032.066406 4.785156-.207031 7.191406l-7.929687 1.148438c-.785157.113281-1.671876.246094-2.242188.039062-.992188-.359374-1.597656-1.871093-1.847656-4.621093-.21875-2.371094-.441406-4.820313.046875-7.042969zm0 0"/><path d="m93.105469 242.46875h.058593c1.089844 0 1.988282-.867188 2.019532-1.960938l.386718-13.398437 27.671876.136719h.011718c1.109375 0 2.015625-.894532 2.019532-2.007813.007812-1.117187-.894532-2.023437-2.011719-2.03125l-27.578125-.136719.246094-8.546874c.03125-1.113282-.847657-2.042969-1.960938-2.074219-1.121094-.039063-2.042969.84375-2.074219 1.957031l-.746093 25.980469c-.035157 1.117187.84375 2.046875 1.957031 2.082031zm0 0"/><path d="m156.398438 309.339844c.035156 0 .070312.003906.105468.003906 1.066406 0 1.957032-.839844 2.015625-1.917969l.40625-7.925781 31.523438 1.652344c.035156.003906.074219.003906.105469.003906 1.070312 0 1.960937-.835938 2.015624-1.914062.058594-1.113282-.796874-2.0625-1.910156-2.121094l-31.523437-1.652344.425781-8.300781c.058594-1.113281-.796875-2.066407-1.910156-2.121094-1.113282-.074219-2.066406.796875-2.121094 1.910156l-1.046875 20.261719c-.058594 1.113281.800781 2.0625 1.914063 2.121094zm0 0"/><path d="m150.792969 358.574219c5.699219.972656 11.460937 1.628906 17.238281 1.976562l.171875 13.941407c-5.542969-.273438-11.074219-.761719-16.558594-1.472657-1.101562-.140625-2.121093.636719-2.261719 1.742188-.144531 1.109375.636719 2.121093 1.742188 2.261719 9.121094 1.183593 18.367188 1.777343 27.582031 1.777343 2.671875 0 5.339844-.050781 8.003907-.148437 1.113281-.042969 1.984374-.980469 1.941406-2.097656-.042969-1.113282-.976563-1.996094-2.09375-1.941407-4.757813.179688-9.535156.1875-14.3125.039063l-.171875-13.914063c1.882812.070313 3.769531.109375 5.65625.109375 2.652343 0 5.304687-.066406 7.949219-.199218 1.117187-.054688 1.972656-1.003907 1.917968-2.117188-.054687-1.113281-.992187-1.992188-2.117187-1.914062-11.355469.5625-22.800781-.117188-34.011719-2.023438-1.09375-.1875-2.140625.550781-2.328125 1.648438-.1875 1.101562.550781 2.144531 1.652344 2.332031zm0 0"/><path d="m154.441406 343.464844c11.269532 1.984375 22.796875 3.070312 34.25 3.230468h.027344c1.101562 0 2.003906-.886718 2.019531-1.992187.015625-1.113281-.875-2.03125-1.992187-2.046875-11.238282-.15625-22.546875-1.222656-33.609375-3.167969-1.097657-.195312-2.144531.539063-2.335938 1.636719-.195312 1.101562.539063 2.148438 1.640625 2.339844zm0 0"/><path d="m157.042969 331.171875c1.632812 2.078125 3.863281 3.390625 6.117187 3.601563 3.734375.359374 6.882813-2.21875 8.59375-4.734376 1.070313-1.5625 1.804688-3.246093 2.515625-4.871093.40625-.921875.785157-1.796875 1.222657-2.632813.882812-1.707031 2.375-3.867187 4.476562-4.449218 1.902344-.53125 4.222656.398437 5.519531 2.207031 1.261719 1.757812 1.648438 4.28125 1.03125 6.746093-.554687 2.226563-1.871093 4.449219-3.910156 6.597657-.765625.8125-.734375 2.089843.078125 2.855469.386719.371093.886719.554687 1.386719.554687.535156 0 1.070312-.210937 1.46875-.628906 2.523437-2.664063 4.171875-5.488281 4.898437-8.398438.894532-3.605469.273438-7.371093-1.671875-10.082031-2.285156-3.1875-6.351562-4.726562-9.882812-3.746094-2.773438.773438-5.1875 3.015625-6.984375 6.484375-.492188.957031-.921875 1.929688-1.332032 2.875-.667968 1.519531-1.296874 2.960938-2.152343 4.214844-1.019531 1.492187-2.898438 3.167969-4.886719 2.984375-1.152344-.109375-2.359375-.863281-3.3125-2.074219-.992188-1.265625-1.636719-2.847656-2.261719-4.488281-.664062-1.742188-1.238281-3.429688-1.003906-4.96875.179687-1.183594 1.109375-2.253906 1.957031-2.253906.019532.003906.039063.003906.054688.003906 1.101562 0 2-.882812 2.019531-1.984375.019531-1.117187-.867187-2.035156-1.980469-2.054687-3.257812-.023438-5.609375 2.84375-6.042968 5.683593-.382813 2.503907.394531 4.832031 1.21875 7.007813.714843 1.871094 1.519531 3.835937 2.863281 5.550781zm0 0"/><path d="m190.976562 260.917969c-6.53125-4.816407-14.21875-6.703125-21.09375-5.183594-5.210937 1.15625-11.726562 5.582031-13.613281 10.996094-1.097656 3.144531-.527343 6.222656 1.644531 8.894531 6 7.386719 14.554688 11.621094 23.246094 11.621094.761719 0 1.527344-.03125 2.289063-.097656 3.742187-.320313 6.9375-1.367188 9.503906-3.109376 3.171875-2.152343 5.25-5.351562 5.699219-8.777343.648437-4.957031-2.21875-10.320313-7.675782-14.34375zm3.671876 13.820312c-.292969 2.246094-1.777344 4.472657-3.964844 5.960938-1.984375 1.347656-4.535156 2.164062-7.582032 2.425781-8.117187.699219-16.371093-3.050781-22.050781-10.046875-1.277343-1.570313-1.59375-3.214844-.964843-5.019531 1.359374-3.902344 6.613281-7.480469 10.671874-8.378906 1.230469-.273438 2.511719-.40625 3.816407-.40625 4.683593 0 9.699219 1.71875 14.003906 4.894531 1.59375 1.175781 6.746094 5.414062 6.070313 10.570312zm0 0"/><path d="m157.617188 251.507812c1.59375 1.019532 3.4375 1.066407 4.785156 1.101563l12.230468.320313c.109376.0625.222657.117187.339844.164062.5625.210938 1.171875.160156 1.675782-.113281l18.875.488281h.054687c1.089844 0 1.988281-.871094 2.015625-1.96875.03125-1.113281-.851562-2.039062-1.964844-2.070312l-15.480468-.398438c5.316406-5.988281 11.460937-11.140625 18.3125-15.347656.953124-.582032 1.25-1.828125.664062-2.777344-.582031-.949219-1.828125-1.246094-2.773438-.664062-6.929687 4.253906-13.167968 9.425781-18.605468 15.417968-.167969-2.933594-.742188-5.910156-2.222656-8.621094-2.523438-4.621093-8.550782-8.128906-13.890626-5.730468-3.703124 1.660156-6.066406 5.640625-6.832031 11.507812-.683593 5.253906 1.15625 7.628906 2.816407 8.691406zm1.191406-8.171874c.328125-2.511719 1.34375-6.9375 4.476562-8.34375.621094-.277344 1.277344-.40625 1.945313-.40625 2.644531 0 5.441406 1.996093 6.75 4.386718 1.59375 2.917969 1.847656 6.496094 1.773437 9.890625l-11.25-.292969c-.96875-.023437-2.0625-.050781-2.710937-.464843-1.335938-.855469-1.132813-3.621094-.984375-4.769531zm0 0"/><path d="m158.605469 225.859375c.394531 0 .792969-.113281 1.140625-.355469l15.847656-10.90625 24.222656 2.972656c.082032.007813.167969.015626.246094.015626 1.007812 0 1.878906-.753907 2.003906-1.773438.136719-1.109375-.652344-2.117188-1.757812-2.25l-24.941406-3.0625-13.667969-11.136719c-.867188-.703125-2.136719-.574219-2.84375.292969-.703125.863281-.574219 2.136719.289062 2.839844l12.324219 10.039062-14.011719 9.644532c-.917969.628906-1.152343 1.886718-.519531 2.808593.394531.566407 1.023438.871094 1.667969.871094zm0 0"/><path d="m368.363281 361.566406c-2.894531-1.253906-6.117187-1.359375-8.84375-.277344-3.996093 1.582032-6.394531 4.957032-8.714843 8.21875-1.738282 2.449219-3.386719 4.761719-5.597657 6.210938-2.132812 1.394531-4.953125 1.804688-7.730469 1.113281-2.78125-.6875-5.085937-2.359375-6.320312-4.59375-1.234375-2.230469-1.425781-5.070312-.53125-7.792969.894531-2.722656 2.738281-4.890624 5.054688-5.957031 1.011718-.464843 1.457031-1.664062.992187-2.675781s-1.664063-1.457031-2.675781-.992188c-3.335938 1.527344-5.964844 4.578126-7.207032 8.367188-1.246093 3.785156-.941406 7.796875.835938 11.007812 1.777344 3.210938 5.011719 5.605469 8.882812 6.5625 3.871094.957032 7.847657.351563 10.917969-1.660156 2.847657-1.867187 4.792969-4.605468 6.675781-7.25 2.070313-2.910156 4.023438-5.660156 6.90625-6.804687 1.734376-.683594 3.832032-.601563 5.746094.230469 1.917969.832031 3.410156 2.304687 4.09375 4.039062.683594 1.738281.59375 3.832031-.242187 5.75-.839844 1.914062-2.316407 3.402344-4.054688 4.078125-1.039062.40625-1.550781 1.578125-1.144531 2.617187.3125.796876 1.074219 1.285157 1.882812 1.285157.242188 0 .492188-.042969.734376-.136719 2.726562-1.066406 5.019531-3.335938 6.28125-6.226562 1.265624-2.894532 1.375-6.117188.300781-8.84375-1.074219-2.726563-3.347657-5.011719-6.242188-6.269532zm0 0"/><path d="m339.332031 326.683594c-.769531-.808594-2.046875-.835938-2.855469-.066406-3.28125 3.125-4.578124 8.296874-3.308593 13.171874 1.027343 3.949219 3.617187 7.6875 7.484375 10.8125 4.703125 3.800782 10.203125 5.875 15.558594 5.875.199218 0 .398437-.003906.597656-.011718 6.359375-.183594 12.183594-3.425782 15.199218-8.460938 3.292969-5.507812 2.640626-12.984375-1.523437-17.386718-.769531-.8125-2.046875-.847657-2.855469-.082032-.8125.769532-.847656 2.046875-.082031 2.855469 2.964844 3.136719 3.394531 8.527344.992187 12.539063-2.277343 3.804687-6.925781 6.355468-11.84375 6.5-4.570312.136718-9.375-1.632813-13.5-4.96875-2.226562-1.796876-5.09375-4.765626-6.117187-8.691407-.894531-3.421875-.011719-7.128906 2.1875-9.230469.804687-.769531.835937-2.046874.066406-2.855468zm0 0"/><path d="m372.351562 314.164062-37.683593-2.390624c-1.121094-.066407-2.074219.773437-2.144531 1.886718-.070313 1.113282.777343 2.074219 1.886718 2.144532l37.683594 2.390624c.042969.003907.089844.003907.132812.003907 1.054688 0 1.945313-.820313 2.011719-1.890625.074219-1.113282-.773437-2.074219-1.886719-2.144532zm0 0"/><path d="m374.78125 275.265625c-.027344-1.117187-.957031-2.023437-2.070312-1.964844-1.117188.027344-1.996094.957031-1.96875 2.070313l.542968 20.472656c.015625.636719.046875 1.703125-.277344 2.085938-.421874.5-2.011718.410156-2.609374.378906l-12.542969-.691406.300781-13.09375c.023438-1.113282-.859375-2.039063-1.976562-2.066407-1.132813-.058593-2.035157.859375-2.0625 1.972657l-.296876 12.964843-11.203124-.617187c-1.0625-.058594-2.261719-.125-2.972657-.617188-1.113281-.761718-1.378906-2.734375-1.539062-4.519531l-1.472657-16.210937c-.101562-1.113282-1.082031-1.925782-2.191406-1.828126-1.113281.101563-1.933594 1.082032-1.832031 2.191407l1.472656 16.210937c.175781 1.949219.503907 5.582032 3.273438 7.484375 1.644531 1.132813 3.605469 1.242188 5.039062 1.320313l27.78125 1.53125c.300781.015625.675781.039062 1.089844.039062 1.46875 0 3.484375-.257812 4.824219-1.839844 1.320312-1.554687 1.265625-3.589843 1.234375-4.804687zm0 0"/><path d="m376.460938 243.34375c-13.421876-2.476562-27.140626-3.34375-40.769532-2.570312-1.113281.0625-1.964844 1.015624-1.902344 2.128906.066407 1.113281 1.019532 1.957031 2.132813 1.902344 11.445313-.648438 22.949219-.109376 34.285156 1.589843-11.3125 6.253907-23.355469 11.085938-35.875 14.382813-.921875.242187-1.546875 1.097656-1.503906 2.050781.046875.953125.753906 1.742187 1.699219 1.894531 13.363281 2.15625 27.007812 3.257813 40.546875 3.273438h.003906c1.113281 0 2.019531-.902344 2.019531-2.019532.003906-1.113281-.902344-2.019531-2.015625-2.023437-10.25-.011719-20.554687-.652344-30.753906-1.914063 11.453125-3.742187 22.457031-8.761718 32.808594-14.980468.71875-.433594 1.097656-1.265625.949219-2.089844-.15625-.824219-.800782-1.472656-1.625-1.625zm0 0"/><path d="m377.273438 207.777344c-1 .496094-1.40625 1.707031-.910157 2.707031 2.769531 5.582031 1.316407 13.230469-3.386719 17.792969-4.558593 4.421875-11.945312 6.039062-18.375 4.015625-6.203124-1.953125-11.449218-6.996094-14.03125-13.492188-.871093-2.199219-1.191406-4.015625-.96875-5.558593.238282-1.675782 1.246094-3.117188 2.503907-3.585938 1.042969-.390625 1.574219-1.550781 1.183593-2.597656-.386718-1.046875-1.550781-1.578125-2.597656-1.1875-2.640625.988281-4.640625 3.65625-5.089844 6.800781-.324218 2.257813.074219 4.75 1.210938 7.617187 3.027344 7.617188 9.222656 13.542969 16.578125 15.855469 2.289063.71875 4.648437 1.070313 6.984375 1.070313 5.757812 0 11.375-2.117188 15.414062-6.039063 6.003907-5.824219 7.765626-15.28125 4.191407-22.488281-.496094-.996094-1.707031-1.40625-2.707031-.910156zm0 0"/><path d="m339.5625 193.792969c2.8125 2.324219 6.605469 2.738281 9.378906 3.039062l18.992188 2.074219c1.125.125 2.265625.226562 3.394531.226562 2.195313 0 4.332031-.386718 6.171875-1.75 3.003906-2.226562 4.183594-6.503906 3.234375-11.734374-.144531-.796876-.320313-1.597657-.496094-2.398438-.5625-2.574219-1.09375-5.003906-.550781-7.21875.269531-1.082031-.394531-2.175781-1.476562-2.445312-1.085938-.265626-2.175782.394531-2.445313 1.480468-.769531 3.125-.109375 6.136719.527344 9.046875.164062.753907.332031 1.507813.46875 2.257813.3125 1.730468.78125 5.953125-1.667969 7.765625-1.613281 1.199219-4.101562 1.039062-6.722656.753906l-9.3125-1.015625-.308594-13.660156c-.027344-1.097656-.925781-1.972656-2.019531-1.972656-.015625 0-.03125 0-.046875 0-1.113282.027343-2 .953124-1.972656 2.066406l.296874 13.125-5.628906-.617188c-2.390625-.257812-5.363281-.582031-7.242187-2.136718-1.558594-1.289063-2.496094-3.535157-2.574219-6.171876-.074219-2.597656.621094-5.292968 1.296875-7.898437.28125-1.078125-.367187-2.179687-1.449219-2.460937-1.078125-.28125-2.179687.367187-2.460937 1.449218-.710938 2.742188-1.519531 5.855469-1.421875 9.03125.109375 3.796875 1.582031 7.136719 4.035156 9.164063zm0 0"/><path d="m477.210938 271.289062-53.324219 3.933594c-.910157.066406-1.660157.738282-1.832031 1.636719-.171876.898437.28125 1.800781 1.105468 2.195313l26.621094 12.859374-22.519531 9.699219c-.847657.367188-1.339844 1.257813-1.191407 2.171875.144532.914063.890626 1.609375 1.8125 1.695313l45.527344 4.121093c.0625.003907.121094.007813.183594.007813 1.03125 0 1.914062-.789063 2.007812-1.839844.101563-1.109375-.71875-2.09375-1.828124-2.191406l-37.601563-3.402344 19.269531-8.304687c.726563-.3125 1.203125-1.019532 1.21875-1.808594.015625-.792969-.429687-1.519531-1.140625-1.863281l-23.816406-11.503907 45.808594-3.382812c1.109375-.082031 1.945312-1.046875 1.863281-2.160156-.082031-1.113282-1.046875-1.953125-2.164062-1.863282zm0 0"/><path d="m423.234375 254.824219 50.714844 7.441406c.101562.015625.199219.023437.296875.023437.984375 0 1.847656-.722656 1.996094-1.726562.160156-1.105469-.601563-2.128906-1.707032-2.292969l-17.355468-2.546875-1.605469-15.566406c5.015625-1.679688 10.121093-3.113281 15.3125-4.273438 1.089843-.242187 1.777343-1.324218 1.53125-2.410156-.242188-1.089844-1.320313-1.773437-2.410157-1.53125-16.816406 3.753906-32.808593 10.203125-47.527343 19.160156-.726563.441407-1.101563 1.292969-.929688 2.128907.167969.832031.839844 1.472656 1.683594 1.59375zm28.421875-13.285157 1.402344 13.578126-23.53125-3.453126c7.109375-3.972656 14.507812-7.335937 22.128906-10.125zm0 0"/><path d="m435.804688 205.152344-.042969-11.59375c-.003907-1.109375-.910157-2.011719-2.019531-2.011719-.003907 0-.007813 0-.007813 0-1.117187.003906-2.019531.914063-2.015625 2.027344l.148438 37.695312c.003906 1.113281.90625 2.011719 2.019531 2.011719h.007812c1.113281-.003906 2.015625-.910156 2.011719-2.027344l-.085938-22.054687 37.015626 2.195312c.042968.003907.082031.003907.125.003907 1.058593 0 1.949218-.824219 2.011718-1.898438.066406-1.113281-.78125-2.070312-1.894531-2.136719zm0 0"/><path d="m432.464844 182.386719c13.128906 1.890625 26.511718 3.085937 39.769531 3.546875h.070313c1.082031 0 1.980468-.859375 2.019531-1.949219.039062-1.113281-.832031-2.046875-1.949219-2.089844-5.394531-.1875-10.808594-.503906-16.222656-.9375l1.054687-20.851562c.015625-.308594-.046875-.605469-.160156-.875l13.648437 2.453125c.121094.019531.238282.03125.355469.03125.960938 0 1.8125-.683594 1.988281-1.664063.195313-1.097656-.535156-2.148437-1.632812-2.34375l-36.949219-6.636719c-1.097656-.203124-2.148437.53125-2.34375 1.628907-.199219 1.097656.53125 2.148437 1.628907 2.34375l19.96875 3.589843c-.3125.335938-.515626.777344-.539063 1.269532l-1.046875 20.71875c-6.390625-.582032-12.765625-1.324219-19.082031-2.234375-1.105469-.15625-2.128907.605469-2.289063 1.710937-.15625 1.105469.609375 2.128906 1.710938 2.289063zm0 0"/><path d="m279.78125 322.683594c-.066406-1.113282-1.027344-1.964844-2.136719-1.894532-1.113281.0625-1.964843 1.019532-1.898437 2.132813l.898437 15.21875c.03125.511719.109375 1.882813-.269531 2.242187-.371094.355469-1.722656.214844-2.230469.160157l-34.398437-3.566407c-1.117188-.128906-2.101563.6875-2.214844 1.800782-.117188 1.109375.6875 2.101562 1.796875 2.214844l34.398437 3.570312c.417969.042969.953126.097656 1.546876.097656 1.238281 0 2.722656-.242187 3.886718-1.347656 1.738282-1.652344 1.59375-4.097656 1.515625-5.410156zm0 0"/><path d="m278.363281 318.769531h.035157c1.097656 0 2-.882812 2.019531-1.984375.019531-1.117187-.867188-2.035156-1.984375-2.054687l-33.796875-.597657c-1.125.011719-2.035157.867188-2.054688 1.984376-.019531 1.113281.871094 2.035156 1.984375 2.054687zm0 0"/><path d="m281.316406 297.78125c-11.910156-.660156-24.015625-1.238281-35.976562-1.71875-.070313 0-.136719.011719-.207032.015625l-.304687-7.734375c-.042969-1.113281-.984375-1.96875-2.097656-1.9375-1.113281.042969-1.980469.984375-1.9375 2.097656l.726562 18.390625c.042969 1.085938.9375 1.9375 2.019531 1.9375h.078126c1.117187-.042969 1.984374-.984375 1.9375-2.097656l-.261719-6.628906c11.90625.476562 23.949219 1.054687 35.800781 1.710937h.113281c1.0625 0 1.953125-.832031 2.011719-1.90625.0625-1.113281-.789062-2.066406-1.902344-2.128906zm0 0"/><path d="m281.328125 264.964844c-1.101563-.050782-2.066406.792968-2.125 1.90625l-.84375 15.433594-11.277344-.226563-.824219-12.191406c-.074218-1.113281-1.035156-1.976563-2.148437-1.878907-1.113281.074219-1.957031 1.035157-1.878906 2.148438l.796875 11.839844-10.4375-.210938c-1.171875-.023437-2.265625-.085937-2.816406-.550781-.691407-.582031-.792969-2.035156-.800782-3.523437l-.058594-11.996094c-.003906-1.109375-.910156-2.007813-2.019531-2.007813-.003906 0-.007812 0-.011719 0-1.113281.003907-2.011718.914063-2.007812 2.027344l.058594 11.996094c.007812 1.652343.023437 4.726562 2.238281 6.59375 1.6875 1.421875 3.882813 1.46875 5.335937 1.5l27.722657.558593h.039062c1.070313 0 1.957031-.835937 2.015625-1.90625l.953125-17.382812c.058594-1.117188-.792969-2.066406-1.910156-2.128906zm0 0"/><path d="m244.757812 257.984375c1.597657 1.296875 3.496094 1.589844 5.417969 1.589844.574219 0 1.148438-.023438 1.71875-.058594l28.980469-1.738281c1.113281-.066406 1.964844-1.023438 1.898438-2.136719-.066407-1.113281-1.035157-1.957031-2.136719-1.894531l-12.398438.742187c3.871094-4.882812 8.359375-9.222656 13.382813-12.9375.898437-.664062 1.085937-1.929687.421875-2.824219-.660157-.898437-1.925781-1.085937-2.824219-.425781-4.695312 3.472657-8.953125 7.46875-12.703125 11.914063-.15625-1.699219-.457031-3.441406-.992187-5.160156-1.304688-4.179688-3.839844-7.460938-7.132813-9.242188-3.957031-2.136719-8.910156-1.757812-12.039063.925781-3.667968 3.144531-4.125 8.214844-4.269531 12.722657-.070312 2.164062-.195312 6.191406 2.675781 8.523437zm1.363282-8.394531c.117187-3.816406.4375-7.710938 2.859375-9.785156 1.027343-.882813 2.449219-1.332032 3.933593-1.332032 1.203126 0 2.445313.296875 3.554688.894532 2.328125 1.257812 4.222656 3.769531 5.195312 6.890624.882813 2.824219 1.003907 5.855469.941407 8.570313l-10.953125.65625c-1.75.105469-3.402344.132813-4.351563-.632813-1.15625-.941406-1.25-3.085937-1.179687-5.261718zm0 0"/><path d="m283.703125 230.441406-12.117187-4.941406.546874-13.882812c.003907-.085938-.007812-.167969-.011718-.25l10.027344-2.933594c1.070312-.316406 1.683593-1.4375 1.371093-2.507813-.3125-1.070312-1.4375-1.6875-2.503906-1.371093l-36.054687 10.558593c-.824219.242188-1.402344.976563-1.449219 1.832031-.042969.859376.460937 1.652344 1.257812 1.972657l37.40625 15.261719c.25.105468.511719.152343.765625.152343.792969 0 1.550782-.472656 1.871094-1.257812.417969-1.03125-.074219-2.210938-1.109375-2.632813zm-15.648437-17.882812-.449219 11.316406-15.960938-6.511719zm0 0"/><path d="m286.695312 190.59375-37.09375-4.585938 1.078126-10.890624c.109374-1.109376-.703126-2.097657-1.8125-2.207032-1.105469-.113281-2.097657.699219-2.207032 1.8125l-2.953125 29.871094c-.109375 1.109375.699219 2.097656 1.8125 2.207031.066407.007813.132813.007813.199219.007813 1.027344 0 1.902344-.777344 2.007812-1.820313l1.476563-14.960937 36.996094 4.574218c.082031.011719.167969.015626.25.015626 1.003906 0 1.875-.75 2.003906-1.769532.136719-1.109375-.648437-2.117187-1.757813-2.253906zm0 0"/><path d="m289.234375 164.0625c-2.304687-1.84375-5.074219-2.742188-7.488281-3.441406-7.90625-2.292969-16.085938-3.570313-24.316406-3.804688-1.097657-.027344-2.042969.847656-2.074219 1.960938-.03125 1.117187.847656 2.046875 1.960937 2.078125 7.886719.222656 15.730469 1.449219 23.308594 3.644531 2.039062.589844 4.359375 1.335938 6.082031 2.714844 1.597657 1.28125 2.5 3.113281 2.300781 4.671875-.179687 1.386719-1.257812 2.796875-2.816406 3.683593-1.714844.96875-3.808594 1.316407-5.628906 1.527344-7.742188.890625-15.648438-.203125-22.859375-3.164062-1.03125-.417969-2.210937.074218-2.636719 1.101562-.421875 1.035156.070313 2.210938 1.101563 2.636719 6.070312 2.488281 12.589843 3.765625 19.128906 3.765625 1.910156 0 3.824219-.109375 5.726563-.328125 2.222656-.257813 4.8125-.699219 7.160156-2.027344 2.683594-1.523437 4.488281-4.023437 4.828125-6.683593.382812-2.96875-1.066407-6.160157-3.777344-8.335938zm0 0"/><path d="m291 129.277344-17.792969 17.988281c-.226562-3.859375-.921875-7.679687-2.933593-11.054687-3.046876-5.121094-10.070313-8.574219-15.664063-5.546876-4.535156 2.453126-6.011719 7.671876-7.039063 12.371094-.359374 1.628906-1.445312 6.59375 2.09375 8.941406 1.367188.90625 2.929688 1.007813 4.070313 1.082032l36.453125 2.371094c.046875.003906.089844.003906.132812.003906 1.054688 0 1.945313-.820313 2.011719-1.886719.074219-1.113281-.769531-2.074219-1.882812-2.148437l-14.703125-.957032 18.125-18.324218c.785156-.792969.777344-2.070313-.015625-2.855469-.792969-.785157-2.070313-.777344-2.855469.015625zm-37.003906 19.75c-.761719-.050782-1.628906-.105469-2.097656-.417969-.808594-.535156-.941407-2.164063-.382813-4.710937.839844-3.824219 1.984375-8.042969 5.015625-9.679688.828125-.449219 1.726562-.652344 2.644531-.652344 2.945313 0 6.0625 2.085938 7.628907 4.710938 1.992187 3.347656 2.398437 7.550781 2.457031 11.742187zm0 0"/><path d="m255.605469 123.421875c.027343 0 .058593-.003906.085937-.003906l29.332032-1.277344c1.523437-.066406 4.359374-.191406 5.984374-2.378906 1.242188-1.667969 1.117188-3.691407 1.039063-5.03125l-.722656-12c-.066407-1.113281-1.035157-1.984375-2.136719-1.894531-1.117188.066406-1.964844 1.023437-1.898438 2.136718l.722657 12c.046875.753906.117187 1.894532-.246094 2.382813-.476563.644531-2.125.714843-2.917969.75l-11.136718.484375-.160157-15.332032c-.011719-1.113281-.9375-1.972656-2.039062-1.996093-1.113281.011719-2.011719.921875-2 2.039062l.160156 15.464844-12.015625.523437.289062-19.410156c.015626-1.113281-.875-2.03125-1.992187-2.050781-.007813 0-.019531 0-.03125 0-1.101563 0-2 .886719-2.015625 1.992187l-.324219 21.550782c-.007812.554687.214844 1.09375.613281 1.480468.378907.363282.886719.570313 1.410157.570313zm0 0"/><path d="m37.277344 413.132812c-5.917969-.609374-11.570313 5.199219-12.925782 10.824219-1.421874 5.875 1.226563 12.484375 6.296876 15.710938 2.296874 1.460937 4.980468 2.179687 7.664062 2.179687 3.332031 0 6.660156-1.109375 9.230469-3.277344 4.636719-3.914062 6.257812-11.007812 3.769531-16.507812-2.617188-5.773438-9.195312-8.421875-14.035156-8.929688zm7.664062 22.351563c-3.273437 2.761719-8.484375 3.097656-12.121094.777344-3.660156-2.328125-5.570312-7.105469-4.542968-11.355469.886718-3.667969 4.625-7.78125 8.121094-7.78125.152343 0 .304687.007812.457031.023438 4.074219.429687 8.988281 2.632812 10.777343 6.582031 1.769532 3.910156.613282 8.964843-2.691406 11.753906zm0 0"/><path d="m454.796875 89.433594c.585937.03125 1.167969.046875 1.75.046875 7.1875 0 14.113281-2.390625 19.230469-6.679688 5.613281-4.707031 8.847656-12.191406 8.652344-20.019531-.191407-7.824219-3.65625-14.851562-9.507813-19.285156-11.308594-8.5625-30.007813-.25-37.414063 9.007812-5.996093 7.496094-7.53125 17.085938-3.90625 24.425782 3.550782 7.195312 11.671876 11.988281 21.195313 12.503906zm-14.136719-34.40625c4.570313-5.714844 14.410156-11.015625 22.898438-11.015625 3.308594 0 6.414062.804687 8.925781 2.707031 4.863281 3.683594 7.746094 9.574219 7.910156 16.160156.164063 6.613282-2.53125 12.902344-7.210937 16.824219-4.757813 3.988281-11.386719 6.054687-18.167969 5.695313-7.945313-.429688-14.929687-4.457032-17.792969-10.253907-3.566406-7.21875-.375-15.347656 3.4375-20.117187zm0 0"/></svg>