<svg width="48" height="48" viewBox="0 0 48 48" fill="none" xmlns="http://www.w3.org/2000/svg">
<path fill-rule="evenodd" clip-rule="evenodd" d="M24 11C22.5866 11 21.2988 11.5567 19.7386 12.2312L17.9897 12.985C16.4663 13.6413 15.1343 14.2152 14.198 14.7784C13.3247 15.3036 12 16.2769 12 18V30C12 31.723 13.3247 32.6964 14.198 33.2216C15.1343 33.7848 16.4663 34.3586 17.9897 35.015L19.7386 35.7688C21.2988 36.4432 22.5866 37 24 37C25.4134 37 26.7012 36.4432 28.2614 35.7688L30.0104 35.015C31.5338 34.3586 32.8658 33.7848 33.802 33.2216C34.6752 32.6964 36 31.723 36 30V18C36 16.2769 34.6752 15.3036 33.802 14.7784C32.8658 14.2152 31.5338 13.6413 30.0104 12.985L28.2614 12.2312C26.7012 11.5567 25.4134 11 24 11ZM22 24.6616V32.3826L16 29.6256V22.1416L22 24.6616ZM26 32.3826V24.6616L32 22.1416V29.6256L26 32.3826Z" fill="#07A169"/>
<path fill-rule="evenodd" clip-rule="evenodd" d="M20.288 4.95429C20.3132 6.05857 19.4385 6.97423 18.3343 6.99947C12.9465 7.12267 10.6506 7.67757 9.16407 9.16407C7.67757 10.6506 7.12267 12.9465 6.99947 18.3343C6.97423 19.4385 6.05857 20.3132 4.95429 20.288C3.85001 20.2628 2.97527 19.3471 3.00053 18.2428C3.12033 13.0025 3.58067 9.09061 6.33563 6.33563C9.09061 3.58067 13.0025 3.12033 18.2428 3.00053C19.3471 2.97527 20.2628 3.85001 20.288 4.95429ZM27.712 4.95429C27.7372 3.85001 28.653 2.97527 29.7572 3.00053C34.9976 3.12033 38.9094 3.58067 41.6644 6.33563C44.4194 9.09061 44.8796 13.0025 44.9994 18.2428C45.0248 19.3471 44.15 20.2628 43.0458 20.288C41.9414 20.3132 41.0258 19.4385 41.0006 18.3343C40.8774 12.9465 40.3224 10.6506 38.836 9.16407C37.3494 7.67757 35.0536 7.12267 29.6658 6.99947C28.5614 6.97423 27.6868 6.05857 27.712 4.95429ZM43.0458 27.712C44.15 27.7372 45.0248 28.6528 44.9994 29.7572C44.8796 34.9976 44.4194 38.9094 41.6644 41.6644C38.9094 44.4194 34.9976 44.8796 29.7572 44.9994C28.653 45.0248 27.7372 44.15 27.712 43.0458C27.6868 41.9414 28.5614 41.0258 29.6658 41.0006C35.0536 40.8774 37.3494 40.3224 38.836 38.836C40.3224 37.3494 40.8774 35.0536 41.0006 29.6658C41.0258 28.5614 41.9414 27.6868 43.0458 27.712ZM4.95429 27.712C6.05857 27.6868 6.97423 28.5614 6.99947 29.6658C7.12267 35.0536 7.67757 37.3494 9.16407 38.836C10.6506 40.3224 12.9465 40.8774 18.3343 41.0006C19.4385 41.0258 20.3132 41.9414 20.288 43.0458C20.2628 44.15 19.3471 45.0248 18.2428 44.9994C13.0025 44.8796 9.09061 44.4194 6.33563 41.6644C3.58067 38.9094 3.12033 34.9976 3.00053 29.7572C2.97527 28.653 3.85001 27.7372 4.95429 27.712Z" fill="#FFB800"/>
</svg>
