<svg width="48" height="48" viewBox="0 0 48 48" fill="none" xmlns="http://www.w3.org/2000/svg">
<path fill-rule="evenodd" clip-rule="evenodd" d="M35.9988 2.60256C35.1572 2.37592 34.397 2.55766 33.7392 2.82938C33.1424 3.07588 32.462 3.4707 31.722 3.90022L31.6446 3.94514L24.7978 7.91776L24.7206 7.96256C23.9802 8.392 23.2998 8.7866 22.7892 9.18262C22.226 9.61942 21.6926 10.1879 21.4686 11.028C21.411 11.2439 21.38 11.4544 21.3704 11.6593L15.3906 15.1289L15.2968 15.1833C14.5715 15.604 13.8646 16.0139 13.3266 16.4311C12.719 16.9024 12.0926 17.5551 11.8292 18.5428C11.5661 19.5296 11.7836 20.4074 12.0745 21.1186C12.1306 21.2556 12.1936 21.3962 12.2624 21.54L12.225 21.5616L13.0583 23.0122L13.1593 23.1878L13.2132 23.2818L14.2015 25.002L14.2555 25.096L14.3553 25.2696L15.1897 26.7222L15.2272 26.7006C15.3167 26.8324 15.4064 26.9576 15.4965 27.0748C15.9638 27.6836 16.6145 28.316 17.6041 28.5826C18.5945 28.8492 19.475 28.6282 20.1848 28.335C20.8136 28.0754 21.5204 27.665 22.2454 27.2442L22.3394 27.1896L28.3476 23.7036C28.5082 23.7812 28.6808 23.8464 28.8668 23.8966C29.7084 24.1232 30.4686 23.9414 31.1266 23.6698C31.7234 23.4232 32.4036 23.0284 33.1436 22.5988L33.221 22.554L40.068 18.5814L40.1452 18.5366C40.8854 18.1072 41.5658 17.7125 42.0764 17.3165C42.6396 16.8797 43.1732 16.3112 43.3972 15.4711C43.621 14.6317 43.442 13.873 43.1722 13.2133C42.9272 12.6145 42.5348 11.9315 42.107 11.1872L42.0626 11.11L39.098 5.94942L39.0534 5.87204C38.626 5.12782 38.2336 4.44466 37.84 3.93192C37.4064 3.36744 36.8398 2.82902 35.9988 2.60256ZM25.779 20.5694L25.7678 20.5496L22.8304 15.4368L17.398 18.5887C16.5422 19.0853 16.0767 19.3603 15.778 19.5919L15.7733 19.5956L15.7769 19.6045C15.9208 19.9564 16.1877 20.4294 16.6816 21.2892L17.6699 23.0094C18.1616 23.8654 18.4355 24.3336 18.6659 24.6346C19.0137 24.4898 19.4825 24.2226 20.3318 23.7298L25.779 20.5694Z" fill="#FFB800"/>
<path fill-rule="evenodd" clip-rule="evenodd" d="M20.3916 28.2464C20.9668 27.9872 21.5988 27.6204 22.2454 27.245L22.3394 27.1904L26.015 25.0578L34.7892 42.6064C35.2832 43.5944 34.8828 44.7956 33.8948 45.2896C32.907 45.7836 31.7056 45.3832 31.2116 44.3952L24.0004 29.973L16.7893 44.3952C16.2953 45.3832 15.094 45.7836 14.106 45.2896C13.1181 44.7956 12.7176 43.5944 13.2116 42.6064L20.3916 28.2464ZM11.7644 20.0684C11.8286 20.4488 11.9442 20.8008 12.0745 21.1194C12.1306 21.2564 12.1936 21.3972 12.2624 21.541L12.225 21.5624L13.0583 23.013L13.1593 23.1888L13.2132 23.2826L14.2015 25.0028L14.2555 25.0968L14.3553 25.2704L15.1897 26.723L15.2272 26.7014C15.3167 26.8332 15.4064 26.9584 15.4965 27.0758C15.6963 27.336 15.9296 27.6006 16.2086 27.839L11.5241 30.557C11.1576 30.7696 10.8202 30.9654 10.5254 31.1106C10.2085 31.2666 9.84426 31.4144 9.4195 31.4706C8.50306 31.5918 7.5771 31.342 6.84556 30.7778C6.50674 30.5166 6.26554 30.2066 6.06908 29.9128C5.8862 29.6394 5.69156 29.3004 5.47992 28.932L5.43672 28.8568C5.225 28.4884 5.03032 28.1496 4.88614 27.8538C4.73112 27.5358 4.58512 27.1718 4.52962 26.748C4.40984 25.8336 4.65618 24.908 5.21624 24.1744C5.4759 23.8344 5.7844 23.5918 6.07742 23.394C6.3498 23.21 6.68726 23.0142 7.05376 22.8016L7.09134 22.7798L11.7644 20.0684Z" fill="#07A169"/>
</svg>
