<svg width="50" height="50" viewBox="0 0 50 50" fill="none" xmlns="http://www.w3.org/2000/svg">
<rect width="50" height="50" rx="25" fill="#07A169"/>
<path d="M26.912 22.9975C26.803 23.0604 26.7248 23.1623 26.6921 23.2841C26.6594 23.4059 26.6761 23.533 26.7393 23.6423C26.8234 23.7878 26.9799 23.8782 27.1484 23.8782C27.2308 23.8782 27.3122 23.8562 27.3841 23.815C30.605 21.9556 35.248 22.4259 35.2944 22.4309C35.4192 22.4443 35.5423 22.4084 35.6404 22.3295C35.7388 22.2504 35.8004 22.1376 35.8139 22.012C35.8274 21.8867 35.7912 21.7636 35.7121 21.6655C35.6329 21.5674 35.5203 21.506 35.395 21.4925C35.1923 21.4706 30.397 20.9853 26.912 22.9975Z" fill="white"/>
<path d="M27.1484 27.0119C27.2306 27.0119 27.3122 26.99 27.3841 26.9485C30.6015 25.0908 35.2482 25.5594 35.2944 25.5644C35.4195 25.5781 35.5423 25.5422 35.6404 25.463C35.7388 25.3839 35.8004 25.2708 35.8139 25.145C35.8274 25.0197 35.7909 24.8966 35.7121 24.7985C35.6329 24.7004 35.5203 24.639 35.395 24.6258C35.1928 24.6041 30.402 24.116 26.912 26.131C26.803 26.1942 26.7248 26.2958 26.6921 26.4176C26.6594 26.5394 26.6761 26.6665 26.7393 26.7758C26.8237 26.9216 26.9802 27.0119 27.1484 27.0119Z" fill="white"/>
<path d="M35.3946 27.7662C35.1924 27.7445 30.4004 27.2573 26.9116 29.2715C26.6862 29.4015 26.6088 29.6908 26.7389 29.9163C26.823 30.0618 26.9795 30.1522 27.148 30.1522C27.2302 30.1522 27.3118 30.1302 27.3837 30.0887C29.0489 29.1272 31.1008 28.8014 32.5287 28.6973C34.1083 28.5823 35.2823 28.7033 35.2938 28.7046C35.4188 28.7183 35.5417 28.6824 35.6398 28.6032C35.7381 28.5241 35.7998 28.4113 35.8133 28.2855C35.8267 28.1601 35.7905 28.0371 35.7114 27.939C35.6325 27.8411 35.5199 27.7797 35.3946 27.7662Z" fill="white"/>
<path d="M35.3946 30.903C35.1924 30.8812 30.4004 30.394 26.9116 32.4082C26.6862 32.5382 26.6088 32.8276 26.7389 33.053C26.823 33.1985 26.9798 33.2889 27.148 33.2889C27.2304 33.2889 27.312 33.2669 27.3837 33.2255C30.6151 31.3598 35.2476 31.8363 35.294 31.8413C35.4196 31.8548 35.5424 31.8186 35.6405 31.7394C35.7386 31.6603 35.8 31.5477 35.8135 31.4224C35.827 31.2971 35.7908 31.174 35.7117 31.0759C35.6325 30.9778 35.5199 30.9164 35.3946 30.903Z" fill="white"/>
<path d="M14.414 21.4924C14.1552 21.5201 13.9672 21.7532 13.9949 22.0118C14.0084 22.1374 14.07 22.2502 14.1684 22.3294C14.2665 22.4085 14.3893 22.4444 14.5144 22.4307C14.5608 22.4257 19.2053 21.9559 22.425 23.8149C22.4969 23.8563 22.5782 23.8783 22.6606 23.8783C22.8289 23.8783 22.9856 23.7879 23.0697 23.6421C23.1998 23.4167 23.1222 23.1277 22.897 22.9973C19.4117 20.9854 14.6165 21.4706 14.414 21.4924Z" fill="white"/>
<path d="M22.8968 26.1311C19.4058 24.1157 14.616 24.6042 14.4138 24.6259C14.2885 24.6394 14.1759 24.7008 14.0968 24.7989C14.0177 24.897 13.9815 25.02 13.9949 25.1454C14.0084 25.2709 14.0701 25.3838 14.1684 25.4629C14.2665 25.542 14.3896 25.5777 14.5142 25.5642C14.5608 25.5592 19.2069 25.0907 22.4248 26.9484C22.4967 26.9898 22.578 27.0118 22.6604 27.0118C22.8287 27.0118 22.9854 26.9214 23.0696 26.7757C23.1996 26.5505 23.1222 26.2612 22.8968 26.1311Z" fill="white"/>
<path d="M22.8968 29.2714C19.4088 27.2576 14.6163 27.7444 14.4138 27.7661C14.2885 27.7796 14.1759 27.841 14.0968 27.9391C14.0177 28.0372 13.9815 28.1603 13.9949 28.2856C14.0227 28.5442 14.2558 28.7324 14.5142 28.7045C14.5608 28.6995 19.2178 28.2372 22.425 30.0886C22.4969 30.1301 22.5783 30.152 22.6607 30.152C22.8289 30.152 22.9857 30.0617 23.0698 29.9159C23.1996 29.691 23.1222 29.4017 22.8968 29.2714Z" fill="white"/>
<path d="M22.897 32.408C19.4093 30.3946 14.6165 30.8811 14.414 30.9028C14.1552 30.9305 13.9672 31.1636 13.9949 31.4223C14.0084 31.5476 14.0698 31.6601 14.1679 31.7393C14.266 31.8184 14.3891 31.8546 14.5144 31.8411C14.5608 31.8361 19.1996 31.3631 22.425 33.2253C22.4969 33.2667 22.5782 33.2887 22.6606 33.2887C22.8289 33.2887 22.9856 33.1983 23.0697 33.0526C23.1998 32.8274 23.1224 32.5381 22.897 32.408Z" fill="white"/>
<path d="M39.6072 21.3413H37.9931V17.6683C37.9931 17.4359 37.8242 17.2427 37.6027 17.204C37.3686 17.1281 36.9694 17.057 36.4103 16.9918C35.7702 16.9172 34.74 16.8388 33.468 16.888C32.6879 16.9182 31.7675 16.9996 30.7595 17.1753V13.398L34.5538 12.1062C34.745 12.041 34.8736 11.8616 34.8736 11.6594C34.8736 11.4572 34.745 11.2777 34.5538 11.2125L25.1916 8.02509C25.0935 7.99164 24.9855 7.99164 24.8874 8.02509L15.5249 11.2128C15.3337 11.2779 15.2052 11.4574 15.2052 11.6594C15.2052 11.8616 15.3337 12.041 15.5249 12.1062L16.8033 12.5413V15.2957C16.8033 15.5558 17.0149 15.7674 17.2753 15.7674C17.5357 15.7674 17.7473 15.5558 17.7473 15.2954V12.8623L19.3197 13.3975V17.2722C18.2568 17.088 17.2905 17.0068 16.481 16.9801C14.2162 16.905 12.6687 17.2148 12.478 17.2552C12.2559 17.2934 12.0861 17.4869 12.0861 17.7198V21.3411H10.472C10.2119 21.3411 10 21.5527 10 21.8131V37.528C10 37.7881 10.2117 38 10.472 38H25.1033H25.1048H25.1063H25.1083H39.6077C39.8678 38 40.0798 37.7883 40.0798 37.528V21.8131C40.0793 21.553 39.8676 21.3413 39.6072 21.3413ZM17.1415 11.6594L25.0394 8.97042L32.9373 11.6594L25.0394 14.3483L17.1415 11.6594ZM24.8874 15.2937C24.9365 15.3104 24.9877 15.3189 25.0394 15.3189C25.0911 15.3189 25.1422 15.3104 25.1914 15.2937L29.8154 13.7193V17.3633C28.2965 17.7045 26.63 18.2684 24.9727 19.1836C23.3569 18.3248 21.7403 17.7886 20.2631 17.4594V13.7193L24.8874 15.2937ZM37.0493 21.8118V21.8133V21.8148V34.9413C36.3771 34.843 35.1557 34.7144 33.5988 34.7691C31.5838 34.8398 28.5985 35.2471 25.5708 36.7509L25.4508 19.9983C28.3689 18.393 31.3204 17.9374 33.2995 17.8403C35.1904 17.7475 36.5091 17.9399 37.0493 18.042V21.8118ZM24.5067 20.0048L24.6265 36.7349C21.6323 35.2099 18.6612 34.7893 16.6502 34.7112C15.3764 34.6615 14.3467 34.7392 13.7069 34.813C13.4598 34.8415 13.2299 34.8747 13.0289 34.9094V18.1159C13.6176 18.023 14.8722 17.8693 16.4753 17.9247C18.4942 17.9943 21.5039 18.415 24.5067 20.0048ZM12.0864 35.5152C12.0866 35.5225 12.0869 35.53 12.0874 35.5372C12.0879 35.5434 12.0884 35.5499 12.0891 35.5562L12.0894 35.5599C12.0899 35.5632 12.0906 35.5664 12.0911 35.5697C12.0929 35.5811 12.0946 35.5929 12.0973 35.6041C12.0983 35.6086 12.0996 35.6128 12.1006 35.6171C12.1033 35.6278 12.1061 35.6385 12.1096 35.649C12.1113 35.654 12.1131 35.6588 12.1148 35.6635C12.1183 35.673 12.1221 35.6825 12.1261 35.6917C12.1283 35.697 12.131 35.7022 12.1335 35.7072C12.1378 35.7157 12.142 35.7242 12.1465 35.7324C12.1495 35.7377 12.1528 35.7426 12.156 35.7479C12.1608 35.7559 12.1657 35.7636 12.171 35.7711C12.1745 35.7758 12.178 35.7806 12.1815 35.7851C12.1872 35.7926 12.193 35.8001 12.1992 35.8073C12.2027 35.8113 12.2064 35.8153 12.2099 35.819C12.2167 35.8265 12.2237 35.8338 12.2309 35.8407C12.2341 35.844 12.2376 35.847 12.2411 35.85C12.2491 35.8572 12.2571 35.8642 12.2653 35.8707C12.2686 35.8732 12.2718 35.8754 12.2751 35.8779C12.2841 35.8847 12.2933 35.8912 12.3025 35.8974C12.3055 35.8994 12.3088 35.9012 12.312 35.9032C12.3218 35.9091 12.3317 35.9149 12.342 35.9201C12.3455 35.9219 12.349 35.9234 12.3525 35.9251C12.3624 35.9299 12.3727 35.9346 12.3829 35.9388C12.3872 35.9406 12.3917 35.9421 12.3961 35.9436C12.4059 35.9471 12.4154 35.9506 12.4254 35.9536C12.4311 35.9553 12.4371 35.9566 12.4431 35.9581C12.4518 35.9603 12.4603 35.9623 12.4693 35.9641C12.477 35.9656 12.4848 35.9666 12.4925 35.9676C12.4997 35.9686 12.5072 35.9698 12.5147 35.9703C12.524 35.971 12.5334 35.9713 12.5429 35.9718C12.5479 35.972 12.5527 35.9725 12.5577 35.9725L12.5621 35.9723C12.5714 35.9723 12.5809 35.9715 12.5904 35.9708C12.5971 35.9703 12.6038 35.9701 12.6106 35.9693C12.6126 35.9691 12.6148 35.9691 12.6168 35.9688C12.6285 35.9673 12.64 35.9653 12.6515 35.9631L12.653 35.9628C12.6832 35.9566 12.7124 35.9473 12.7406 35.9356L12.7426 35.9346C12.7506 35.9311 12.7589 35.9279 12.7666 35.9241C13.0731 35.8392 14.6118 35.5557 16.8008 35.6618C18.4256 35.7404 20.7014 36.0599 23.0766 37.0554H10.9433V22.2851H12.0854V35.501C12.0856 35.5057 12.0861 35.5105 12.0864 35.5152ZM37.4208 35.9623L37.4238 35.9628C37.4317 35.9646 37.4402 35.9656 37.4485 35.9668C37.456 35.9681 37.4634 35.9696 37.4709 35.9703C37.4782 35.971 37.4854 35.9713 37.4926 35.9715C37.5014 35.972 37.5101 35.9728 37.5186 35.9728L37.5214 35.973C37.5283 35.973 37.5351 35.9723 37.5421 35.972C37.5498 35.9718 37.5575 35.9715 37.565 35.9708C37.5755 35.9698 37.5858 35.9681 37.5962 35.9666C37.601 35.9658 37.6055 35.9653 37.6102 35.9643C37.6227 35.9618 37.6347 35.9588 37.6469 35.9556C37.6492 35.9548 37.6517 35.9543 37.6542 35.9538C37.6671 35.9501 37.6799 35.9456 37.6923 35.9406C37.6923 35.9406 37.6953 35.9396 37.6968 35.9388C37.7093 35.9339 37.7213 35.9284 37.7333 35.9224C37.735 35.9216 37.7368 35.9206 37.7385 35.9199C37.7495 35.9141 37.76 35.9079 37.7705 35.9014C37.7732 35.8997 37.776 35.8982 37.7787 35.8964C37.7877 35.8907 37.7962 35.8844 37.8047 35.8779C37.8087 35.8749 37.8127 35.8722 37.8167 35.869C37.8234 35.8635 37.8299 35.8577 37.8364 35.852C37.8416 35.8475 37.8469 35.843 37.8516 35.838C37.8566 35.8333 37.8611 35.828 37.8658 35.823C37.8718 35.8168 37.8776 35.8105 37.8833 35.8038C37.8868 35.7996 37.8903 35.7951 37.8935 35.7906C37.8995 35.7828 37.9055 35.7751 37.911 35.7671C37.914 35.7629 37.9165 35.7584 37.9193 35.7541C37.9247 35.7456 37.93 35.7372 37.935 35.7284C37.9377 35.7234 37.9402 35.7179 37.943 35.7129C37.9472 35.7047 37.9515 35.6965 37.9552 35.6877C37.9582 35.6807 37.9607 35.6735 37.9634 35.6663C37.9662 35.6593 37.9689 35.6523 37.9712 35.6448C37.9742 35.6353 37.9767 35.6256 37.9792 35.6158C37.9804 35.6111 37.9819 35.6066 37.9829 35.6019L37.9832 35.5996C37.9852 35.5899 37.9867 35.5796 37.9882 35.5697C37.9889 35.5637 37.9901 35.5579 37.9909 35.5519C37.9916 35.5442 37.9919 35.5365 37.9924 35.5287C37.9929 35.5205 37.9936 35.512 37.9936 35.5038L37.9939 35.501V22.2851H39.1359V37.0559H27.1916C32.4587 34.9249 37.3658 35.9503 37.4208 35.9623Z" fill="white"/>
</svg>
