<?xml version="1.0" encoding="UTF-8"?>
<svg version="1.1" xmlns="http://www.w3.org/2000/svg" width="4134" height="2449">
<path d="M0 0 C12.51702487 7.16445912 20.04003395 18.36263751 26.8125 30.6875 C27.21291504 31.4103418 27.61333008 32.13318359 28.02587891 32.87792969 C50.97879373 75.27102971 59.76849073 126.68448504 67.8125 173.6875 C67.96205139 174.56007446 68.11160278 175.43264893 68.26568604 176.33166504 C79.44250519 241.91220659 85.78229974 308.23945836 90.62890625 374.5546875 C90.69196032 375.4141058 90.75501439 376.2735241 90.81997919 377.15898538 C93.95276558 419.88272644 96.46413634 462.6404807 98.93615723 505.40664673 C100.22117254 527.63425505 101.53613814 549.86011145 102.8515625 572.0859375 C102.91618746 573.17860278 102.98081242 574.27126807 103.04739571 575.39704442 C108.96158083 675.3823215 115.69702466 775.32115869 178.8125 1263.6875 C179.00589966 1264.63127502 179.19929932 1265.57505005 179.39855957 1266.54742432 C189.35078746 1315.05902723 200.99451421 1363.41848209 215.8125 1410.6875 C216.110495 1411.63908997 216.40848999 1412.59067993 216.71551514 1413.57110596 C231.60636191 1461.0044549 248.60317239 1507.15140821 270.8125 1551.6875 C271.36019043 1552.78690918 271.90788086 1553.88631836 272.47216797 1555.01904297 C288.34781915 1586.69334503 307.04787235 1616.49438369 329.8125 1643.6875 C330.25432617 1644.22101074 330.69615234 1644.75452148 331.15136719 1645.30419922 C336.85673331 1652.18279825 342.74565757 1658.79963397 349.0625 1665.125 C349.61639404 1665.67969971 350.17028809 1666.23439941 350.7409668 1666.8059082 C391.20981642 1706.73573215 444.25878608 1730.31278702 501.2890625 1730.78125 C545.52095262 1730.41940278 587.74282504 1717.59859353 627.8125 1699.6875 C628.74191406 1699.27242187 629.67132812 1698.85734375 630.62890625 1698.4296875 C643.82895121 1692.47333534 656.44347333 1685.62612246 668.95703125 1678.34765625 C671.7363285 1676.73178576 674.52390348 1675.1310028 677.3125 1673.53125 C691.20896189 1665.49996745 704.5732991 1656.75580476 717.8125 1647.6875 C718.59463867 1647.1527002 719.37677734 1646.61790039 720.18261719 1646.06689453 C731.58204036 1638.23711639 742.55311554 1629.86461999 753.51855469 1621.44238281 C756.41162596 1619.22916481 759.32756929 1617.04928845 762.25 1614.875 C778.71570062 1602.54898117 794.54989985 1589.41052091 810.19580078 1576.06591797 C811.90861972 1574.60554713 813.62429531 1573.14856922 815.33984375 1571.69140625 C821.78559371 1566.20408011 828.13168253 1560.63579331 834.37109375 1554.9140625 C836.47404833 1552.99616793 838.59919156 1551.11373955 840.75 1549.25 C846.20238969 1544.50399278 851.50429634 1539.59322184 856.8125 1534.6875 C857.41046387 1534.13610352 858.00842773 1533.58470703 858.62451172 1533.01660156 C865.80776782 1526.38619194 872.88422881 1519.68464137 879.75268555 1512.72802734 C882.8862543 1509.56847367 886.09922964 1506.61856487 889.546875 1503.80859375 C891.51974219 1501.96158188 893.1272432 1500.12360061 894.828125 1498.03515625 C901.94839148 1489.62802149 907.3100762 1485.53046108 918.5 1484.5 C921.42317958 1484.27355984 924.34570721 1484.07715668 927.27246094 1483.90332031 C937.75954683 1483.01226073 948.4100044 1477.60373459 955.625 1470 C963.11644248 1460.71061133 966.6605265 1448.79818107 967.05078125 1437.01171875 C967.76752847 1417.83948037 967.76752847 1417.83948037 973.875 1411.875 C975.84228444 1410.13232677 977.8213386 1408.40284089 979.8125 1406.6875 C981.55598499 1404.70929051 983.13515124 1402.65214649 984.75 1400.5625 C987.22572011 1397.36951518 989.0222098 1395.19683256 992.8125 1393.6875 C998.38979934 1399.17402955 1003.91791457 1404.64179811 1009.00390625 1410.59375 C1011.22759018 1413.16803636 1013.51827054 1415.67592249 1015.8125 1418.1875 C1018.696701 1421.35011557 1021.56427475 1424.52190488 1024.375 1427.75 C1028.46707589 1432.44582479 1032.59705826 1437.10178297 1036.8125 1441.6875 C1037.534375 1442.47640625 1038.25625 1443.2653125 1039 1444.078125 C1054.8962968 1460.76923664 1074.5508616 1465.13475913 1096.8125 1465.6875 C1097.6905127 1465.70941406 1098.56852539 1465.73132812 1099.47314453 1465.75390625 C1133.74808576 1466.46024198 1176.96337471 1465.22810602 1204.5625 1441.875 C1215.66912692 1431.0768905 1221.60381139 1414.96502106 1221.84558487 1399.58252144 C1221.78178623 1397.35942718 1221.66628644 1395.14572683 1221.52783203 1392.92602539 C1221.47973452 1392.07386727 1221.431637 1391.22170916 1221.38208199 1390.34372807 C1220.72284757 1379.30048173 1219.76731234 1368.27775849 1218.82424545 1357.25588799 C1218.48475842 1353.2841799 1218.1499572 1349.31209168 1217.81668091 1345.33985901 C1216.92991157 1334.78071816 1216.03643858 1324.22214819 1215.13776505 1313.66401392 C1214.54326772 1306.67950644 1213.95226292 1299.69472401 1213.36807072 1292.70934635 C1213.09162842 1289.40661391 1212.81201052 1286.10419707 1212.52816391 1282.8020916 C1212.21354841 1279.14121226 1211.90645333 1275.47977487 1211.60107422 1271.81811523 C1211.5055426 1270.7288826 1211.41001099 1269.63964996 1211.31158447 1268.51741028 C1211.23026276 1267.52407684 1211.14894104 1266.53074341 1211.06515503 1265.50730896 C1210.95510541 1264.21197817 1210.95510541 1264.21197817 1210.84283257 1262.89047909 C1210.8125 1260.6875 1210.8125 1260.6875 1211.8125 1257.6875 C1214.33202878 1263.72103751 1216.84299578 1269.75758687 1219.3203125 1275.80859375 C1230.81839383 1303.69062047 1244.83327762 1329.186046 1263.8125 1352.6875 C1264.29122559 1353.28336914 1264.76995117 1353.87923828 1265.26318359 1354.49316406 C1277.25153341 1369.28587933 1290.73623054 1383.17127818 1306.11914062 1394.43408203 C1307.83845412 1395.70671114 1309.52148684 1397.01793746 1311.203125 1398.33984375 C1319.69596198 1404.91307499 1328.70620359 1410.22300254 1338.13256836 1415.36083984 C1339.08397705 1415.8811377 1340.03538574 1416.40143555 1341.015625 1416.9375 C1341.86801758 1417.39640625 1342.72041016 1417.8553125 1343.59863281 1418.328125 C1345.68811425 1419.61112375 1347.12473917 1420.93354209 1348.8125 1422.6875 C1344.88622144 1428.66235543 1340.9572715 1434.63544807 1337.02661133 1440.60742188 C1335.69464081 1442.63177317 1334.3632433 1444.65650163 1333.0324707 1446.68164062 C1325.08579534 1458.77375682 1317.07236854 1470.80692886 1308.8125 1482.6875 C1307.7457605 1484.22833252 1307.7457605 1484.22833252 1306.6574707 1485.80029297 C1304.73352457 1488.57768007 1302.80539723 1491.35209362 1300.875 1494.125 C1300.1946167 1495.10235107 1299.5142334 1496.07970215 1298.81323242 1497.08666992 C1266.70661938 1543.16710656 1233.31263063 1588.47393066 1197.80859375 1632.00390625 C1195.41253947 1634.94353408 1193.0431009 1637.90280009 1190.6875 1640.875 C1187.19327638 1645.25933112 1183.57939555 1649.53443022 1179.9465332 1653.80371094 C1177.0490054 1657.21256718 1174.19486877 1660.65124861 1171.375 1664.125 C1166.49051924 1670.11998438 1161.4611864 1675.98451992 1156.40820312 1681.83740234 C1154.79494335 1683.70785562 1153.18633607 1685.58223645 1151.578125 1687.45703125 C1145.80299003 1694.17336975 1139.94169422 1700.78697564 1133.90576172 1707.27026367 C1131.3685785 1709.99602702 1128.86593099 1712.73944897 1126.4375 1715.5625 C1122.02473341 1720.6574334 1117.38638644 1725.54513917 1112.77416992 1730.45874023 C1110.31282369 1733.082968 1107.85808099 1735.71298487 1105.41186523 1738.35131836 C1096.66032365 1747.77106006 1087.69857601 1756.95800692 1078.59399414 1766.03637695 C1076.3485842 1768.27635186 1074.10867161 1770.52172696 1071.86914062 1772.76757812 C1070.41438354 1774.22167542 1068.95931682 1775.67546303 1067.50390625 1777.12890625 C1066.84854385 1777.78629288 1066.19318146 1778.4436795 1065.51795959 1779.12098694 C1061.66373707 1782.9559766 1057.69448845 1786.59927614 1053.58009338 1790.15348816 C1051.5665466 1791.90095149 1049.62225575 1793.70830357 1047.69921875 1795.5546875 C1046.67175537 1796.53477783 1046.67175537 1796.53477783 1045.62353516 1797.53466797 C1044.92276855 1798.20385254 1044.22200195 1798.87303711 1043.5 1799.5625 C1037.94494558 1804.83286542 1032.33743492 1809.8630028 1026.33984375 1814.625 C1023.62504395 1816.84047804 1021.06716591 1819.17790467 1018.5 1821.5625 C1013.36286786 1826.28428954 1007.98298196 1830.57947017 1002.46875 1834.84375 C1000.02776551 1836.73186193 997.61319579 1838.64696147 995.21875 1840.59375 C967.69253213 1862.97360107 937.82341543 1882.50842098 906.8125 1899.6875 C905.77512695 1900.26371094 904.73775391 1900.83992188 903.66894531 1901.43359375 C835.7526715 1938.97423841 761.39741129 1965.06218669 633.078125 1986.42321777 C630.95712105 1986.67063014 628.83790607 1986.92968285 626.71875 1987.19238281 C580.84711518 1992.6874224 530.83992356 1992.82205115 485.00067139 1986.96612549 C482.62662919 1986.66383259 480.25118166 1986.37446622 477.87548828 1986.08544922 C385.46489696 1974.69860912 293.86964472 1944.471818 217.8125 1889.6875 C217.03890137 1889.13030273 216.26530273 1888.57310547 215.46826172 1887.99902344 C206.01840824 1881.16407115 196.71584312 1874.22521756 187.8125 1866.6875 C186.76998863 1865.81846145 185.72699472 1864.95000152 184.68359375 1864.08203125 C177.72030942 1858.26722323 170.96825954 1852.26132861 164.32617188 1846.08349609 C162.80791312 1844.68326971 161.27382598 1843.30264835 159.734375 1841.92578125 C141.2842524 1825.33555004 124.7963209 1806.43890027 109.8125 1786.6875 C109.01440918 1785.6363501 109.01440918 1785.6363501 108.20019531 1784.56396484 C82.45844648 1750.49662442 61.00955393 1713.77441334 41.8125 1675.6875 C41.51514954 1675.09857971 41.21779907 1674.50965942 40.91143799 1673.90289307 C23.55860643 1639.4892388 8.99910632 1603.88283907 -4.1875 1567.6875 C-4.45608826 1566.95349976 -4.72467651 1566.21949951 -5.00140381 1565.46325684 C-33.14788283 1488.52940588 -53.78344815 1408.88561363 -70.1875 1328.6875 C-70.39785889 1327.66408508 -70.60821777 1326.64067017 -70.82495117 1325.58624268 C-90.08414018 1231.83865762 -103.32206847 1136.91136935 -126.9375 834.9375 C-126.96745937 834.21634003 -126.99741875 833.49518005 -127.02828598 832.75216675 C-128.48257143 797.60259952 -129.34949326 762.4821155 -129.35475707 727.30209517 C-129.35548453 724.54569229 -129.35764944 721.78929395 -129.36025429 719.03289223 C-129.369427 709.2850273 -129.37360044 699.53717574 -129.37280273 689.78930664 C-129.37227307 681.89475453 -129.3792714 674.00025231 -129.39331055 666.10571289 C-129.47587642 618.591567 -129.16705637 571.16586998 -127.1875 523.6875 C-127.13376472 522.39580713 -127.08002945 521.10411427 -127.02466583 519.77327919 C-126.44116198 505.81096098 -125.85422295 491.84851511 -125.09375 477.89453125 C-125.02442261 476.61367142 -124.95509521 475.33281158 -124.88366699 474.01313782 C-120.46621787 393.30329027 -113.53399129 312.76153618 -83.4375 115.75 C-83.10691589 114.07277359 -83.10691589 114.07277359 -82.76965332 112.36166382 C-75.57479052 76.06414045 -65.32002004 26.57276464 -32.578125 3.87890625 C-22.17281682 -2.53975279 -11.72457909 -5.31126494 0 0 Z " fill="#00CBFE" transform="translate(129.1875,459.3125)"/>
<path d="M0 0 C10.29511413 7.04796331 18.50043508 15.48630882 25.375 25.875 C25.77041992 26.47103027 26.16583984 27.06706055 26.57324219 27.68115234 C72.69126296 98.57709466 75.37641668 202.5509921 79.375 370.875 C79.3620993 372.2016568 79.3620993 372.2016568 79.34893799 373.55511475 C78.46993663 458.03267503 72.57784322 542.42978234 -21.625 1025.875 C-21.99367188 1026.73496582 -22.36234375 1027.59493164 -22.7421875 1028.48095703 C-28.60749093 1042.0169087 -36.18857882 1058.7950457 -50.625 1064.875 C-55.69085403 1065.88235912 -59.7626864 1065.21891924 -64.1875 1062.5625 C-98.53192386 1036.72977911 -103.93553521 965.11861958 -110.625 925.875 C-110.76208374 925.07441162 -110.89916748 924.27382324 -111.04040527 923.44897461 C-123.2468549 851.8790255 -129.02598444 779.15655847 -133.44927979 706.73876953 C-133.61245284 704.07948516 -133.78125856 701.42061041 -133.95068359 698.76171875 C-134.52604864 689.45134282 -134.74883739 680.20408306 -134.625 670.875 C-135.48923584 671.28000732 -136.35347168 671.68501465 -137.24389648 672.10229492 C-162.99239557 684.14498178 -189.02282852 695.46578551 -215.18945312 706.56689453 C-219.27493587 708.30035954 -223.35720678 710.04110568 -227.43669128 711.78863525 C-230.47742171 713.09108555 -233.52003975 714.38909578 -236.5625 715.6875 C-237.59721436 716.1314209 -238.63192871 716.5753418 -239.69799805 717.03271484 C-240.61105713 717.42023926 -241.52411621 717.80776367 -242.46484375 718.20703125 C-243.61521118 718.69780151 -243.61521118 718.69780151 -244.78881836 719.19848633 C-246.625 719.875 -246.625 719.875 -248.625 719.875 C-248.64687378 721.13993286 -248.64687378 721.13993286 -248.66918945 722.43041992 C-250.47303536 818.37844976 -256.35709457 919.1671128 -304.94921875 1060.38671875 C-308.82594814 1063.82968821 -312.28158741 1064.32389609 -317.32421875 1064.18359375 C-324.3269926 1063.24434225 -329.13089509 1057.88404155 -333.625 1052.875 C-335.59761818 1050.24605968 -337.31801869 1047.50955722 -339 1044.6875 C-339.70370728 1043.51356689 -339.70370728 1043.51356689 -340.42163086 1042.31591797 C-391.07459876 955.86704235 -402.85932495 834.92632255 -438.625 297.875 C-438.48336426 296.60156738 -438.34172852 295.32813477 -438.19580078 294.01611328 C-428.32030037 207.8428241 -428.32030037 207.8428241 -399.625 180.875 C-390.78827003 173.93802305 -381.87329008 170.9516329 -370.625 171.875 C-357.31623005 173.99306239 -347.67839643 179.03265627 -337.625 187.875 C-336.94695312 188.46925781 -336.26890625 189.06351563 -335.5703125 189.67578125 C-313.66952732 210.21326454 -301.89789267 242.13770073 -292.625 269.875 C-292.29290527 270.85404297 -291.96081055 271.83308594 -291.61865234 272.84179688 C-264.8680797 352.49491918 -257.85789847 438.63752215 -251.625 521.875 C-250.42456055 521.52945068 -249.22412109 521.18390137 -247.98730469 520.82788086 C-222.33011013 513.46216762 -196.602808 506.46636136 -170.70466614 500.00355911 C-168.68490447 499.49935206 -166.66549131 498.9937672 -164.64611816 498.48800659 C-160.86058929 497.54078323 -157.07314342 496.60141061 -153.28515625 495.6640625 C-152.14677811 495.38036301 -151.00839996 495.09666351 -149.83552551 494.80436707 C-148.27350655 494.42094902 -148.27350655 494.42094902 -146.67993164 494.02978516 C-145.77151016 493.80553864 -144.86308868 493.58129211 -143.92713928 493.35025024 C-141.625 492.875 -141.625 492.875 -138.625 492.875 C-138.63547363 492.04967773 -138.64594727 491.22435547 -138.65673828 490.37402344 C-139.69402958 392.50099391 -134.22524617 293.48012892 -60.66259766 7.83544922 C-43.61450082 -9.46574768 -21.33988752 -12.71376397 0 0 Z " fill="#FECB28" transform="translate(809.625,7.125)"/>
<path d="M0 0 C41.59875919 28.1272749 55.61180095 83.08999322 64.62890625 129.5234375 C74.13883841 180.46231194 78.14848214 232.61643565 78.16796875 284.3984375 C78.17120417 286.49020406 78.17456967 288.58197042 78.17805481 290.67373657 C78.18398716 295.03851847 78.1859014 299.40328077 78.18530273 303.76806641 C78.1852224 308.1261824 78.19202538 312.48419119 78.20581055 316.84228516 C78.33358218 357.94134221 77.08789795 398.93230158 74.25 439.9375 C74.12644638 441.75619598 74.12644638 441.75619598 74.00039673 443.6116333 C68.31398445 526.79727985 58.68688212 609.66572 27 801 C26.76323547 802.23260559 26.52647095 803.46521118 26.28253174 804.73516846 C8.79941967 895.54026662 -11.97943132 986.11670088 -41 1074 C-41.27114624 1074.82332825 -41.54229248 1075.64665649 -41.82165527 1076.49493408 C-87.46567782 1214.94627209 -87.46567782 1214.94627209 -122.02734375 1234.125 C-127.08144028 1236.36681707 -131.70345516 1236.58173267 -137 1235 C-150.4831418 1228.94869233 -157.16919972 1213.55744893 -162.38720703 1200.5390625 C-163.65444644 1197.04378127 -164.84684632 1193.53454791 -166 1190 C-166.21032867 1189.35938629 -166.42065735 1188.71877258 -166.63735962 1188.05874634 C-193.36728802 1106.2198783 -196.29471394 1014.87358503 -200.125 929.5625 C-200.16370209 928.70105377 -200.20240417 927.83960754 -200.24227905 926.95205688 C-201.48603334 898.81690447 -202.16540152 870.68028131 -202.53222656 842.52191162 C-202.57269922 839.48458552 -202.61671664 836.44731475 -202.66064835 833.41003704 C-203.09586203 803.16399263 -203.0373733 772.93342676 -202.625 742.6875 C-202.61439293 741.90417171 -202.60378586 741.12084343 -202.59285736 740.31377792 C-201.37928869 651.43008662 -197.21802817 562.56793687 -79 15 C-78.39027344 14.24589844 -77.78054688 13.49179688 -77.15234375 12.71484375 C-57.21550649 -11.15204767 -26.50101102 -15.96121883 0 0 Z " fill="#FECB28" transform="translate(1193,110)"/>
<path d="M0 0 C1.15769394 -0.02207016 1.15769394 -0.02207016 2.33877563 -0.04458618 C4.51200325 -0.07976606 6.68205738 -0.07942203 8.85546875 -0.06640625 C10.08289795 -0.06713135 11.31032715 -0.06785645 12.57495117 -0.06860352 C16.82878971 0.7606079 18.21545664 2.12777521 20.8125 5.5625 C22.05712891 8.87402344 22.05712891 8.87402344 22.9140625 12.671875 C23.07331207 13.36843201 23.23256165 14.06498901 23.39663696 14.78265381 C28.81899656 39.15917787 31.93000967 64.12659421 34.73828125 88.9140625 C34.92924157 90.58503305 34.92924157 90.58503305 35.12405968 92.28976059 C37.81699928 115.90345594 40.14323454 139.54525847 42.30688477 163.2127037 C42.63248054 166.76921052 42.96044312 170.32549319 43.28881836 173.88174438 C50.40909643 251.11868893 56.71876026 328.43016959 63.16166687 405.72584534 C63.23944518 406.65863298 63.31722349 407.59142062 63.39735872 408.55247456 C63.77522183 413.08575597 64.15223321 417.61910521 64.52743244 422.15260792 C65.16605781 429.86144558 65.80935402 437.56968069 66.48301506 445.27554744 C66.77034671 448.56524181 67.05383369 451.85526295 67.33711624 455.14530814 C67.46877982 456.66092615 67.60239108 458.1763766 67.73823166 459.69162595 C70.63115555 491.96961757 70.63115555 491.96961757 61.78515625 502.75 C43.65981275 519.40378096 7.72131175 518.75054336 -15.14648438 518.74780273 C-17.18640759 518.74999882 -19.22579578 518.76828545 -21.265625 518.78710938 C-38.55597276 518.86234242 -51.89746746 517.19524418 -64.765625 505.06640625 C-67.97649393 501.74678209 -70.83632744 498.21431592 -73.69921875 494.59375 C-76.60510225 491.05377261 -79.67954071 487.71344299 -82.8125 484.375 C-89.69981511 477.0349331 -89.69981511 477.0349331 -92.75 473.5 C-96.75062438 468.86717819 -100.92999088 464.39929865 -105.08984375 459.91015625 C-107.90726401 456.86950493 -110.70515015 453.81142271 -113.5 450.75 C-123.49819288 439.83542756 -133.60192058 429.06247286 -144.12182617 418.64746094 C-147.66704336 415.12525549 -151.02819723 411.53404679 -154.2578125 407.71875 C-157.10479603 404.53750525 -160.11151662 401.52296844 -163.125 398.5 C-163.69871338 397.9217749 -164.27242676 397.3435498 -164.86352539 396.74780273 C-167.84234877 393.77908992 -170.87867019 390.93128916 -174.06640625 388.1875 C-178.65970043 384.21544595 -182.91953975 379.94103952 -187.1875 375.625 C-187.96222656 374.84576172 -188.73695313 374.06652344 -189.53515625 373.26367188 C-191.42160757 371.3655758 -193.30566245 369.46516851 -195.1875 367.5625 C-195.02894531 368.76132813 -194.87039063 369.96015625 -194.70703125 371.1953125 C-190.77386747 401.52488917 -187.09817332 432.03177093 -185.1875 462.5625 C-185.13110352 463.44437988 -185.07470703 464.32625977 -185.01660156 465.23486328 C-183.96615972 482.26258765 -183.23019379 499.50162874 -185 516.5 C-185.07001221 517.20278076 -185.14002441 517.90556152 -185.2121582 518.62963867 C-185.94298506 524.66642885 -187.17036199 531.617394 -192.1875 535.5625 C-202.59499262 539.32122526 -214.26067165 539.61879711 -225.1875 540.5625 C-227.99549698 540.81498609 -230.80319849 541.0706008 -233.61090088 541.32633972 C-235.47974392 541.49633322 -237.34868116 541.66529449 -239.2177124 541.83320618 C-248.41500807 542.66194842 -257.59637778 543.61806572 -266.77734375 544.61132812 C-315.66890176 549.81319746 -315.66890176 549.81319746 -326.1875 542 C-331.64521987 536.44159912 -332.60049872 528.62713214 -333.1887207 521.14672852 C-333.26159963 520.33589026 -333.33447855 519.52505201 -333.40956593 518.68964291 C-333.56874368 516.9011556 -333.72279569 515.11220651 -333.8723793 513.32289124 C-334.12457387 510.30633253 -334.39023932 507.29117908 -334.65841675 504.27600098 C-335.06375045 499.69994654 -335.46285078 495.12340425 -335.85751343 490.54641724 C-336.94862848 477.90919679 -338.08119716 465.27562503 -339.21140218 452.64185214 C-339.41655201 450.34715366 -339.62129111 448.05241882 -339.82595634 445.75767708 C-342.62685733 414.37089192 -345.56626788 382.99739916 -348.5234375 351.625 C-348.70136152 349.73688005 -348.70136152 349.73688005 -348.88287997 347.81061625 C-351.06836561 324.61888812 -353.25846128 301.42759552 -355.45212513 278.23663956 C-360.22925508 227.73379915 -365.00584843 177.23093083 -369.54011369 126.70559382 C-369.7961798 123.85973323 -370.05413206 121.01404984 -370.31267357 118.16841316 C-373.29496602 85.29936411 -373.29496602 85.29936411 -373.94213867 71.13305664 C-373.98278852 70.25577376 -374.02343836 69.37849089 -374.06532001 68.47462368 C-374.51845161 56.12552811 -372.79152891 45.40640111 -366.5 34.6875 C-360.26421202 28.95731645 -349.90126555 28.41163359 -341.875 27.0625 C-340.61550537 26.84819336 -339.35601074 26.63388672 -338.05834961 26.41308594 C-317.71091896 23.05706964 -296.83077001 20.48817582 -276.1875 20.375 C-274.99125 20.36082031 -273.795 20.34664062 -272.5625 20.33203125 C-265.30254806 20.82779186 -261.70859713 23.43127457 -256.875 28.5 C-256.30523438 29.08483154 -255.73546875 29.66966309 -255.1484375 30.2722168 C-250.16599181 35.44937714 -245.63861044 40.92491807 -241.1875 46.5625 C-240.19513583 47.77932749 -239.20017367 48.99403919 -238.203125 50.20703125 C-231.98281916 57.78121831 -225.92479398 65.45597258 -220.00195312 73.26489258 C-216.38371364 78.02668387 -212.69127261 82.71945971 -208.9375 87.375 C-204.78437593 92.53223465 -200.74499629 97.75331704 -196.796875 103.0703125 C-193.30259736 107.76628074 -189.73911776 112.40986443 -186.1875 117.0625 C-181.30868483 123.45716104 -176.44947056 129.8640899 -171.63671875 136.30859375 C-168.97410107 139.85913504 -166.27357918 143.38061695 -163.578125 146.90625 C-157.71453304 154.57741543 -151.893674 162.27337985 -146.1875 170.0625 C-140.55397152 177.75184295 -134.80962653 185.35066899 -129.01879883 192.92211914 C-124.93865206 198.25792475 -120.89067951 203.61554933 -116.875 209 C-111.43650129 216.28618192 -105.83985905 223.44141773 -100.1875 230.5625 C-99.8575 230.2325 -99.5275 229.9025 -99.1875 229.5625 C-99.37510167 227.6676362 -99.64512402 225.78093691 -99.94473267 223.90052795 C-100.1380719 222.66933731 -100.33141113 221.43814667 -100.53060913 220.16964722 C-100.75289075 218.79154881 -100.97527589 217.4134671 -101.19775391 216.03540039 C-101.42643406 214.5929782 -101.6546123 213.15047636 -101.88232422 211.707901 C-102.37611835 208.58679967 -102.87351435 205.46630062 -103.37364578 202.34620857 C-104.17020927 197.37673753 -104.95894152 192.40604284 -105.74667358 187.43516541 C-107.00074678 179.52766355 -108.26025126 171.6210375 -109.52195394 163.71474975 C-111.76115072 149.68217348 -113.99154739 135.64819783 -116.21959627 121.61384767 C-116.99804203 116.71183284 -117.77890207 111.81021079 -118.56174362 106.90889615 C-120.99447898 91.67256659 -123.39935991 76.43177086 -125.6836822 61.172387 C-125.90193757 59.71817493 -126.12191668 58.26422026 -126.34381986 56.81056035 C-130.8411752 27.28356389 -130.8411752 27.28356389 -125.1875 19.5625 C-119.20457266 15.56315341 -112.60114053 13.53500269 -105.625 12.0625 C-104.69284668 11.86019775 -103.76069336 11.65789551 -102.80029297 11.44946289 C-69.18832594 4.42869356 -34.33385767 0.33636936 0 0 Z " fill="#00CBFE" transform="translate(1252.1875,1376.4375)"/>
<path d="M0 0 C0.82886719 0.70382812 1.65773438 1.40765625 2.51171875 2.1328125 C5.06390965 4.36848365 7.53978691 6.66354763 10 9 C10.474375 9.44714355 10.94875 9.89428711 11.4375 10.35498047 C24.45466775 22.69840809 34.02570442 36.55106654 43 52 C43.36335449 52.61536621 43.72670898 53.23073242 44.10107422 53.86474609 C85.12474349 123.87402371 87.50566288 217.37456077 90.0703125 296.3203125 C90.09190524 296.9810147 90.11349798 297.6417169 90.13574505 298.32244039 C91.22278566 331.80390442 91.30817075 365.27885641 91.25713813 398.7750079 C91.24831369 405.25683453 91.25476799 411.7385854 91.264395 418.22040743 C91.27347042 424.59288468 91.27475961 430.96532896 91.26951766 437.33781058 C91.2664323 441.09081032 91.26589761 444.84375786 91.27259064 448.59675407 C91.27944784 452.71943714 91.2699485 456.84192597 91.25878906 460.96459961 C91.26283752 462.17401718 91.26688599 463.38343475 91.27105713 464.62950134 C91.23114169 472.57894664 91.06447736 480.43493676 86 487 C76.85389403 493.30674425 64.12637544 492.4909708 53.375 493.0625 C52.63946899 493.10324646 51.90393799 493.14399292 51.14611816 493.18597412 C26.47545729 494.54864771 1.83232191 495.08651507 -22.875 495.125 C-23.83265259 495.12767883 -24.79030518 495.13035767 -25.77697754 495.13311768 C-35.81954764 495.15450507 -45.84868826 495.05330114 -55.8828125 494.6171875 C-56.68443817 494.58682404 -57.48606384 494.55646057 -58.3119812 494.525177 C-71.2946542 493.87588038 -71.2946542 493.87588038 -74.875 489.9375 C-77.54434742 482.96753729 -78.4220808 475.64525106 -79.0625 468.25 C-79.14483887 467.31824951 -79.22717773 466.38649902 -79.31201172 465.42651367 C-80.88640007 446.31718015 -81 427.16381198 -81 408 C-112.68 408 -144.36 408 -177 408 C-177 413.61 -177 419.22 -177 425 C-177.08100232 427.88379887 -177.18367044 430.76731855 -177.33203125 433.6484375 C-177.38624741 434.70169472 -177.38624741 434.70169472 -177.44155884 435.77622986 C-177.5582695 437.9762732 -177.6838269 440.17562577 -177.8125 442.375 C-177.85601593 443.13259613 -177.89953186 443.89019226 -177.94436646 444.67074585 C-178.4675383 453.59167722 -179.06571524 462.47411884 -180.4375 471.3125 C-180.54747314 472.0329248 -180.65744629 472.75334961 -180.77075195 473.49560547 C-181.51976231 477.75583021 -182.77285647 481.28993169 -185 485 C-199.5842672 494.07465514 -224.59491509 491.20705019 -241.3125 491.1875 C-242.19518555 491.18722809 -243.07787109 491.18695618 -243.98730469 491.18667603 C-266.70701478 491.15485499 -289.35729625 490.16698366 -311.9375 487.5625 C-312.89527344 487.45252686 -313.85304688 487.34255371 -314.83984375 487.22924805 C-319.73136081 486.60608336 -324.5596881 485.76039146 -329.37890625 484.71484375 C-330.33482666 484.50851318 -331.29074707 484.30218262 -332.27563477 484.08959961 C-335.96001977 482.61604371 -337.65050427 481.22389759 -340 478 C-340.7063844 474.75845976 -340.65263708 471.60344127 -340.59375 468.296875 C-340.59514984 467.32871353 -340.59654968 466.36055206 -340.59799194 465.36305237 C-340.59307664 462.15788064 -340.54858558 458.95478875 -340.5 455.75 C-340.48034602 453.48201743 -340.46098224 451.21403233 -340.44189453 448.94604492 C-340.17874378 425.57154046 -338.89103493 402.29505672 -337 379 C-336.90761047 377.86141541 -336.81522095 376.72283081 -336.72003174 375.54974365 C-331.86313449 316.42118727 -324.24519488 257.54970023 -316.11967468 198.79272461 C-315.82045291 196.62024169 -315.52487382 194.44729375 -315.23034668 192.27416992 C-313.11489903 176.71443397 -310.61605295 161.28620522 -307.46484375 145.90234375 C-307.32362406 145.20740877 -307.18240437 144.51247379 -307.03690529 143.79648018 C-297.55205389 97.46605954 -277.8209168 52.53738313 -245 18 C-244.52191895 17.4946875 -244.04383789 16.989375 -243.55126953 16.46875 C-184.9757111 -45.04575251 -66.2516631 -56.96599694 0 0 Z M-142.9375 134.24609375 C-168.55700702 168.15762871 -168 224.4314863 -168 265 C-140.61 265 -113.22 265 -85 265 C-83.31777408 259.95332224 -82.65651537 256.14833662 -82.55078125 250.98046875 C-82.51735878 249.8298143 -82.51735878 249.8298143 -82.48326111 248.65591431 C-82.41521225 246.16657626 -82.36244486 243.67726311 -82.3125 241.1875 C-82.29320435 240.33409027 -82.27390869 239.48068054 -82.25402832 238.60140991 C-79.71385924 178.38542784 -79.71385924 178.38542784 -102.76171875 125.12109375 C-107.65613199 120.71506014 -111.98777083 118.45746744 -118.76953125 118.69921875 C-129.14616572 120.09851972 -136.31076348 126.56388912 -142.9375 134.24609375 Z " fill="#00CBFE" transform="translate(2714,1385)"/>
<path d="M0 0 C15.55977945 13.80955008 28.06337982 30.50752689 38.11352539 48.6640625 C38.57227051 49.48729004 39.03101563 50.31051758 39.50366211 51.15869141 C47.62847299 65.86800118 54.32114879 80.89632896 60.11352539 96.6640625 C60.4907373 97.68322754 60.86794922 98.70239258 61.2565918 99.75244141 C78.34090322 146.57693258 86.24266291 196.49387133 93.11352539 245.6640625 C93.30464905 247.02751801 93.30464905 247.02751801 93.49963379 248.41851807 C99.61417889 292.31314183 103.20148123 336.53129357 107.11352539 380.6640625 C107.22145542 381.87930351 107.22145542 381.87930351 107.33156586 383.11909485 C108.16514996 392.50509703 108.98764819 401.89193932 109.78781128 411.28085327 C110.00171264 413.78997053 110.21725709 416.29894836 110.43460083 418.80776978 C113.61917081 455.75540619 113.61917081 455.75540619 109.11352539 462.6640625 C104.4073616 467.35852614 100.56634075 468.70591062 94.09008789 469.7890625 C93.2158316 469.94882568 92.34157532 470.10858887 91.44082642 470.27319336 C81.50120268 472.0425956 71.50214423 473.393925 61.48852539 474.6640625 C60.51271515 474.79001801 59.53690491 474.91597351 58.53152466 475.04574585 C38.11686641 477.67477343 17.65353761 479.74211563 -2.8543396 481.48999023 C-4.69786062 481.64790586 -6.54085941 481.81188886 -8.38378906 481.9765625 C-16.21507733 482.63983387 -24.0355984 482.9445421 -31.89208984 483.01416016 C-33.27962738 483.03095883 -34.66707064 483.05854928 -36.05419922 483.09619141 C-38.09378084 483.15083366 -40.13141779 483.172774 -42.17163086 483.1875 C-43.36667236 483.20731934 -44.56171387 483.22713867 -45.79296875 483.24755859 C-48.88647461 482.6640625 -48.88647461 482.6640625 -51.22216797 480.38305664 C-52.65881113 478.03599856 -53.58022663 476.27813841 -54.23022461 473.63671875 C-54.51869263 472.47148682 -54.51869263 472.47148682 -54.81298828 471.28271484 C-55.00223877 470.43918457 -55.19148926 469.5956543 -55.38647461 468.7265625 C-55.69838745 467.37618896 -55.69838745 467.37618896 -56.01660156 465.99853516 C-58.85869314 453.03495134 -60.34321343 439.83273055 -61.88647461 426.6640625 C-62.06654053 425.1471582 -62.06654053 425.1471582 -62.25024414 423.59960938 C-62.55533053 420.99705425 -62.85032233 418.39376162 -63.13647461 415.7890625 C-63.21663818 415.0657373 -63.29680176 414.34241211 -63.37939453 413.59716797 C-63.85880897 408.92106755 -63.90964552 404.35617227 -63.88647461 399.6640625 C-89.22541541 401.11795099 -114.42893766 403.05257091 -139.63720703 406.0378418 C-140.5504071 406.14535767 -141.46360718 406.25287354 -142.40447998 406.36364746 C-144.10183416 406.56476118 -145.7987757 406.76940452 -147.49517822 406.97839355 C-151.65514875 407.47592935 -155.68665086 407.77007421 -159.88647461 407.6640625 C-159.82081299 408.32180664 -159.75515137 408.97955078 -159.6875 409.65722656 C-153.44479768 474.75559896 -153.44479768 474.75559896 -161.56445312 484.72412109 C-168.65487388 490.64783924 -180.28927482 491.52041674 -189.19897461 492.7265625 C-190.98343994 492.96971191 -190.98343994 492.96971191 -192.80395508 493.21777344 C-218.95526874 496.59920838 -245.08742846 497.94055544 -271.44897461 497.9765625 C-272.51247131 497.98014771 -273.57596802 497.98373291 -274.67169189 497.98742676 C-307.57965197 498.04738583 -307.57965197 498.04738583 -315.88647461 492.6640625 C-316.87255859 490.36914062 -316.87255859 490.36914062 -317.19506836 487.6953125 C-317.38818604 486.22384766 -317.38818604 486.22384766 -317.58520508 484.72265625 C-317.68462402 483.71332031 -317.78404297 482.70398437 -317.88647461 481.6640625 C-318.04140381 480.25833984 -318.04140381 480.25833984 -318.19946289 478.82421875 C-318.49102753 475.93957926 -318.72734604 473.05486988 -318.94897461 470.1640625 C-319.06595703 468.76027344 -319.06595703 468.76027344 -319.18530273 467.328125 C-320.49667827 450.98470099 -321.08417959 434.61472503 -321.44897461 418.2265625 C-321.46982117 417.30710846 -321.49066772 416.38765442 -321.512146 415.44033813 C-321.8444412 400.58398657 -322.08919212 385.73810649 -321.91253662 370.87768555 C-321.89413497 369.31470902 -321.87686886 367.75171892 -321.8604126 366.1887207 C-321.29201894 312.46627243 -318.999071 258.77334287 -316.06875992 205.13203049 C-315.95171501 202.9648043 -315.83858905 200.79740887 -315.72665405 198.62991333 C-314.95012371 183.70479959 -313.84567358 168.86050067 -311.93725586 154.03515625 C-311.77870621 152.79965027 -311.62015656 151.56414429 -311.45680237 150.29119873 C-309.73299404 137.57105825 -307.05919973 125.09617294 -303.88647461 112.6640625 C-303.66266113 111.78282715 -303.43884766 110.9015918 -303.20825195 109.99365234 C-293.14688595 71.4388585 -274.06346425 37.56788053 -246.88647461 8.6640625 C-246.2922168 8.01566406 -245.69795898 7.36726563 -245.08569336 6.69921875 C-187.20416735 -54.3420928 -71.16160177 -56.61213671 0 0 Z M-146.88647461 127.6640625 C-173.02888221 164.69913993 -165.39518057 220.91873112 -163.88647461 263.6640625 C-160.58421916 264.70708053 -157.97624236 264.62947834 -154.54907227 264.24267578 C-153.47920074 264.12570343 -152.40932922 264.00873108 -151.30703735 263.88821411 C-150.14989227 263.7549472 -148.99274719 263.6216803 -147.80053711 263.484375 C-146.59319916 263.35215546 -145.38586121 263.21993591 -144.14193726 263.08370972 C-138.98659369 262.5188729 -133.83311589 261.93776398 -128.67944336 261.35791016 C-112.74555522 259.57539873 -96.91714802 258.12694482 -80.88647461 257.6640625 C-68.60959839 233.11031005 -85.75103286 171.64893708 -93.64526367 147.32617188 C-97.83712492 135.31351082 -103.60670631 122.51185038 -114.77709961 115.47265625 C-127.33040975 110.66055403 -139.2348 118.09946923 -146.88647461 127.6640625 Z " fill="#00CBFE" transform="translate(755.886474609375,1467.3359375)"/>
<path d="M0 0 C9.39938326 5.09123158 17.83059322 11.34709126 26.13134766 18.04101562 C27.36016119 19.02452991 28.58933959 20.00758847 29.81884766 20.99023438 C31.7260322 22.51529571 33.6321054 24.04162551 35.53442383 25.57275391 C39.08617785 28.42755477 42.66898358 31.23105969 46.30102539 33.98291016 C70.69349901 52.47754538 70.69349901 52.47754538 72.57275391 63.66992188 C72.90030204 71.60503947 71.11617327 76.01702162 66.41552734 82.30859375 C63.74337112 85.91346457 61.20386784 89.61476449 58.63134766 93.29101562 C58.03193359 94.14244141 57.43251953 94.99386719 56.81494141 95.87109375 C21.96034205 145.52245698 -21.54971553 210.13437013 -11.28125 273.96435547 C-10.01810128 281.05524518 -7.94086021 287.51257391 -4.86865234 294.04101562 C-4.41490234 295.00523437 -3.96115234 295.96945312 -3.49365234 296.96289062 C-0.50819231 302.83645874 3.01756498 307.52618076 7.59228516 312.26367188 C9.13134766 314.04101562 9.13134766 314.04101562 9.13134766 316.04101562 C9.70884766 316.30398438 10.28634766 316.56695313 10.88134766 316.83789062 C13.2498071 318.10435852 15.07787705 319.56423353 17.13134766 321.29101562 C33.56775398 334.16709289 55.05577115 337.97437968 75.47509766 335.58007812 C96.09269269 332.75424823 113.09356172 324.62392192 128.13134766 310.04101562 C128.73205078 309.51378906 129.33275391 308.9865625 129.95166016 308.44335938 C168.473732 273.41514986 172.09874119 204.38976145 176.60791016 156.63867188 C176.73959448 155.24981045 176.87129316 153.86095039 177.00300598 152.47209167 C177.59947879 146.16829982 178.18979444 139.86415874 178.7540741 133.55739498 C178.93571191 131.54087215 179.12147703 129.52477519 179.30880737 127.5087738 C179.53966737 125.01854468 179.7635103 122.52765036 179.97879028 120.036026 C181.96211694 98.96669893 181.96211694 98.96669893 189.30712891 91.52929688 C204.30078543 79.29678481 246.23621844 87.32257405 264.13134766 89.04101562 C279.20242931 90.63808531 297.15266736 92.7433024 307.64697266 104.77929688 C314.63832121 114.48280651 313.6681135 128.59160361 314.25634766 140.10351562 C314.29804077 140.89535248 314.33973389 141.68718933 314.38269043 142.50302124 C318.05813863 213.209323 310.02196859 285.58110872 288.13134766 353.04101562 C287.78491211 354.11464355 287.43847656 355.18827148 287.08154297 356.29443359 C269.92294195 408.92408584 244.04727622 455.68082122 206.13134766 496.04101562 C205.21095703 497.02521484 205.21095703 497.02521484 204.27197266 498.02929688 C199.29703878 503.18190696 193.7309221 507.59063489 188.13134766 512.04101562 C187.17615234 512.82476563 186.22095703 513.60851563 185.23681641 514.41601562 C140.32740681 550.38966336 82.63339371 562.60507123 26.19384766 556.91601562 C-36.64707173 549.80643734 -101.73786911 524.86936853 -142.27148438 474.29052734 C-182.40129677 422.73861981 -191.49897984 356.63810119 -183.84130859 293.16992188 C-172.57740302 207.82283173 -135.66414114 122.98310618 -85.86865234 53.04101562 C-85.29614746 52.23647949 -84.72364258 51.43194336 -84.13378906 50.60302734 C-76.52680142 39.97256131 -68.60511576 29.76548001 -59.86865234 20.04101562 C-59.36060059 19.47125 -58.85254883 18.90148438 -58.32910156 18.31445312 C-41.04883883 -1.00738249 -26.18848268 -13.43981709 0 0 Z " fill="#00CBFE" transform="translate(2050.86865234375,1321.958984375)"/>
<path d="M0 0 C1.14082031 0.58265625 2.28164062 1.1653125 3.45703125 1.765625 C21.5796697 11.62434032 38.62727497 24.99721936 53.77734375 38.96484375 C55.78864691 40.80647634 57.84819672 42.5608619 59.9375 44.3125 C71.35700358 54.29878653 86.93102866 70.03215092 88.23828125 85.890625 C88.50709133 98.05781817 88.50709133 98.05781817 84 103 C77.13051733 109.85795669 69.5506428 115.91727124 62 122 C60.73493201 123.03294233 59.4706572 124.06685658 58.20703125 125.1015625 C46.88575747 134.36317791 35.38251789 143.31938459 23.5625 151.9375 C22.80469238 152.49373047 22.04688477 153.04996094 21.26611328 153.62304688 C11.06864339 161.00234806 11.06864339 161.00234806 5.55859375 160.99609375 C1.20819983 159.77836549 -1.45768538 157.8547402 -4.9375 155.0625 C-12.64939191 149.1557864 -20.63319843 143.93025011 -29 139 C-29.61311035 138.63777344 -30.2262207 138.27554687 -30.85791016 137.90234375 C-54.95970509 123.86723996 -83.52044485 115.53961477 -111.2734375 121.8984375 C-122.74789423 125.29025804 -132.76176906 130.33025375 -142 138 C-143.24136719 139.01513672 -143.24136719 139.01513672 -144.5078125 140.05078125 C-165.83003317 158.33174474 -176.88929169 182.25127384 -180 210 C-180.27331446 214.35925074 -180.33455422 218.69544561 -180.3125 223.0625 C-180.30758545 224.23353271 -180.3026709 225.40456543 -180.29760742 226.61108398 C-180.15993882 236.95317308 -179.15358645 246.88807002 -177 257 C-176.8443457 257.74475586 -176.68869141 258.48951172 -176.52832031 259.25683594 C-172.63016921 277.06695147 -164.84346057 294.09107507 -153 308 C-152.21753906 308.98484375 -151.43507813 309.9696875 -150.62890625 310.984375 C-139.21676154 324.62008945 -121.00085866 333.87580248 -104 338 C-103.18789062 338.21140625 -102.37578125 338.4228125 -101.5390625 338.640625 C-76.82441363 344.38821776 -49.71663593 339.95472589 -28 327 C-16.75820088 319.30986818 -6.8107064 308.79542208 -4 295 C-3.92133041 293.41307361 -3.89215886 291.82321751 -3.90234375 290.234375 C-3.90717773 288.90019531 -3.90717773 288.90019531 -3.91210938 287.5390625 C-3.92048828 286.61867188 -3.92886719 285.69828125 -3.9375 284.75 C-3.94426758 283.34621094 -3.94426758 283.34621094 -3.95117188 281.9140625 C-3.96293082 279.60930959 -3.97936574 277.30468773 -4 275 C-4.75796875 275.21914062 -5.5159375 275.43828125 -6.296875 275.6640625 C-15.29631652 278.16843197 -24.36654557 280.22864238 -33.5 282.1875 C-34.71655273 282.44934082 -35.93310547 282.71118164 -37.18652344 282.98095703 C-61.61120694 288.16368985 -61.61120694 288.16368985 -70 283 C-77.52088677 274.64815383 -79.75113277 263.75816459 -82.375 253.125 C-82.65005371 252.0309082 -82.92510742 250.93681641 -83.20849609 249.80957031 C-83.45680176 248.76124023 -83.70510742 247.71291016 -83.9609375 246.6328125 C-84.18571777 245.69324707 -84.41049805 244.75368164 -84.64208984 243.78564453 C-85.08347674 240.35029355 -85.18402438 238.29149004 -84 235 C-78.01726092 228.60629205 -67.78572815 227.9322949 -59.609375 226.3984375 C-57.96838038 226.07815174 -56.32765909 225.75646287 -54.68719482 225.43347168 C-50.29050015 224.57235264 -45.89005564 223.73214867 -41.48843384 222.89662933 C-37.81871288 222.19760419 -34.15126252 221.48705969 -30.48377991 220.77639961 C-19.49828517 218.64790677 -8.50604441 216.55593358 2.48867798 214.47570801 C5.61647805 213.88322344 8.74371926 213.2878273 11.87092495 212.69221497 C43.13983836 206.7384552 74.42975843 201.11898216 106 197 C106.88034912 196.88277588 107.76069824 196.76555176 108.66772461 196.64477539 C114.50001318 195.92417631 120.31434352 195.74747096 126.1875 195.6875 C127.14591797 195.65849609 128.10433594 195.62949219 129.09179688 195.59960938 C134.89317976 195.54748914 138.57683149 195.8561895 143 200 C144.69448815 202.43400703 146.04658139 204.6328768 147.375 207.25 C147.75293701 207.98452393 148.13087402 208.71904785 148.52026367 209.47583008 C159.6378654 231.99146502 165.06763492 257.48690034 165.203125 282.5390625 C165.21013931 283.41462799 165.21715363 284.29019348 165.22438049 285.19229126 C165.24178353 288.00324718 165.24823316 290.81399218 165.25 293.625 C165.25067474 294.58708374 165.25134949 295.54916748 165.25204468 296.54040527 C165.23569263 311.21934578 164.74036799 325.5401859 162 340 C161.82307617 340.95132812 161.64615234 341.90265625 161.46386719 342.8828125 C154.70683965 378.26676326 141.60343667 411.95969682 120 441 C119.56751953 441.58797363 119.13503906 442.17594727 118.68945312 442.78173828 C98.87047294 469.53736153 73.61319629 490.83366296 44 506 C43.2570166 506.38639648 42.5140332 506.77279297 41.74853516 507.17089844 C-13.47807645 535.63724004 -81.94627902 538.49701071 -140.87646484 520.40356445 C-165.64766863 512.42280779 -188.65857384 500.21299155 -209 484 C-210.0003125 483.20464844 -211.000625 482.40929688 -212.03125 481.58984375 C-225.70572999 470.47866179 -238.28272016 457.92170842 -248.72607422 443.71826172 C-250.02250666 441.96964318 -251.35288718 440.25171197 -252.69140625 438.53515625 C-281.87503444 400.63285411 -297.80805603 352.8050363 -305 306 C-305.16516113 304.93604004 -305.33032227 303.87208008 -305.50048828 302.77587891 C-316.89206238 225.72077427 -300.40029837 140.17472587 -253.9375 76.86328125 C-249.54508696 71.01783711 -244.85821594 65.4608807 -240 60 C-239.55833496 59.49662109 -239.11666992 58.99324219 -238.66162109 58.47460938 C-227.9458318 46.28388303 -216.15576924 35.50652686 -203 26 C-202.4627832 25.60635254 -201.92556641 25.21270508 -201.37207031 24.80712891 C-146.28321777 -15.16089616 -62.66204574 -32.04289664 0 0 Z " fill="#00CBFE" transform="translate(3145,1342)"/>
<path d="M0 0 C0.54688477 0.47695312 1.09376953 0.95390625 1.65722656 1.4453125 C14.56439184 12.78360919 32.60708645 29.09401601 34.30078125 47.21875 C34.32989854 55.3715907 33.7078591 60.27613102 28 66.3125 C24.19199748 69.95320534 20.11809125 73.24975308 16.015625 76.55078125 C13.39393405 78.68005615 10.81722492 80.84764058 8.25244141 83.04418945 C1.86423385 88.51336145 -4.6928744 93.70006289 -11.39697266 98.77490234 C-12.96841372 99.9758605 -14.52156778 101.20062718 -16.07421875 102.42578125 C-22.37579168 107.38322946 -28.82615509 112.08778936 -35.4375 116.625 C-36.19506592 117.15851074 -36.95263184 117.69202148 -37.7331543 118.24169922 C-40.81230267 120.31951797 -43.34086727 121.84322861 -46.97265625 122.70703125 C-51.70451645 121.60191293 -55.11424686 118.89762735 -59 116.0625 C-60.70353121 114.86070827 -62.40796427 113.66019392 -64.11328125 112.4609375 C-64.94682129 111.86893555 -65.78036133 111.27693359 -66.63916016 110.66699219 C-92.64468243 92.30445795 -124.27388512 77.32976198 -156.8828125 81.49609375 C-165.1006402 82.98947722 -172.48630488 85.37305727 -180 89 C-180.90105469 89.41894531 -181.80210937 89.83789062 -182.73046875 90.26953125 C-204.21694203 101.0282704 -220.01976421 121.69438682 -228 144 C-229.56173455 148.95837834 -230.85851741 153.92918309 -232 159 C-232.226875 159.96421875 -232.45375 160.9284375 -232.6875 161.921875 C-236.22574881 180.10454248 -234.81115989 199.97909469 -231 218 C-230.8443457 218.74620605 -230.68869141 219.49241211 -230.52832031 220.26123047 C-226.62734636 238.08034999 -218.83285847 255.07628693 -207 269 C-206.23623047 269.98613281 -206.23623047 269.98613281 -205.45703125 270.9921875 C-192.36355364 287.49657105 -169.60741165 298.24518976 -149 301 C-147.7934375 301.16435547 -147.7934375 301.16435547 -146.5625 301.33203125 C-123.43423835 304.04237441 -97.40850499 299.71272659 -78.23144531 285.70849609 C-68.53754277 277.9584084 -60.65631665 268.37084613 -58 256 C-57.44677434 249.81502759 -57.02781054 242.91656838 -59 237 C-60.21059082 237.2673999 -61.42118164 237.5347998 -62.66845703 237.81030273 C-67.17446365 238.80517985 -71.68091451 239.79803181 -76.1875 240.7902832 C-78.13521235 241.21942096 -80.08280499 241.64910246 -82.03027344 242.0793457 C-84.83497058 242.6988715 -87.64009723 243.31641882 -90.4453125 243.93359375 C-91.74409836 244.22114784 -91.74409836 244.22114784 -93.06912231 244.51451111 C-114.95332609 249.31899956 -114.95332609 249.31899956 -123.29296875 244.359375 C-132.62134907 236.930825 -134.63137056 220.90142101 -137.375 209.875 C-137.55490479 209.17705322 -137.73480957 208.47910645 -137.92016602 207.76000977 C-138.92170204 203.53454002 -139.46439401 200.13544868 -138 196 C-133.43988485 192.33239592 -129.31076934 191.05528337 -123.71704102 189.97119141 C-122.92876451 189.80751886 -122.140488 189.64384632 -121.32832432 189.475214 C-118.88784089 188.97134719 -116.44425629 188.48518592 -114 188 C-112.55359844 187.70317276 -111.10745089 187.40510444 -109.66159058 187.10565186 C-105.28742133 186.20418402 -100.90788775 185.33081694 -96.52734375 184.4609375 C-94.89252554 184.13507952 -93.25771433 183.80918641 -91.62290955 183.48326111 C-86.39535656 182.44252655 -81.16661153 181.40787211 -75.9375 180.375 C-75.04350746 180.19834682 -74.14951492 180.02169365 -73.2284317 179.83968735 C42.90462685 156.90518462 42.90462685 156.90518462 75.0625 156.4375 C75.81829346 156.42251465 76.57408691 156.4075293 77.3527832 156.39208984 C82.33922713 156.49268264 85.26438423 157.73133621 89 161 C90.76922109 163.36775636 92.1135565 165.86182111 93.4375 168.5 C93.81874023 169.24701172 94.19998047 169.99402344 94.59277344 170.76367188 C105.62801833 193.05541971 111.07570148 218.14751372 111.203125 242.9765625 C111.21013931 243.89661072 111.21715363 244.81665894 111.22438049 245.7645874 C111.24178801 248.71810865 111.24823297 251.67142934 111.25 254.625 C111.25067474 255.63443665 111.25134949 256.64387329 111.25204468 257.68389893 C111.23610514 272.68165868 110.79304728 287.22486309 108 302 C107.83902832 302.91120605 107.67805664 303.82241211 107.51220703 304.76123047 C98.97475136 352.27081808 76.84424435 393.09671281 44 428 C43.38382813 428.65871094 42.76765625 429.31742188 42.1328125 429.99609375 C37.1623852 435.14488567 31.61025666 439.57163741 26 444 C25.09507812 444.721875 24.19015625 445.44375 23.2578125 446.1875 C-4.39273233 467.63390596 -37.01638508 481.16091733 -71.125 488.25 C-71.83849609 488.40114258 -72.55199219 488.55228516 -73.28710938 488.70800781 C-88.60090808 491.69130281 -104.12653629 492.38099842 -119.6875 492.3125 C-120.55574402 492.31067719 -121.42398804 492.30885437 -122.31854248 492.30697632 C-136.38975936 492.2574786 -150.13722331 491.58754701 -164 489 C-164.88606934 488.83902832 -165.77213867 488.67805664 -166.68505859 488.51220703 C-209.40782606 480.47418048 -247.79005148 461.27569374 -279 431 C-279.59022949 430.43555176 -280.18045898 429.87110352 -280.78857422 429.28955078 C-289.68353591 420.76129712 -297.76209697 411.97773517 -305 402 C-305.44794922 401.38576172 -305.89589844 400.77152344 -306.35742188 400.13867188 C-355.89466409 331.62971987 -370.97606257 243.6455877 -357.93359375 161.1015625 C-349.04255535 108.07528903 -327.51779821 58.20981104 -291.12109375 18.34375 C-289.18168497 16.20075688 -287.30670701 14.01655362 -285.4375 11.8125 C-281.93161147 7.80348851 -278.06693751 4.42550777 -274 1 C-273.08734375 0.18789062 -272.1746875 -0.62421875 -271.234375 -1.4609375 C-206.97575917 -58.21633276 -104.18025678 -75.57469845 0 0 Z " fill="#00CBFE" transform="translate(1715,1384)"/>
<path d="M0 0 C1.03881709 0.00252356 2.07763417 0.00504712 3.14793056 0.00764716 C6.60532399 0.01731562 10.06264004 0.03435833 13.52000427 0.05142212 C16.00977436 0.05993675 18.49954599 0.0680072 20.98931885 0.07566833 C27.0416485 0.09552476 33.09394052 0.12022098 39.14624084 0.14727138 C44.08135327 0.16921246 49.01647014 0.1890386 53.95159721 0.20738602 C54.65675766 0.21000815 55.3619181 0.21263027 56.08844705 0.21533186 C57.52170855 0.22065036 58.95497008 0.22596314 60.38823163 0.23127027 C73.82241994 0.28124214 87.25657657 0.33744288 100.69073039 0.39587601 C112.14552565 0.44556955 123.60033105 0.49037336 135.05516052 0.53140259 C148.40882819 0.5792374 161.76247975 0.62995013 175.11611885 0.68522799 C176.55085145 0.69116172 177.98558407 0.69709306 179.4203167 0.703022 C180.12586377 0.70594039 180.83141084 0.70885877 181.55833812 0.7118656 C186.45917071 0.73195878 191.36000815 0.75011325 196.26085091 0.76752853 C246.68349682 0.94892915 246.68349682 0.94892915 266.43162537 1.48599243 C267.64522264 1.51551184 268.8588199 1.54503124 270.10919285 1.57544518 C276.36748199 1.78019239 282.60604178 2.20048127 288.83691406 2.81420898 C290.8081114 2.9974727 290.8081114 2.9974727 292.8191309 3.18443871 C296.92174053 4.27412218 298.02174569 5.53341227 300.22483826 9.08901978 C311.82580482 37.4848497 311.22114055 90.48780283 300.20140076 118.71011353 C297.48334413 123.68105601 293.37558264 126.81605871 288.22483826 129.08901978 C252.4146957 137.75370822 208.14789527 125.18315366 172.44798279 119.61880493 C154.78928069 116.87081819 137.22444059 114.29801924 119.36155701 113.33511353 C116.5626805 113.11552546 113.96622607 112.66564951 111.22483826 112.08901978 C109.43716477 124.07719367 108.84860154 135.85806338 108.66233826 147.96401978 C108.60373296 151.35736273 108.53994729 154.75056019 108.47093201 158.14370728 C108.45501007 158.93911926 108.43908813 159.73453125 108.42268372 160.55404663 C108.29338849 166.10853431 107.91023729 171.5718408 107.22483826 177.08901978 C107.93760925 177.08378296 108.65038025 177.07854614 109.38475037 177.07315063 C184.97158361 176.60550557 184.97158361 176.60550557 213.22483826 180.08901978 C214.44179382 180.23162231 214.44179382 180.23162231 215.68333435 180.37710571 C228.59495209 181.98152348 228.59495209 181.98152348 232.06858826 186.01480103 C241.93580657 200.08273728 237.36550504 223.6445409 234.69554138 239.53140259 C231.68410498 255.89437339 231.68410498 255.89437339 227.22483826 262.08901978 C210.60737057 270.39775362 188.1430152 268.29024283 169.97483826 268.27651978 C168.50128876 268.27760742 168.50128876 268.27760742 166.99797058 268.27871704 C145.35533138 268.2769729 123.83846613 267.24948302 102.22483826 266.08901978 C102.22483826 291.49901978 102.22483826 316.90901978 102.22483826 343.08901978 C111.19671326 342.22276978 120.16858826 341.35651978 129.41233826 340.46401978 C132.42447449 340.17349731 135.43661072 339.88297485 138.5400238 339.58364868 C151.97345065 338.28616164 165.40555729 336.97770904 178.83396339 335.62918472 C180.86566757 335.42532872 182.89743575 335.22212383 184.92922974 335.01916504 C185.59296128 334.952857 186.25669283 334.88654896 186.94053745 334.81823158 C187.59936893 334.75242079 188.2582004 334.68660999 188.93699646 334.61880493 C192.76659858 334.23620354 196.59601354 333.85213781 200.42488098 333.46224976 C224.12205121 331.04964057 247.94381558 328.68120275 271.78733826 328.83901978 C273.0216156 328.8312854 274.25589294 328.82355103 275.52757263 328.81558228 C299.00094878 328.8651303 299.00094878 328.8651303 305.22483826 335.08901978 C311.74356852 347.19523311 310.5274439 363.79136767 310.41233826 377.21401978 C310.40404169 378.94692842 310.39607543 380.67983868 310.38841248 382.41275024 C310.3570042 387.97182497 310.29591737 393.53032331 310.22483826 399.08901978 C310.21281372 400.03196899 310.20078918 400.97491821 310.18840027 401.94644165 C309.75996461 434.06749989 309.19324785 466.30873272 305.78733826 498.27651978 C305.62225769 499.85179443 305.62225769 499.85179443 305.45384216 501.45889282 C303.30400819 519.79244903 303.30400819 519.79244903 298.41233826 524.15151978 C285.14294627 532.21722863 264.28531796 529.36044186 249.23265076 529.62417603 C246.8776171 529.66759881 244.52258583 529.71115068 242.16755676 529.75482178 C234.5617627 529.89381656 226.95581779 530.02314491 219.34983826 530.15151978 C218.05285004 530.17373722 216.75586182 530.19595467 215.41957092 530.21884537 C81.7552448 532.50676375 81.7552448 532.50676375 21.22483826 530.08901978 C20.42904358 530.05743774 19.6332489 530.02585571 18.81333923 529.99331665 C2.84935111 529.34551645 -13.08288203 528.47023366 -28.96266174 526.65151978 C-29.94202698 526.54146606 -30.92139221 526.43141235 -31.93043518 526.31802368 C-39.00332968 525.42172369 -46.136428 524.43456088 -51.58766174 519.58901978 C-68.48195921 495.7280017 -63.8612536 451.44460445 -63.86500549 423.74917603 C-63.86513704 422.92948397 -63.86526859 422.10979191 -63.86540413 421.2652607 C-63.85465033 402.77690181 -63.40343575 384.31127373 -62.80341339 365.8336792 C-62.71073827 362.96702233 -62.62050187 360.10029591 -62.53059387 357.23355103 C-60.95081438 307.26285113 -58.60678716 257.32027679 -56.31757224 207.37810028 C-56.20127336 204.83959682 -56.08519492 202.30108337 -55.96918774 199.76256657 C-55.89321114 198.10054563 -55.81722909 196.43852495 -55.74124146 194.77650452 C-55.70412408 193.9645227 -55.66700671 193.15254088 -55.62876457 192.31595355 C-55.41518592 187.6493487 -55.19934009 182.98285588 -54.98170012 178.31643879 C-53.80599776 153.06607836 -52.75807444 127.80940493 -52.49391174 102.53042603 C-52.47569602 101.0660607 -52.45708826 99.60170021 -52.43812561 98.13734436 C-52.37072831 92.88044172 -52.30905848 87.62347794 -52.24909973 82.3664856 C-52.19746947 77.84444474 -52.14259475 73.32246683 -52.08328247 68.80051994 C-52.05750398 66.74261948 -52.03626726 64.68470858 -52.01527405 62.62675476 C-51.47731834 21.43214833 -51.47731834 21.43214833 -38.77516174 8.77651978 C-28.07764191 -0.15884621 -13.26114231 -0.0852532 0 0 Z " fill="#00CBFE" transform="translate(3404.775161743164,1343.9109802246094)"/>
<path d="M0 0 C44.48264977 -1.26768238 118.4374008 3.52819836 153.61328125 32.484375 C156.95921854 35.78416143 158.95220609 38.3743654 159.3125 43.16015625 C158.86902986 45.91148123 158.32653453 48.4735659 157.625 51.16015625 C157.40859863 52.00118896 157.19219727 52.84222168 156.96923828 53.70874023 C136.70974646 129.50808812 136.70974646 129.50808812 119.3125 145.16015625 C108.35608337 148.81229513 98.66010962 142.41470272 89.05322266 137.64257812 C54.2662364 120.38282287 13.76867018 105.52029596 -25.04296875 118.26171875 C-33.30863112 121.44476886 -40.64117271 125.69159186 -45.6875 133.16015625 C-47.75755335 139.37031631 -47.43718909 145.31054684 -44.75 151.28515625 C-35.34189691 167.96434178 -12.87052075 175.06158288 4.49755859 180.08056641 C24.44346745 185.57886048 44.72051668 189.6154612 65.01806641 193.5715332 C79.79155281 196.47530451 94.64850549 199.50705276 108.375 205.91015625 C109.11121582 206.24668213 109.84743164 206.58320801 110.60595703 206.92993164 C143.67292235 222.33074154 170.57765094 246.42314919 183.3125 281.16015625 C184.85787408 285.78658961 186.21647789 290.40726418 187.3125 295.16015625 C187.48910156 295.92134766 187.66570312 296.68253906 187.84765625 297.46679688 C189.55087608 305.62400325 189.71091333 313.73678694 189.6875 322.03515625 C189.68668427 323.12414719 189.68668427 323.12414719 189.68585205 324.23513794 C189.6435314 336.56144944 188.60558057 348.24560782 185.3125 360.16015625 C185.10882813 360.91184082 184.90515625 361.66352539 184.6953125 362.43798828 C176.86172995 390.3813927 161.20918378 415.25021543 141.3125 436.16015625 C140.80203125 436.69785645 140.2915625 437.23555664 139.765625 437.78955078 C131.83683395 446.08653044 123.68005174 453.5285766 114.3125 460.16015625 C113.75546387 460.56153809 113.19842773 460.96291992 112.62451172 461.37646484 C95.63626732 473.53844871 77.03869828 482.41213931 57.3125 489.16015625 C56.23935547 489.53479004 56.23935547 489.53479004 55.14453125 489.91699219 C35.69091247 496.59606797 14.73496123 498.69604277 -5.6875 500.16015625 C-7.35631226 500.29043213 -7.35631226 500.29043213 -9.05883789 500.42333984 C-23.39902647 501.41984475 -37.75576728 501.40584731 -52.125 501.41015625 C-53.1384165 501.41081903 -53.1384165 501.41081903 -54.17230606 501.41149521 C-154.1578633 501.44573589 -154.1578633 501.44573589 -181.6875 474.16015625 C-191.12700094 461.19166757 -187.75186736 443.2743755 -186.9375 428.09765625 C-186.87414459 426.90002151 -186.87414459 426.90002151 -186.80950928 425.67819214 C-185.33579309 398.30587416 -183.06310005 370.92850594 -179.6875 343.72265625 C-179.54586426 342.54711182 -179.40422852 341.37156738 -179.25830078 340.16040039 C-176.02747511 315.7275024 -176.02747511 315.7275024 -168.6875 309.16015625 C-164.21405208 306.92343229 -158.38717402 307.76164122 -153.72607422 309.18237305 C-152.39335946 309.64455752 -151.06545325 310.12079454 -149.7421875 310.609375 C-148.24915789 311.13117401 -146.75607311 311.65281521 -145.26293945 312.17431641 C-144.49519196 312.44818176 -143.72744446 312.72204712 -142.93643188 313.00421143 C-128.38337131 318.17483308 -113.95515644 322.62291947 -98.6875 325.16015625 C-97.97851562 325.28567871 -97.26953125 325.41120117 -96.5390625 325.54052734 C-68.07105945 330.42835258 -29.13682373 329.99929803 -3.71875 314.39453125 C-1.6875 313.16015625 -1.6875 313.16015625 1.3125 312.16015625 C3.04478298 309.21527518 3.3125 307.21127753 3.3125 303.78515625 C1.55619189 297.41853936 -1.37713052 294.59521948 -6.9765625 291.1171875 C-13.69822316 287.40028317 -20.59406338 284.64945158 -28.03125 282.7578125 C-28.83358566 282.55042953 -29.63592133 282.34304657 -30.46257019 282.12937927 C-43.37531473 278.88559327 -56.50208749 276.54306244 -69.57299805 274.0378418 C-110.16136491 266.23099404 -155.23496211 256.36123186 -180 219.84765625 C-198.24714855 191.83826554 -202.84475841 154.76697527 -196.18359375 122.39013672 C-191.22901229 100.11890292 -179.86439699 80.99745027 -164.6875 64.16015625 C-163.91792969 63.30550781 -163.14835937 62.45085937 -162.35546875 61.5703125 C-149.84962966 48.42533342 -134.62739181 38.60433376 -118.6875 30.16015625 C-117.89456543 29.73637695 -117.10163086 29.31259766 -116.28466797 28.87597656 C-85.86324693 12.86211099 -51.7189161 4.62683054 -17.6875 1.16015625 C-15.75390625 0.96292969 -15.75390625 0.96292969 -13.78125 0.76171875 C-9.19035231 0.37212422 -4.60216316 0.19988209 0 0 Z " fill="#00CBFE" transform="translate(3944.6875,1393.83984375)"/>
<path d="M0 0 C14.88079311 11.5624281 20.72362506 32.07093679 23 50 C32.64697316 132.4610073 1.00102844 221.39596606 -56 377 C-59.80142146 375.22492476 -62.54897786 372.80917481 -65.5625 369.9375 C-71.17656602 364.69615918 -76.97533749 359.76813759 -83 355 C-83.99515625 354.20980469 -84.9903125 353.41960937 -86.015625 352.60546875 C-132.21528469 316.29597441 -184.54927874 298.66716792 -243.82324219 305.58154297 C-279.8243911 310.32377854 -312.84550764 322.48562607 -344.64770508 339.73828125 C-346.74782801 340.86474054 -348.86239484 341.94680376 -351 343 C-350.4235347 339.42693615 -349.4960819 336.69782032 -347.734375 333.54296875 C-347.26330322 332.69033447 -346.79223145 331.8377002 -346.30688477 330.95922852 C-345.53622681 329.5872229 -345.53622681 329.5872229 -344.75 328.1875 C-343.6491709 326.20083584 -342.54893064 324.21384531 -341.44921875 322.2265625 C-340.87864746 321.19950195 -340.30807617 320.17244141 -339.72021484 319.11425781 C-337.50694258 315.10737433 -335.33687424 311.07802597 -333.16821289 307.046875 C-327.79228664 297.05518843 -322.27884111 287.15253834 -316.66430664 277.29321289 C-313.33048762 271.41703529 -310.11294618 265.49584361 -307 259.5 C-302.89569903 251.60038664 -298.56956589 243.84336156 -294.16577148 236.10717773 C-290.55226779 229.75691852 -286.98718991 223.3823001 -283.4543457 216.98681641 C-276.43642121 204.28409233 -269.23863359 191.70292556 -261.87597656 179.19726562 C-259.85165734 175.74717654 -257.8427785 172.2883942 -255.8359375 168.828125 C-183.10451406 43.55622312 -183.10451406 43.55622312 -128 4 C-127.4210498 3.5767041 -126.84209961 3.1534082 -126.24560547 2.71728516 C-111.9610973 -7.64260629 -96.34731391 -15.44157663 -79 -19 C-78.09378906 -19.18949219 -77.18757813 -19.37898437 -76.25390625 -19.57421875 C-48.64702188 -23.1866442 -22.73694715 -15.58626107 0 0 Z " fill="#00CBFE" transform="translate(1804,995)"/>
</svg>
