<svg width="156" height="50" viewBox="0 0 156 50" fill="none" xmlns="http://www.w3.org/2000/svg">
<rect width="50" height="50" rx="25" fill="white"/>
<path d="M26.912 22.9975C26.803 23.0604 26.7248 23.1623 26.6921 23.2841C26.6594 23.4059 26.6761 23.533 26.7393 23.6423C26.8234 23.7878 26.9799 23.8782 27.1484 23.8782C27.2308 23.8782 27.3122 23.8562 27.3841 23.815C30.605 21.9556 35.248 22.4259 35.2944 22.4309C35.4192 22.4443 35.5423 22.4084 35.6404 22.3295C35.7388 22.2504 35.8004 22.1376 35.8139 22.012C35.8274 21.8867 35.7912 21.7636 35.7121 21.6655C35.6329 21.5674 35.5203 21.506 35.395 21.4925C35.1923 21.4706 30.397 20.9853 26.912 22.9975Z" fill="#07A169"/>
<path d="M27.1484 27.0119C27.2306 27.0119 27.3122 26.99 27.3841 26.9485C30.6015 25.0908 35.2482 25.5594 35.2944 25.5644C35.4195 25.5781 35.5423 25.5422 35.6404 25.463C35.7388 25.3839 35.8004 25.2708 35.8139 25.145C35.8274 25.0197 35.7909 24.8966 35.7121 24.7985C35.6329 24.7004 35.5203 24.639 35.395 24.6258C35.1928 24.6041 30.402 24.116 26.912 26.131C26.803 26.1942 26.7248 26.2958 26.6921 26.4176C26.6594 26.5394 26.6761 26.6665 26.7393 26.7758C26.8237 26.9216 26.9802 27.0119 27.1484 27.0119Z" fill="#07A169"/>
<path d="M35.3946 27.7662C35.1924 27.7445 30.4004 27.2573 26.9116 29.2715C26.6862 29.4015 26.6088 29.6908 26.7389 29.9163C26.823 30.0618 26.9795 30.1522 27.148 30.1522C27.2302 30.1522 27.3118 30.1302 27.3837 30.0887C29.0489 29.1272 31.1008 28.8014 32.5287 28.6973C34.1083 28.5823 35.2823 28.7033 35.2938 28.7046C35.4188 28.7183 35.5417 28.6824 35.6398 28.6032C35.7381 28.5241 35.7998 28.4113 35.8133 28.2855C35.8267 28.1601 35.7905 28.0371 35.7114 27.939C35.6325 27.8411 35.5199 27.7797 35.3946 27.7662Z" fill="#07A169"/>
<path d="M35.3946 30.903C35.1924 30.8812 30.4004 30.394 26.9116 32.4082C26.6862 32.5382 26.6088 32.8276 26.7389 33.053C26.823 33.1985 26.9798 33.2889 27.148 33.2889C27.2304 33.2889 27.312 33.2669 27.3837 33.2255C30.6151 31.3598 35.2476 31.8363 35.294 31.8413C35.4196 31.8548 35.5424 31.8186 35.6405 31.7394C35.7386 31.6603 35.8 31.5477 35.8135 31.4224C35.827 31.2971 35.7908 31.174 35.7117 31.0759C35.6325 30.9778 35.5199 30.9164 35.3946 30.903Z" fill="#07A169"/>
<path d="M14.414 21.4924C14.1552 21.5201 13.9672 21.7532 13.9949 22.0118C14.0084 22.1374 14.07 22.2502 14.1684 22.3294C14.2665 22.4085 14.3893 22.4444 14.5144 22.4307C14.5608 22.4257 19.2053 21.9559 22.425 23.8149C22.4969 23.8563 22.5782 23.8783 22.6606 23.8783C22.8289 23.8783 22.9856 23.7879 23.0697 23.6421C23.1998 23.4167 23.1222 23.1277 22.897 22.9973C19.4117 20.9854 14.6165 21.4706 14.414 21.4924Z" fill="#07A169"/>
<path d="M22.8968 26.1311C19.4058 24.1157 14.616 24.6042 14.4138 24.6259C14.2885 24.6394 14.1759 24.7008 14.0968 24.7989C14.0177 24.897 13.9815 25.02 13.9949 25.1454C14.0084 25.2709 14.0701 25.3838 14.1684 25.4629C14.2665 25.542 14.3896 25.5777 14.5142 25.5642C14.5608 25.5592 19.2069 25.0907 22.4248 26.9484C22.4967 26.9898 22.578 27.0118 22.6604 27.0118C22.8287 27.0118 22.9854 26.9214 23.0696 26.7757C23.1996 26.5505 23.1222 26.2612 22.8968 26.1311Z" fill="#07A169"/>
<path d="M22.8968 29.2714C19.4088 27.2576 14.6163 27.7444 14.4138 27.7661C14.2885 27.7796 14.1759 27.841 14.0968 27.9391C14.0177 28.0372 13.9815 28.1603 13.9949 28.2856C14.0227 28.5442 14.2558 28.7324 14.5142 28.7045C14.5608 28.6995 19.2178 28.2372 22.425 30.0886C22.4969 30.1301 22.5783 30.152 22.6607 30.152C22.8289 30.152 22.9857 30.0617 23.0698 29.9159C23.1996 29.691 23.1222 29.4017 22.8968 29.2714Z" fill="#07A169"/>
<path d="M22.897 32.408C19.4093 30.3946 14.6165 30.8811 14.414 30.9028C14.1552 30.9305 13.9672 31.1636 13.9949 31.4223C14.0084 31.5476 14.0698 31.6601 14.1679 31.7393C14.266 31.8184 14.3891 31.8546 14.5144 31.8411C14.5608 31.8361 19.1996 31.3631 22.425 33.2253C22.4969 33.2667 22.5782 33.2887 22.6606 33.2887C22.8289 33.2887 22.9856 33.1983 23.0697 33.0526C23.1998 32.8274 23.1224 32.5381 22.897 32.408Z" fill="#07A169"/>
<path d="M39.6072 21.3413H37.9931V17.6683C37.9931 17.4359 37.8242 17.2427 37.6027 17.204C37.3686 17.1281 36.9694 17.057 36.4103 16.9918C35.7702 16.9172 34.74 16.8388 33.468 16.888C32.6879 16.9182 31.7675 16.9996 30.7595 17.1753V13.398L34.5538 12.1062C34.745 12.041 34.8736 11.8616 34.8736 11.6594C34.8736 11.4572 34.745 11.2777 34.5538 11.2125L25.1916 8.02509C25.0935 7.99164 24.9855 7.99164 24.8874 8.02509L15.5249 11.2128C15.3337 11.2779 15.2052 11.4574 15.2052 11.6594C15.2052 11.8616 15.3337 12.041 15.5249 12.1062L16.8033 12.5413V15.2957C16.8033 15.5558 17.0149 15.7674 17.2753 15.7674C17.5357 15.7674 17.7473 15.5558 17.7473 15.2954V12.8623L19.3197 13.3975V17.2722C18.2568 17.088 17.2905 17.0068 16.481 16.9801C14.2162 16.905 12.6687 17.2148 12.478 17.2552C12.2559 17.2934 12.0861 17.4869 12.0861 17.7198V21.3411H10.472C10.2119 21.3411 10 21.5527 10 21.8131V37.528C10 37.7881 10.2117 38 10.472 38H25.1033H25.1048H25.1063H25.1083H39.6077C39.8678 38 40.0798 37.7883 40.0798 37.528V21.8131C40.0793 21.553 39.8676 21.3413 39.6072 21.3413ZM17.1415 11.6594L25.0394 8.97042L32.9373 11.6594L25.0394 14.3483L17.1415 11.6594ZM24.8874 15.2937C24.9365 15.3104 24.9877 15.3189 25.0394 15.3189C25.0911 15.3189 25.1422 15.3104 25.1914 15.2937L29.8154 13.7193V17.3633C28.2965 17.7045 26.63 18.2684 24.9727 19.1836C23.3569 18.3248 21.7403 17.7886 20.2631 17.4594V13.7193L24.8874 15.2937ZM37.0493 21.8118V21.8133V21.8148V34.9413C36.3771 34.843 35.1557 34.7144 33.5988 34.7691C31.5838 34.8398 28.5985 35.2471 25.5708 36.7509L25.4508 19.9983C28.3689 18.393 31.3204 17.9374 33.2995 17.8403C35.1904 17.7475 36.5091 17.9399 37.0493 18.042V21.8118ZM24.5067 20.0048L24.6265 36.7349C21.6323 35.2099 18.6612 34.7893 16.6502 34.7112C15.3764 34.6615 14.3467 34.7392 13.7069 34.813C13.4598 34.8415 13.2299 34.8747 13.0289 34.9094V18.1159C13.6176 18.023 14.8722 17.8693 16.4753 17.9247C18.4942 17.9943 21.5039 18.415 24.5067 20.0048ZM12.0864 35.5152C12.0866 35.5225 12.0869 35.53 12.0874 35.5372C12.0879 35.5434 12.0884 35.5499 12.0891 35.5562L12.0894 35.5599C12.0899 35.5632 12.0906 35.5664 12.0911 35.5697C12.0929 35.5811 12.0946 35.5929 12.0973 35.6041C12.0983 35.6086 12.0996 35.6128 12.1006 35.6171C12.1033 35.6278 12.1061 35.6385 12.1096 35.649C12.1113 35.654 12.1131 35.6588 12.1148 35.6635C12.1183 35.673 12.1221 35.6825 12.1261 35.6917C12.1283 35.697 12.131 35.7022 12.1335 35.7072C12.1378 35.7157 12.142 35.7242 12.1465 35.7324C12.1495 35.7377 12.1528 35.7426 12.156 35.7479C12.1608 35.7559 12.1657 35.7636 12.171 35.7711C12.1745 35.7758 12.178 35.7806 12.1815 35.7851C12.1872 35.7926 12.193 35.8001 12.1992 35.8073C12.2027 35.8113 12.2064 35.8153 12.2099 35.819C12.2167 35.8265 12.2237 35.8338 12.2309 35.8407C12.2341 35.844 12.2376 35.847 12.2411 35.85C12.2491 35.8572 12.2571 35.8642 12.2653 35.8707C12.2686 35.8732 12.2718 35.8754 12.2751 35.8779C12.2841 35.8847 12.2933 35.8912 12.3025 35.8974C12.3055 35.8994 12.3088 35.9012 12.312 35.9032C12.3218 35.9091 12.3317 35.9149 12.342 35.9201C12.3455 35.9219 12.349 35.9234 12.3525 35.9251C12.3624 35.9299 12.3727 35.9346 12.3829 35.9388C12.3872 35.9406 12.3917 35.9421 12.3961 35.9436C12.4059 35.9471 12.4154 35.9506 12.4254 35.9536C12.4311 35.9553 12.4371 35.9566 12.4431 35.9581C12.4518 35.9603 12.4603 35.9623 12.4693 35.9641C12.477 35.9656 12.4848 35.9666 12.4925 35.9676C12.4997 35.9686 12.5072 35.9698 12.5147 35.9703C12.524 35.971 12.5334 35.9713 12.5429 35.9718C12.5479 35.972 12.5527 35.9725 12.5577 35.9725L12.5621 35.9723C12.5714 35.9723 12.5809 35.9715 12.5904 35.9708C12.5971 35.9703 12.6038 35.9701 12.6106 35.9693C12.6126 35.9691 12.6148 35.9691 12.6168 35.9688C12.6285 35.9673 12.64 35.9653 12.6515 35.9631L12.653 35.9628C12.6832 35.9566 12.7124 35.9473 12.7406 35.9356L12.7426 35.9346C12.7506 35.9311 12.7589 35.9279 12.7666 35.9241C13.0731 35.8392 14.6118 35.5557 16.8008 35.6618C18.4256 35.7404 20.7014 36.0599 23.0766 37.0554H10.9433V22.2851H12.0854V35.501C12.0856 35.5057 12.0861 35.5105 12.0864 35.5152ZM37.4208 35.9623L37.4238 35.9628C37.4317 35.9646 37.4402 35.9656 37.4485 35.9668C37.456 35.9681 37.4634 35.9696 37.4709 35.9703C37.4782 35.971 37.4854 35.9713 37.4926 35.9715C37.5014 35.972 37.5101 35.9728 37.5186 35.9728L37.5214 35.973C37.5283 35.973 37.5351 35.9723 37.5421 35.972C37.5498 35.9718 37.5575 35.9715 37.565 35.9708C37.5755 35.9698 37.5858 35.9681 37.5962 35.9666C37.601 35.9658 37.6055 35.9653 37.6102 35.9643C37.6227 35.9618 37.6347 35.9588 37.6469 35.9556C37.6492 35.9548 37.6517 35.9543 37.6542 35.9538C37.6671 35.9501 37.6799 35.9456 37.6923 35.9406C37.6923 35.9406 37.6953 35.9396 37.6968 35.9388C37.7093 35.9339 37.7213 35.9284 37.7333 35.9224C37.735 35.9216 37.7368 35.9206 37.7385 35.9199C37.7495 35.9141 37.76 35.9079 37.7705 35.9014C37.7732 35.8997 37.776 35.8982 37.7787 35.8964C37.7877 35.8907 37.7962 35.8844 37.8047 35.8779C37.8087 35.8749 37.8127 35.8722 37.8167 35.869C37.8234 35.8635 37.8299 35.8577 37.8364 35.852C37.8416 35.8475 37.8469 35.843 37.8516 35.838C37.8566 35.8333 37.8611 35.828 37.8658 35.823C37.8718 35.8168 37.8776 35.8105 37.8833 35.8038C37.8868 35.7996 37.8903 35.7951 37.8935 35.7906C37.8995 35.7828 37.9055 35.7751 37.911 35.7671C37.914 35.7629 37.9165 35.7584 37.9193 35.7541C37.9247 35.7456 37.93 35.7372 37.935 35.7284C37.9377 35.7234 37.9402 35.7179 37.943 35.7129C37.9472 35.7047 37.9515 35.6965 37.9552 35.6877C37.9582 35.6807 37.9607 35.6735 37.9634 35.6663C37.9662 35.6593 37.9689 35.6523 37.9712 35.6448C37.9742 35.6353 37.9767 35.6256 37.9792 35.6158C37.9804 35.6111 37.9819 35.6066 37.9829 35.6019L37.9832 35.5996C37.9852 35.5899 37.9867 35.5796 37.9882 35.5697C37.9889 35.5637 37.9901 35.5579 37.9909 35.5519C37.9916 35.5442 37.9919 35.5365 37.9924 35.5287C37.9929 35.5205 37.9936 35.512 37.9936 35.5038L37.9939 35.501V22.2851H39.1359V37.0559H27.1916C32.4587 34.9249 37.3658 35.9503 37.4208 35.9623Z" fill="#07A169"/>
<path d="M65.9062 20.0371V38H61.1084V20.0371H65.9062ZM60.8096 15.3555C60.8096 14.6582 61.0531 14.0827 61.54 13.6289C62.027 13.1751 62.68 12.9482 63.499 12.9482C64.307 12.9482 64.9544 13.1751 65.4414 13.6289C65.9395 14.0827 66.1885 14.6582 66.1885 15.3555C66.1885 16.0527 65.9395 16.6283 65.4414 17.082C64.9544 17.5358 64.307 17.7627 63.499 17.7627C62.68 17.7627 62.027 17.5358 61.54 17.082C61.0531 16.6283 60.8096 16.0527 60.8096 15.3555ZM82.7402 31.6748C82.7402 31.2432 82.6738 30.8558 82.541 30.5127C82.4193 30.1585 82.1868 29.8376 81.8438 29.5498C81.5007 29.251 81.0192 28.9577 80.3994 28.6699C79.7796 28.3822 78.9772 28.0833 77.9922 27.7734C76.8965 27.4193 75.8561 27.0208 74.8711 26.5781C73.8971 26.1354 73.0339 25.6208 72.2812 25.0342C71.5397 24.4365 70.9531 23.7448 70.5215 22.959C70.1009 22.1732 69.8906 21.2601 69.8906 20.2197C69.8906 19.2126 70.112 18.2995 70.5547 17.4805C70.9974 16.6504 71.6172 15.9421 72.4141 15.3555C73.2109 14.7578 74.1517 14.2985 75.2363 13.9775C76.332 13.6566 77.5329 13.4961 78.8389 13.4961C80.6208 13.4961 82.1758 13.8171 83.5039 14.459C84.832 15.1009 85.8613 15.9808 86.5918 17.0986C87.3333 18.2165 87.7041 19.4948 87.7041 20.9336H82.7568C82.7568 20.2253 82.6074 19.6055 82.3086 19.0742C82.0208 18.5319 81.5781 18.1058 80.9805 17.7959C80.3939 17.486 79.6523 17.3311 78.7559 17.3311C77.8926 17.3311 77.1732 17.4639 76.5977 17.7295C76.0221 17.984 75.5905 18.3327 75.3027 18.7754C75.015 19.207 74.8711 19.694 74.8711 20.2363C74.8711 20.6458 74.9707 21.0166 75.1699 21.3486C75.3802 21.6807 75.6901 21.9906 76.0996 22.2783C76.5091 22.5661 77.0127 22.8372 77.6104 23.0918C78.208 23.3464 78.8997 23.5954 79.6855 23.8389C81.0026 24.2373 82.1592 24.6855 83.1553 25.1836C84.1624 25.6816 85.0036 26.2406 85.6787 26.8604C86.3538 27.4801 86.863 28.1829 87.2061 28.9688C87.5492 29.7546 87.7207 30.6455 87.7207 31.6416C87.7207 32.693 87.516 33.6338 87.1064 34.4639C86.6969 35.2939 86.1048 35.9967 85.3301 36.5723C84.5553 37.1478 83.6312 37.585 82.5576 37.8838C81.484 38.1826 80.2832 38.332 78.9551 38.332C77.7598 38.332 76.5811 38.1771 75.4189 37.8672C74.2568 37.5462 73.1999 37.0648 72.248 36.4229C71.3073 35.7809 70.5547 34.9619 69.9902 33.9658C69.4258 32.9697 69.1436 31.791 69.1436 30.4297H74.1406C74.1406 31.1823 74.2568 31.8187 74.4893 32.3389C74.7217 32.859 75.0482 33.2796 75.4688 33.6006C75.9004 33.9215 76.4095 34.154 76.9961 34.2979C77.5938 34.4417 78.2467 34.5137 78.9551 34.5137C79.8184 34.5137 80.5267 34.3919 81.0801 34.1484C81.6445 33.9049 82.0596 33.5674 82.3252 33.1357C82.6019 32.7041 82.7402 32.2171 82.7402 31.6748ZM99.6074 20.0371V23.4238H89.1484V20.0371H99.6074ZM91.7383 15.6045H96.5195V32.5879C96.5195 33.1081 96.5859 33.5065 96.7188 33.7832C96.8626 34.0599 97.0729 34.2536 97.3496 34.3643C97.6263 34.4639 97.9749 34.5137 98.3955 34.5137C98.6943 34.5137 98.96 34.5026 99.1924 34.4805C99.4359 34.4473 99.6406 34.4141 99.8066 34.3809L99.8232 37.9004C99.4137 38.0332 98.971 38.1383 98.4951 38.2158C98.0192 38.2933 97.4935 38.332 96.918 38.332C95.8665 38.332 94.9479 38.1605 94.1621 37.8174C93.3874 37.4632 92.7897 36.8988 92.3691 36.124C91.9486 35.3493 91.7383 34.3311 91.7383 33.0693V15.6045ZM112.955 33.7002V20.0371H117.736V38H113.237L112.955 33.7002ZM113.486 30.0146L114.897 29.9814C114.897 31.1768 114.759 32.2891 114.482 33.3184C114.206 34.3366 113.791 35.222 113.237 35.9746C112.684 36.7161 111.987 37.2972 111.146 37.7178C110.304 38.1273 109.314 38.332 108.174 38.332C107.299 38.332 106.492 38.2103 105.75 37.9668C105.02 37.7122 104.389 37.3193 103.857 36.7881C103.337 36.2458 102.928 35.554 102.629 34.7129C102.341 33.8607 102.197 32.8369 102.197 31.6416V20.0371H106.979V31.6748C106.979 32.2061 107.039 32.6543 107.161 33.0195C107.294 33.3848 107.477 33.6836 107.709 33.916C107.941 34.1484 108.213 34.3145 108.522 34.4141C108.843 34.5137 109.198 34.5635 109.585 34.5635C110.57 34.5635 111.345 34.3643 111.909 33.9658C112.485 33.5674 112.889 33.0251 113.121 32.3389C113.365 31.6416 113.486 30.8669 113.486 30.0146ZM131.997 34.082V12.5H136.812V38H132.479L131.997 34.082ZM120.642 29.2344V28.8857C120.642 27.5133 120.797 26.2682 121.106 25.1504C121.416 24.0215 121.87 23.0531 122.468 22.2451C123.065 21.4372 123.801 20.8118 124.676 20.3691C125.55 19.9264 126.546 19.7051 127.664 19.7051C128.715 19.7051 129.634 19.9264 130.42 20.3691C131.217 20.8118 131.892 21.4427 132.445 22.2617C133.01 23.0697 133.464 24.027 133.807 25.1338C134.15 26.2295 134.399 27.4303 134.554 28.7363V29.5C134.399 30.7507 134.15 31.9128 133.807 32.9863C133.464 34.0599 133.01 35.0007 132.445 35.8086C131.892 36.6055 131.217 37.2253 130.42 37.668C129.623 38.1107 128.693 38.332 127.631 38.332C126.513 38.332 125.517 38.1051 124.643 37.6514C123.779 37.1976 123.049 36.5612 122.451 35.7422C121.865 34.9232 121.416 33.9603 121.106 32.8535C120.797 31.7467 120.642 30.5404 120.642 29.2344ZM125.423 28.8857V29.2344C125.423 29.9759 125.478 30.6676 125.589 31.3096C125.711 31.9515 125.904 32.5215 126.17 33.0195C126.447 33.5065 126.801 33.8883 127.232 34.165C127.675 34.4307 128.212 34.5635 128.843 34.5635C129.662 34.5635 130.337 34.3809 130.868 34.0156C131.399 33.6393 131.803 33.1247 132.08 32.4717C132.368 31.8187 132.534 31.0661 132.578 30.2139V28.0391C132.545 27.3418 132.445 26.7165 132.279 26.1631C132.124 25.5986 131.892 25.1172 131.582 24.7188C131.283 24.3203 130.907 24.0104 130.453 23.7891C130.01 23.5677 129.485 23.457 128.876 23.457C128.256 23.457 127.725 23.6009 127.282 23.8887C126.84 24.1654 126.48 24.5472 126.203 25.0342C125.938 25.5212 125.738 26.0967 125.605 26.7607C125.484 27.4137 125.423 28.1221 125.423 28.8857ZM145.876 35.9746L150.641 20.0371H155.771L148.549 40.7061C148.394 41.1598 148.184 41.6468 147.918 42.167C147.663 42.6872 147.315 43.1797 146.872 43.6445C146.44 44.1204 145.893 44.5078 145.229 44.8066C144.576 45.1055 143.773 45.2549 142.821 45.2549C142.368 45.2549 141.997 45.2272 141.709 45.1719C141.421 45.1165 141.078 45.0391 140.68 44.9395V41.4365C140.801 41.4365 140.929 41.4365 141.062 41.4365C141.194 41.4476 141.322 41.4531 141.443 41.4531C142.074 41.4531 142.589 41.3812 142.987 41.2373C143.386 41.0934 143.707 40.8721 143.95 40.5732C144.194 40.2855 144.387 39.9092 144.531 39.4443L145.876 35.9746ZM143.884 20.0371L147.785 33.0527L148.466 38.1162L145.212 38.4648L138.754 20.0371H143.884Z" fill="white"/>
</svg>
