<svg width="113" height="17" viewBox="0 0 113 17" fill="none" xmlns="http://www.w3.org/2000/svg">
<path d="M8.78423 0.279713L10.9197 5.54661L16.3865 6.03157C16.4701 6.03889 16.5499 6.07207 16.6158 6.12699C16.6817 6.1819 16.7308 6.25611 16.757 6.34033C16.7832 6.42456 16.7853 6.51507 16.7631 6.60057C16.7409 6.68606 16.6953 6.76274 16.6321 6.82104L12.4893 10.5654L13.7278 16.1368C13.7467 16.2235 13.7409 16.3142 13.7111 16.3974C13.6813 16.4807 13.6289 16.5528 13.5604 16.6046C13.4919 16.6564 13.4105 16.6857 13.3263 16.6888C13.2421 16.6918 13.1589 16.6685 13.0872 16.6217L8.38917 13.6669L3.69114 16.6217C3.61946 16.6685 3.53628 16.6918 3.45208 16.6888C3.36788 16.6857 3.28641 16.6564 3.21793 16.6046C3.14945 16.5528 3.09701 16.4807 3.06722 16.3974C3.03743 16.3142 3.03161 16.2235 3.0505 16.1368L4.26772 10.5654L0.146259 6.82104C0.0830232 6.76274 0.0374504 6.68606 0.0152337 6.60057C-0.00698303 6.51507 -0.00485876 6.42456 0.0213411 6.34033C0.0475411 6.25611 0.0966551 6.1819 0.162548 6.12699C0.228441 6.07207 0.308192 6.03889 0.391838 6.03157L5.85864 5.54661L7.99411 0.279713C8.02629 0.196972 8.08103 0.126202 8.15137 0.076397C8.22171 0.026592 8.30449 0 8.38917 0C8.47386 0 8.55663 0.026592 8.62697 0.076397C8.69732 0.126202 8.75206 0.196972 8.78423 0.279713Z" fill="#EDA803"/>
<path d="M32.7842 0.279713L34.9197 5.54661L40.3865 6.03157C40.4701 6.03889 40.5499 6.07207 40.6158 6.12699C40.6817 6.1819 40.7308 6.25611 40.757 6.34033C40.7832 6.42456 40.7853 6.51507 40.7631 6.60057C40.7409 6.68606 40.6953 6.76274 40.6321 6.82104L36.4893 10.5654L37.7278 16.1368C37.7467 16.2235 37.7409 16.3142 37.7111 16.3974C37.6813 16.4807 37.6289 16.5528 37.5604 16.6046C37.4919 16.6564 37.4105 16.6857 37.3263 16.6888C37.2421 16.6918 37.1589 16.6685 37.0872 16.6217L32.3892 13.6669L27.6911 16.6217C27.6195 16.6685 27.5363 16.6918 27.4521 16.6888C27.3679 16.6857 27.2864 16.6564 27.2179 16.6046C27.1495 16.5528 27.097 16.4807 27.0672 16.3974C27.0374 16.3142 27.0316 16.2235 27.0505 16.1368L28.2677 10.5654L24.1463 6.82104C24.083 6.76274 24.0375 6.68606 24.0152 6.60057C23.993 6.51507 23.9951 6.42456 24.0213 6.34033C24.0475 6.25611 24.0967 6.1819 24.1625 6.12699C24.2284 6.07207 24.3082 6.03889 24.3918 6.03157L29.8586 5.54661L31.9941 0.279713C32.0263 0.196972 32.081 0.126202 32.1514 0.076397C32.2217 0.026592 32.3045 0 32.3892 0C32.4739 0 32.5566 0.026592 32.627 0.076397C32.6973 0.126202 32.7521 0.196972 32.7842 0.279713Z" fill="#EDA803"/>
<path d="M56.7842 0.279713L58.9197 5.54661L64.3865 6.03157C64.4701 6.03889 64.5499 6.07207 64.6158 6.12699C64.6817 6.1819 64.7308 6.25611 64.757 6.34033C64.7832 6.42456 64.7853 6.51507 64.7631 6.60057C64.7409 6.68606 64.6953 6.76274 64.6321 6.82104L60.4893 10.5654L61.7278 16.1368C61.7467 16.2235 61.7409 16.3142 61.7111 16.3974C61.6813 16.4807 61.6289 16.5528 61.5604 16.6046C61.4919 16.6564 61.4105 16.6857 61.3263 16.6888C61.2421 16.6918 61.1589 16.6685 61.0872 16.6217L56.3892 13.6669L51.6911 16.6217C51.6195 16.6685 51.5363 16.6918 51.4521 16.6888C51.3679 16.6857 51.2864 16.6564 51.2179 16.6046C51.1495 16.5528 51.097 16.4807 51.0672 16.3974C51.0374 16.3142 51.0316 16.2235 51.0505 16.1368L52.2677 10.5654L48.1463 6.82104C48.083 6.76274 48.0375 6.68606 48.0152 6.60057C47.993 6.51507 47.9951 6.42456 48.0213 6.34033C48.0475 6.25611 48.0967 6.1819 48.1625 6.12699C48.2284 6.07207 48.3082 6.03889 48.3918 6.03157L53.8586 5.54661L55.9941 0.279713C56.0263 0.196972 56.081 0.126202 56.1514 0.076397C56.2217 0.026592 56.3045 0 56.3892 0C56.4739 0 56.5566 0.026592 56.627 0.076397C56.6973 0.126202 56.7521 0.196972 56.7842 0.279713Z" fill="#EDA803"/>
<path d="M80.7842 0.279713L82.9197 5.54661L88.3865 6.03157C88.4701 6.03889 88.5499 6.07207 88.6158 6.12699C88.6817 6.1819 88.7308 6.25611 88.757 6.34033C88.7832 6.42456 88.7853 6.51507 88.7631 6.60057C88.7409 6.68606 88.6953 6.76274 88.6321 6.82104L84.4893 10.5654L85.7278 16.1368C85.7467 16.2235 85.7409 16.3142 85.7111 16.3974C85.6813 16.4807 85.6289 16.5528 85.5604 16.6046C85.4919 16.6564 85.4105 16.6857 85.3263 16.6888C85.2421 16.6918 85.1589 16.6685 85.0872 16.6217L80.3892 13.6669L75.6911 16.6217C75.6195 16.6685 75.5363 16.6918 75.4521 16.6888C75.3679 16.6857 75.2864 16.6564 75.2179 16.6046C75.1495 16.5528 75.097 16.4807 75.0672 16.3974C75.0374 16.3142 75.0316 16.2235 75.0505 16.1368L76.2677 10.5654L72.1463 6.82104C72.083 6.76274 72.0375 6.68606 72.0152 6.60057C71.993 6.51507 71.9951 6.42456 72.0213 6.34033C72.0475 6.25611 72.0967 6.1819 72.1625 6.12699C72.2284 6.07207 72.3082 6.03889 72.3918 6.03157L77.8586 5.54661L79.9941 0.279713C80.0263 0.196972 80.081 0.126202 80.1514 0.076397C80.2217 0.026592 80.3045 0 80.3892 0C80.4739 0 80.5566 0.026592 80.627 0.076397C80.6973 0.126202 80.7521 0.196972 80.7842 0.279713Z" fill="#EDA803"/>
<path d="M104.784 0.279713L106.92 5.54661L112.387 6.03157C112.47 6.03889 112.55 6.07207 112.616 6.12699C112.682 6.1819 112.731 6.25611 112.757 6.34033C112.783 6.42456 112.785 6.51507 112.763 6.60057C112.741 6.68606 112.695 6.76274 112.632 6.82104L108.489 10.5654L109.728 16.1368C109.747 16.2235 109.741 16.3142 109.711 16.3974C109.681 16.4807 109.629 16.5528 109.56 16.6046C109.492 16.6564 109.41 16.6857 109.326 16.6888C109.242 16.6918 109.159 16.6685 109.087 16.6217L104.389 13.6669L99.6911 16.6217C99.6195 16.6685 99.5363 16.6918 99.4521 16.6888C99.3679 16.6857 99.2864 16.6564 99.2179 16.6046C99.1495 16.5528 99.097 16.4807 99.0672 16.3974C99.0374 16.3142 99.0316 16.2235 99.0505 16.1368L100.268 10.5654L96.1463 6.82104C96.083 6.76274 96.0375 6.68606 96.0152 6.60057C95.993 6.51507 95.9951 6.42456 96.0213 6.34033C96.0475 6.25611 96.0967 6.1819 96.1625 6.12699C96.2284 6.07207 96.3082 6.03889 96.3918 6.03157L101.859 5.54661L103.994 0.279713C104.026 0.196972 104.081 0.126202 104.151 0.076397C104.222 0.026592 104.304 0 104.389 0C104.474 0 104.557 0.026592 104.627 0.076397C104.697 0.126202 104.752 0.196972 104.784 0.279713Z" fill="#EDA803"/>
</svg>